<svg xmlns="http://www.w3.org/2000/svg" version="1.0" width="2345.077" height="1252.11" viewBox="0 0 1758.807 939.083"><path d="M231.449.374c-1.4.5-4.5 1.4-7 2.2-2.5.7-5.8 1.9-7.5 2.7-1.6.8-3.7 1.8-4.5 2.2-.9.4-3.1 1.1-4.9 1.5-1.9.4-4.5 1.9-5.8 3.3-1.2 1.4-2.3 2-2.3 1.4 0-.8-.9-.8-3 0-3.7 1.2-4.2 2-3.5 5 .6 2.3.7 2.3 18.5 2.5 15 .1 18.2.3 19.5 1.7.9.9 2.2 1.6 3 1.6.7 0 3 1.8 5.2 3.9 2.3 2.3 5.5 4.4 8 5 2.3.6 4.5 1.6 4.8 2.1.3.6 1.4 1 2.4 1 .9 0 3.6 1.6 5.8 3.5 2.3 1.9 4.8 3.5 5.7 3.5.8 0 1.9.6 2.3 1.4.4.7 1.5 1.5 2.3 1.8 1.2.5 1.1.7-.4 1.3-2.2 1-11.7-1.2-13.1-2.9-1.7-2.2-8.4-4.9-10.6-4.3-1.3.4-3.2-.2-4.8-1.4-1.7-1.2-5.7-2.4-10.2-3-4.1-.6-8.2-1.7-9.1-2.6-.9-.8-2.2-1.2-2.8-.8-.6.4-2.2-.1-3.6-1s-3.3-1.5-4.2-1.4c-.9.2-3.3-.2-5.2-.8-1.9-.6-4.9-1.1-6.7-1-1.7 0-3.9-.7-4.8-1.7-1-.9-2.5-1.4-3.3-1.1-.8.3-1.8.1-2.1-.4-.4-.5-3.1-1.2-6.1-1.5-3-.3-7.4-1.1-9.6-1.7-4-1.2-4.5-1.1-12 2.8-4.4 2.2-10.5 4.9-13.6 5.9-3.2 1-5.8 2.1-5.8 2.5 0 .4-.8.9-1.7 1.3-1 .3-2.5.9-3.3 1.4-.8.5-3.1 1.7-5 2.7-1.9 1-4.3 2.6-5.3 3.7-1 1-2.4 1.8-3.1 1.8-.7 0-3.2 1.3-5.4 3-2.3 1.6-4.8 2.7-5.6 2.4-1-.4-2 .3-2.7 2-.7 1.5-2 2.6-3.1 2.6s-4.1 2.2-6.8 5c-2.7 2.7-5.3 5-5.9 5-.6 0-1.1.4-1.1.8 0 1-7.7 6.2-9.1 6.2-.5 0-.9.4-.9.8 0 1.7-7.1 8.2-9 8.2-1.1 0-2.7 1.1-3.6 2.5-.9 1.4-2.2 2.5-2.8 2.5-1.8 0-4.8 4-5.9 7.9-.6 2-1.1 7.6-1.2 12.6 0 8-.3 9.5-2.8 13.2-1.5 2.4-3.3 4.3-4 4.3-.8 0-3.4 2.2-6 5-2.6 2.7-5 5-5.5 5-1.4 0-6.9 6.4-8.9 10.5-1.2 2.2-2.7 6-3.4 8.5-.7 2.5-1.6 4.9-2.1 5.5-.4.5-.8 2.3-.8 4.1 0 1.9-.9 4.1-2.5 5.8-1.4 1.5-2.5 3.5-2.5 4.5 0 2.3 4.5 6.2 6.4 5.5.8-.3 1.7-.1 2.1.5.3.6 1.1 1.1 1.6 1.1 1.3 0 6.9-6.1 6.9-7.6 0-.6.7-1.7 1.5-2.4.9-.7 2.2-2.7 3-4.4.9-1.7 3.1-4.2 4.9-5.6 3.4-2.5 10.6-12 10.6-13.9 0-.6.7-1.1 1.6-1.1 1.4 0 5.9-3.8 10.4-8.7.8-.9 2.8-2.8 4.5-4.2 1.6-1.4 4.1-3.9 5.5-5.4 1.4-1.6 4.2-4.7 6.2-6.9l3.7-4.1 5.3.9c4.9.8 5.3 1.1 5 3.4-.8 5.8-5.7 12.9-9 13-.7 0-1.5.7-1.9 1.5-.3.9-1.5 1.5-2.7 1.3-1.5-.2-2.5.6-3.6 2.8-2.2 4.5-8 11.4-9.5 11.4-1.4 0-14.2 12.5-20.7 20.3-2 2.4-4.3 5.9-5.2 7.8-2.7 5.7-4.4 8.3-6.5 10-1 .8-3.1 3.9-4.5 6.7-2.2 4.3-2.7 6.6-2.7 13.2l-.1 7.9-4.6 5c-2.6 2.7-7.2 7.6-10.2 11-3 3.4-5.8 6.1-6.4 6.1-1.2 0-7 6-8.5 8.7-.6 1.2-1.1 3-1.1 4.1 0 1.1-.7 2.5-1.5 3.2-.8.7-1.5 2.1-1.5 3.1 0 1.1-.4 1.9-.8 1.9-1.2 0-.6 18 .7 21 .6 1.4 1.9 3.7 2.9 5.1 4.9 7.2 6.2 9.5 6.2 10.9 0 .8 1.6 3.3 3.5 5.5 2 2.2 3.8 4.8 4.1 5.7.3 1 1 1.8 1.5 1.8s.9.6.9 1.4c0 .8 1.6 4.5 3.5 8.3 2.1 4.1 3.5 8.2 3.5 10.5 0 2 .5 4 1 4.3.6.4.9 3.4.8 6.8-.2 3.4.1 7.6.5 9.3.7 2.9.3 3.6-4.9 9.3-3.2 3.4-7.7 7.1-10.1 8.3-2.4 1.2-4.3 2.7-4.3 3.3 0 .7-1.1 1.7-2.5 2.3-1.4.7-2.8 2-3.2 2.9-.3 1-1.3 2.6-2.1 3.6-1.3 1.5-1.4 2.5-.5 6 .6 2.3.8 6.8.6 10-.5 4.8-.2 6.6 1.6 9.8 1.6 2.8 2.2 5.3 2 9.1-.1 4.1.5 6.4 2.5 9.9 3.2 5.6 9.2 11.9 11.4 11.9 1.3 0 12.2 17 12.4 19.3 0 1.2.2 2.6.3 3.2.2.5.3 1.8.4 2.7 0 1 .8 1.8 1.6 1.8 1.7 0 1.8.7.6 6.8-.5 2.3-.5 4.5 0 4.8.5.3.9-.2.9-1.1 0-.9.4-1.4 1-1 .5.3.7 1.2.4 1.9-.3.8-.1 1.7.5 2.1.6.3 1.1 3 1.1 5.9 0 3 .7 6.7 1.5 8.2.8 1.6 1.5 5 1.5 7.6 0 2.6.5 5 1 5.3.6.3 1 1.4 1 2.4 0 2.2-5.9 11.3-7 10.6-.4-.3-1.5 1.1-2.4 3-.9 1.9-2.2 3.5-2.9 3.5-2.1 0-3.7 5.4-4.1 13.3-.3 6.4 0 8 1.5 9.6 1.4 1.5 2 3.9 2.2 8.8.4 8.1 2 12.3 4.5 12.3 1 0 2.9 1.1 4.2 2.5 1.3 1.4 3.2 2.5 4.2 2.5s1.9.4 1.9 1c.1.5.2 1.5.3 2.1.1 1.1 2.8 2.6 4.8 2.8.3.1.9-.7 1.1-1.7.3-1 .5-.6.6 1.1.1 1.9.8 3 2.4 3.6 3.8 1.5 5.5 4.3 7.6 13.2 1.1 4.8 3.4 11.3 5.1 14.6 1.6 3.3 3 7.2 3 8.7 0 1.4.4 3.4.9 4.4.6.9 1.7 4.1 2.6 7 1 3.2 2.1 5 2.7 4.6.7-.5.8-.2.2.7-.4.8-.9 4.3-1 7.9-.1 7.2-1.9 12.1-4 11.3-1-.3-2.1 1.1-3.5 4.6-1.2 2.8-2.6 5.1-3 5.1-.5 0-.9.7-.9 1.5 0 .9-1.2 3.9-2.6 6.8l-2.7 5.1 1.7 7.1c.9 3.8 1.6 8.2 1.6 9.6 0 1.5.6 3.1 1.3 3.6 2 1.6 9.7 4.3 9.7 3.5 0-.5 1.8-1.9 4.1-3.1 4.7-2.7 12.1-3.1 17-1.1 4.6 2 10.9 8 10.9 10.5 0 1.2.9 3 2 4s2 2.4 2 3.2c0 .7.5 1.3 1.1 1.3.6 0 .9-.7.5-1.5-.3-.8-.1-1.5.5-1.5.7 0 .9 1.2.5 3.4-.4 2-.2 3.7.4 4.1.5.3 1 1.7 1 3s.5 2.7 1 3c.6.3 1 1.4 1 2.4s.9 2.9 2 4.3c2.5 3.2 5 10.4 5 14.5 0 1.7.5 3.5 1 3.8.6.3 1 .1 1-.6s.3-1 .6-.6c.4.3-.3 1.8-1.5 3.3-1.4 1.8-2.1 4.1-2.1 6.9 0 2.3-.7 6.1-1.5 8.5-.8 2.3-1.4 5.1-1.4 6.3.1 1.2-.4 5.7-1.1 10-1.3 8.7-.6 13.6 2.1 15.5.9.6 2 2.6 2.4 4.2.4 1.7 1 3 1.5 3 .4 0 1 .9 1.3 2 .4 1.5 1.4 2 4 2 2 0 3.8-.4 4.1-.9.3-.5 2.3-1.1 4.3-1.4 7.3-1 12.7-2.5 13.1-3.6.7-2 7-1.2 9.2 1.1 1.5 1.7 2.3 1.9 3.2 1 .8-.8 2-.2 4.8 2.6 2.1 2 4 4.7 4.4 5.8.4 1.2 1.5 2.9 2.6 3.9s2 2.6 2 3.5c0 .9.5 2.1 1.1 2.7.7.7 1.3 6.9 1.5 16 .7 28.5 1.4 37.4 3.2 39.9.9 1.3 2.1 2.4 2.5 2.4.5 0 2.1.8 3.5 1.9 1.5 1 5 2.1 7.7 2.5 2.8.4 6.2 1.2 7.7 1.8 2.2.8 3.9.7 7.7-.6 5.3-1.7 10.1-2.1 10.1-.8 0 1.6 5.2.7 6.1-1.1 1.4-2.5 6.1-2.2 8.8.7 2.4 2.5 4.7 9.2 5.6 15.9.8 6.7 1.8 9.2 5.2 13.1 3.2 3.5 5.3 4.6 5.3 2.6 0-1.9 2.3-1 5.5 2.2 2.9 2.8 4 3.2 9.2 3.3 3.2.1 8.6.6 12.1 1.2 4.9.7 6.5.7 7.3-.4.7-.7 1.8-1.3 2.5-1.3.8 0 1.4-.3 1.4-.8 0-.4 2.1-.6 4.7-.5 2.6.1 5.2-.2 5.9-.8.6-.5 1.9-.7 2.8-.3.9.3 2.2.2 2.9-.4.6-.6 2.3-1 3.7-1 5 .1 14.5-1.6 15.5-2.7.6-.7 3.7-2 7-3s6.6-2.2 7.2-2.8c1.9-1.4 6.3 1.8 6.3 4.7 0 3.1-3.9 6.5-11.2 9.8-2.9 1.3-3.8 4.6-1.5 5.2 7.5 2.1 10.4 3.3 11.3 4.5.6.8 1.3 1 1.7.4.5-.9 1.9-.8 10.7.3 1.9.2 5 .4 6.9.4 1.8-.1 3.9.4 4.6 1 .7.6 3.3.8 6.1.4 2.7-.3 8.8-.7 13.7-.8 4.8-.2 9.3-.8 10-1.4 1.1-.9 8.8-2 18.7-2.6 2.5-.2 6.9-1.1 9.9-2 3-.9 6.9-1.6 8.8-1.6 1.8 0 4.9-1 7-2.2 2.1-1.2 4.8-2.1 6.1-2 1.2.1 3.9-.9 6-2.2 2-1.2 4.3-2.1 5.1-1.8.7.2 1.7-.1 2.1-.8.4-.7 2.4-1.2 4.3-1.2 2 0 4.1-.6 4.8-1.4.6-.8 1.5-1.1 2-.8.5.3 1.2-.1 1.5-.9.3-.8 1.4-1.2 2.7-1 3.6.7 10.2-2.1 10.2-4.3 0-2.7-3.7-2.9-8.2-.5-5.5 2.8-10 4.1-14.8 4.1-2.5 0-4.8.6-5.5 1.5-1.4 1.6-5.8 2.6-12.5 2.9-2.5 0-4.5.4-4.5.7 0 .8-4.8 1.9-10.4 2.6-2.2.2-4.8.9-5.7 1.4-1 .5-2.5.6-3.4.3-.9-.4-2.4.1-3.5 1.1-1.4 1.3-2.3 1.4-3.8.6-1.9-1-5.9-1-7.7.1-.6.3-4.8.6-9.4.6-4.6.1-8.9.6-9.4 1.1-1.7 1.7-5.6 1.3-9.8-1.1-5.8-3.2-4.9-6.8 1.6-6.8 1.3 0 2.7-.5 3-1 .3-.6 2.6-1 5-1s4.7-.5 5-1c.3-.6 2-1 3.6-1s4-.9 5.2-2c1.9-1.8 3.1-2 11-1.6 8.2.4 8.9.3 11.3-1.9 1.4-1.3 3.2-2.1 4-1.8.8.3 2.1 0 2.9-.7.8-.6 1.8-1 2.2-.7.4.3 1.9 0 3.3-.6 1.4-.5 3.2-.9 4.2-.8.9.1 1.9-.3 2.3-.9.3-.5 1.7-1 3.1-1 1.3 0 2.4-.5 2.4-1 0-.6 1.4-1 3.1-1 1.9 0 3.7-.7 4.4-1.7.9-1.2 2.6-1.7 5.3-1.7 3.5.1 4.8-.5 9.3-4.7 2.8-2.6 5.7-4.5 6.4-4.3.7.3 1.6.1 2-.5.3-.6 1.5-1.1 2.6-1.1s3.3-1.9 5.4-4.8c1.9-2.7 4.6-5.4 6-6 1.4-.6 2.5-1.8 2.5-2.7 0-.8.4-1.5.9-1.5s1.1-.9 1.4-2.1c.4-1.6 1.1-1.9 2.6-1.4 1.4.4 2.1.2 2.1-.7 0-.9 1.3-1.4 3.8-1.3 3.5 0 3.7.2 4 3.4.3 2.7-.5 4.7-3.7 9.2-2.3 3.2-4.1 6.4-4.1 7.1 0 .7 2.4 3.6 5.3 6.5l5.3 5.1 4.7-1.1c3.9-.9 4.7-1.4 4.7-3.3 0-1.3-.4-2.5-.9-2.8-1.6-1.1-1.9-4.5-.4-6.5 1.3-2 1.6-2 4.5-.5 4.6 2.4 8.4 2.8 9.1 1 .6-1.5 10.3-6.6 12.6-6.6.7 0 3.2-1.1 5.7-2.5s4.9-2.5 5.4-2.5c2.2 0 8.1-4.8 9.5-7.8.9-1.8 2-3 2.6-2.7 1.2.8 1.1-1.1-.1-5.7-.8-2.7-.8-4.4 0-5.8.8-1.6.8-2.8-.4-5-1.4-2.9-1.4-3 .9-3 1.6 0 3.3-1.3 5.4-4.2 1.7-2.3 3.1-3.9 3.1-3.6 0 .3 2.1-.2 4.7-1.2 4-1.5 5.2-2.7 9-9 2.8-4.5 4.2-7.8 3.8-8.8-.3-1-.8-6-1.1-11.2-.2-5.2-.6-14.1-1-19.8l-.5-10.3 3.5-4c2-2.1 3.6-4.4 3.6-4.9 0-.6 1.2-1 2.6-1 1.6 0 3.9-1.3 5.9-3.3l3.3-3.3v-11c-.1-7.9-.5-11.5-1.6-13.2-.8-1.3-1.7-4-1.9-6-.2-2-.7-4.6-1.2-5.7-2.8-6.2-3.3-8.5-2.3-9.8.7-.8.8-3.6.1-8.8-.9-7-.7-7.9 1.6-12.5 1.4-2.7 2.5-5.5 2.5-6.2 0-.7 1.6-2.8 3.6-4.6l3.6-3.3-.7-8.4c-.4-4.6-1-8.6-1.4-8.9-.7-.4-1.8-9.3-3.8-30-.3-3.6-.5-8.5-.4-11 .1-2.5-.5-6.4-1.3-8.7-1-2.9-1.1-4.4-.4-5.1.8-.8.8-1.5 0-2.5-.7-.8-.9-1.7-.6-2 .4-.3.7-3.2.9-6.4.2-4 1-7.2 2.8-10.3 2.2-4 2.4-5.4 2.1-12.5-.6-11-1-13.4-2.8-17.7-.9-2.1-1.6-4-1.7-4.3 0-.3-.7-2.4-1.5-4.7-2.5-7-4.1-14.1-4-17.8.1-1.9-.3-4.4-.8-5.5-.5-1.1-1.1-4.8-1.3-8.3-.2-3.5-.7-7.1-1.2-8.1-.5-.9-1.2-5.3-1.5-9.8-.5-7-.3-8.4 1.4-10.6 1.1-1.4 2-3 2-3.6 0-.6.5-1.1 1-1.1 1.9 0 1-7.3-1.4-12.4-1.3-2.8-3.1-7.1-4-9.6-.9-2.5-2.8-5.9-4.2-7.5-3.7-4.2-4.1-5.8-4.2-15.9-.1-6.4-.5-9.3-1.7-10.6-.8-.9-1.5-2.8-1.5-4.2 0-1.4-.7-4.2-1.5-6.1-.8-2-1.5-4.9-1.5-6.5 0-1.5-.4-3.2-.9-3.8-1.5-1.4-2.5-12.1-1.2-12.8.5-.4.7-1.4.4-2.3-.4-.9.1-2.1 1.1-2.9 1.8-1.3 2.4-5.6 1.6-11.9-.7-4.7-2.3-7.1-8.3-12.1-3.2-2.5-5.7-5.3-5.7-6.1 0-.7-1.1-4-2.5-7.3s-2.5-7.4-2.5-9.1c0-1.8-.6-4-1.4-4.8-1.8-2.2-5.2-13-5.1-16.4.1-1.5-.3-2.7-.7-2.7-.4 0-.8-.9-.8-1.9 0-1.1-.5-2.3-1-2.6-.6-.4-.8-1-.5-1.5.3-.5.8-4.3 1.1-8.5.2-4.1.9-8.6 1.4-9.9.9-2.4.4-6.2-1-8.1-.4-.6-1.1-2.9-1.5-5.2-.6-3.9-1.1-4.5-5.8-6.9-5.2-2.5-9.6-6.8-9.7-9.2 0-.6-.4-1.2-.9-1.2-1.1 0-4.5-7-3.7-7.7.3-.4.2-1.1-.3-1.7-1.9-2.4-6.1-10.6-6.1-11.9 0-.8-1.1-3.9-2.5-6.8-2.9-6.4-4.1-14.7-2.6-18.9.8-2.3.7-3.6-.1-5-.9-1.4-.9-2.5 0-4.5.7-1.5 1-3.1.6-3.6-.5-.9-2.5-12-2.9-16.8-.2-2.6-5.6-5.5-8.6-4.6-1 .3-4.7.1-8.3-.6-5.5-.9-6.8-1.5-8-3.7-.7-1.5-2.8-5.2-4.5-8.4-1.7-3.1-3.1-6.9-3-8.5 0-1.5-.4-6.1-.9-10.2-.6-4-.8-8-.5-8.7.3-.8 0-1.4-.5-1.4-1.2 0-1.5-1.7-3.3-16.5-1.4-12.1-2.6-17.5-4-17.5-.6 0-1.8-.7-2.6-1.6-1.1-1.1-2.7-1.4-4.9-1.1-1.7.3-5.1.1-7.3-.4-3.3-.7-5-.6-7.6.7-3.4 1.6-9.5 1.2-9.5-.6 0-.5-.6-1.5-1.2-2.2-2.9-3-5.7-15.6-6-26.3-.2-7.6-3.5-22.5-5-22.5-.5 0-.8-.5-.8-1.1 0-1.4-2.6-3.6-6-5.1-4.9-2.1-16.2-2.4-26-.8-7.5 1.2-13.1.1-14.6-2.8-.6-1.3-1.7-2.9-2.3-3.5-1.5-1.5-1.3-8.4.4-13.2.8-2.2 1.5-4.7 1.5-5.5-.1-3-4.6-5-13.3-5.6-7.3-.6-8.6-1-9.1-2.6-.4-1.6-.9-1.8-2.8-1.2-2.8 1-4.9.9-15.2-.4-7.1-.9-8.4-.9-11.7.9-4.5 2.3-7.7 2.4-10.5.5-1.2-.8-3-1.5-4-1.5-2.9 0-7.5-1.1-11.1-2.7-1.7-.8-5.8-1.4-9-1.4-3.4 0-8.5-.9-11.8-2-4.7-1.6-8.5-2-19.4-2.1-12.8 0-25.5.1-31.1.3-1.4.1-3.8-.2-5.5-.5-1.6-.3-4.1-.2-5.5.2zm125.2 24.4c.9.8 1.7 3.1 1.9 5.5.3 3.5-.2 5-2.4 7.7-3.7 4.6-6.9 4.7-8.5.2-1.5-4.3-1.5-12 0-13.5 1.6-1.6 6.8-1.5 9 .1zm-180.8 23.8c-2.4 2.6-7.4 2.6-7.4-.1 0-2 3.6-4.6 5.7-4.2.6.1 1.5-.3 2-1 .6-.9.9-.6 1.1 1 .2 1.3-.4 3.2-1.4 4.3zm157.6-4.6c2.8 1.5 14 13.8 14 15.5 0 .4.8.6 1.8.3 1.4-.3 2.3.6 3.6 3.9 1 2.4 2.4 5.7 3.2 7.5 1.2 2.8 1.1 3.4-.2 4.8-1.3 1.3-1.9 1.3-3.3.3-3.3-2.5-15.1-15.4-15.7-17.1-.3-.9-.9-1.7-1.3-1.7s-2.4-1.6-4.4-3.5c-2.6-2.6-3.7-4.6-4.1-7.5-.4-3.5-.2-4 1.5-4 1.1 0 3.3.7 4.9 1.5zm-168.4 8.1c-.3 1.1-2 2.5-3.8 3.3-1.8.8-4.2 2.1-5.3 3.1-1.1.9-4 2.5-6.5 3.5s-5.2 2.4-6 3c-.8.6-2.8 1.7-4.5 2.5-1.6.8-4.7 2.7-6.7 4.3-2.1 1.6-3.8 2.6-3.8 2.3 0-.3-2.1 1-4.6 2.9-2.5 1.9-4.9 3.5-5.4 3.5-.8 0-5.2 2.9-12.1 7.9-1.8 1.2-1.9 1.1-1.9-1.8 0-2.4 1.1-4.2 4.5-7.5 2.5-2.5 5.5-4.8 6.7-5.2 1.3-.4 3.4-1.7 4.7-3 1.3-1.3 3.1-2.4 4-2.4.9 0 2.2-.9 2.9-2 .7-1.1 2.1-2 3.1-2s2.1-.6 2.4-1.4c.7-1.8 18.8-10.6 22-10.6 1.4 0 3.8-1.1 5.3-2.5 2.4-2.2 3-2.4 4.2-1.1.8.7 1.1 2.2.8 3.2zm131.2-1.4c5.2-.1 8 .2 9.5 1.3 1.2.8 1.7 1.5 1.2 1.5s-.4.5.3 1.2 1.2 2.2 1.2 3.4c0 1.3.4 2.5.9 2.8.5.3 1.1 2 1.4 3.8.3 1.8 1 5.5 1.7 8.3.6 2.7 1.3 6.8 1.6 9 .3 2.2.9 4.4 1.4 4.9.6.6 1 2 1 3.2 0 1.2.7 2.7 1.5 3.4.9.7 1.3 2 1 2.8-.3.7.6 2.7 2 4.3 2.3 2.8 4.5 8.6 4.5 12.1 0 .9 1.1 2.9 2.4 4.5 1.3 1.5 3.3 4.9 4.4 7.5 1.1 2.7 2.5 4.8 3 4.8 1.3 0 2.5 10.3 1.7 14-.4 1.7-1.1 3-1.7 3-.6 0-4.1-3-7.8-6.8-3.7-3.7-8.1-7.8-9.8-9.2-1.8-1.4-3.4-3.3-3.8-4.3-.3-.9-1.1-1.7-1.9-1.7-.7 0-3.1-1.7-5.3-3.8-2.2-2.2-5.5-4.5-7.4-5.3-1.8-.7-4.1-2.4-5.1-3.6-1-1.3-2.6-2.3-3.6-2.3-.9 0-3.4-.9-5.6-2-2.2-1.1-4.4-2-5.1-2-2.1 0-4.6-3.9-5.1-8.2-.4-3.1-1.5-5.3-4-8-3.2-3.2-3.5-4.1-2.9-7.2.4-2 1.3-3.6 2-3.6s1.9-1.1 2.6-2.5c1.3-2.4 1.9-2.6 6.7-2.3 2.9.2 5.3.6 5.3 1 0 1.6 6.3.8 7.6-1 2-2.6 1.7-4.7-1.6-11.2-2-4-3.6-6-5.1-6.2-1.2-.2-2.7-1.1-3.3-2.1-1.4-2.4 1.8-5 4.8-4 1.2.4 5.4.6 9.4.5zm-142.1 34.3c1.5 1.1 4 1.8 5.4 1.6 1.5-.1 3.3.4 4.1 1.2.8.8 2.8 1.3 4.5 1.2 2-.2 3.4.3 3.7 1.1.3.8 1.2 1.1 2.2.7.9-.3 1.9-.1 2.3.6.4.7 2.4 1.3 4.4 1.4 1.9.1 4.4 1 5.4 1.9 2.2 1.9 10.9 3.3 11.8 1.8.9-1.4 2.5-1.3 2.5.3 0 .8 1.2 2.4 2.6 3.8 3.5 3.3 9.4 12.2 9.4 14.3 0 3.4 5.6 10.6 8.3 10.6 1.3 0 1.7.5 1.3 1.6-.3.9-.6 1.9-.6 2.4 0 .4-1.2 1-2.6 1.3-2.7.5-8.4-1.8-8.4-3.4 0-.5-.8-.9-1.8-.9-1.1 0-2.7-.9-3.7-2s-2-1.8-2.2-1.6c-.3.2-2-.2-3.8-1-1.9-.8-5-1.4-7-1.4-2.3 0-3.5-.5-3.5-1.4 0-1.6-2.1-2.6-5.6-2.6-1.3 0-4-.9-6-1.9-2-1.1-4.2-1.7-4.8-1.5-.7.3-5.2-1.6-10.1-4.1-4.8-2.5-9-4.4-9.3-4.1-.2.3-1.6-.3-2.9-1.4-1.3-1-4.5-2.2-7.1-2.5-2.6-.3-6.6-1.6-8.9-2.8-3.5-1.8-4.3-2.7-4.3-5 0-2 .7-3.1 2.8-4 1.5-.6 3.5-2.2 4.5-3.4 2.8-3.5 12.6-3.9 17.4-.8zm109.1 36.5c.2.6 1 1 1.8 1s1.4.4 1.4.8c0 1.3 5.3 3.9 9.4 4.6 2.1.4 4.9 1.8 6.2 3.1 1.2 1.3 2.4 1.9 2.6 1.4.2-.4.9-.5 1.6 0 .7.4 1.5 3.6 1.8 7.2 1.3 14.3 2.3 18.7 4.6 20.3 1 .8 2.1 3.1 2.5 5.2.3 2.2 1.6 5.9 2.8 8.4 1.3 2.5 2.9 5.8 3.6 7.5.7 1.6 2.8 5.1 4.6 7.6 1.8 2.6 3.3 5.6 3.3 6.8 0 1.2.5 1.9 1 1.6.6-.3 1-.1 1 .5s1.2 2.7 2.8 4.6c1.5 1.8 2.7 3.7 2.7 4.1.2 1.9 3 8.3 3.7 8.3 1.6 0 .7 3-1.3 4-1.5.8-4 .8-9.2 0-5.7-.9-7.7-1.6-9.4-3.7-1.3-1.4-2.3-3.2-2.3-4 0-.7-.5-1.3-1-1.3-.6 0-2.9-1.7-5.3-3.8-2.3-2.1-5.8-4.8-7.7-6-1.9-1.1-6.2-4.8-9.5-8.1s-6.6-6.1-7.3-6.1c-.7 0-2.5-1.7-4-3.9-2.8-4-3.1-4.2-10.6-7.9-2.5-1.2-4.6-2.7-4.6-3.2 0-.6-.9-1-2-1s-3.5-.9-5.5-2-4.4-2-5.4-2-2.1-.6-2.4-1.4c-.7-1.7-7.6-6.4-13.9-9.5-2.7-1.2-4.8-2.8-4.8-3.5 0-3.7 11.5-5.5 17-2.6 2.8 1.5 8.2.5 10.4-1.9 1.4-1.6 1.5-2 .2-3-2.4-2-3-6.3-1.1-7.7.9-.7 2.3-1 2.9-.8 2.2.8 4-2.4 2.9-4.9-1.1-2.5-.2-6.8 1.8-9 1.6-1.7 14.2-1.4 14.7.3zm-113.2 12.1c2.9 2.7 2.9 3.1.7 8.1-1.1 2.4-2.4 3.8-3.5 3.8s-4.3 1.8-7.2 4c-2.9 2.2-5.8 4-6.3 4-.6 0-3.2 2-5.7 4.5-2.6 2.5-5.2 4.5-5.9 4.5-.7 0-2.8 1.6-4.7 3.5-1.9 1.9-3.8 3.5-4.4 3.5-.5 0-3.5 2.2-6.6 4.9-3.2 2.8-7 5.3-8.6 5.7-1.6.3-4.1 2-5.7 3.8l-2.7 3.1-2-2.4c-2.5-2.9-2.5-5.3-.1-10 1.1-2 2.2-4.4 2.5-5.4.3-1 1.8-2.3 3.3-3 4.4-1.9 8.1-5.7 8.8-8.9.4-1.6 1.2-2.7 1.8-2.5.7.2 2.3-1.2 3.6-3.1 1.3-1.9 3.5-4.5 5-5.8 8.9-7.8 12.6-11.1 14.2-12.6.9-.9 1.9-1.5 2.1-1.2.2.2 2.4 0 4.9-.4 7.5-1.4 13.8-.6 16.5 1.9zm63.8 22.5c.3.8.2 1.2-.4.9-.6-.3-1-1-1-1.6 0-1.4.7-1.1 1.4.7zm-86.9 22.4c.3.5.1 1-.4 1-.6 0-1.1-.5-1.1-1 0-.6.2-1 .4-1 .3 0 .8.4 1.1 1zm244.4 4.9c1.6 1 .6 5.1-1.3 5.1-1.8 0-4.9-3.7-4.1-4.9.7-1.3 3.5-1.4 5.4-.2zm-241.4 4c.3.5.1 1.2-.5 1.6-.5.3-1-.1-1-.9 0-1.8.6-2.1 1.5-.7zm-7.2 4.5c1.3 1.3 4.1 2.8 6.2 3.2 2.2.4 4.3 1.1 4.6 1.6.6.9 2.8 1.6 12.7 3.9 2.3.6 4.2 1.4 4.2 1.9 0 .4 1.5 1.1 3.3 1.4 1.9.4 5.1 2.3 7.5 4.6 2.3 2.3 4.2 3.6 4.2 3 0-2 4.8-1 7.1 1.5 1.8 1.8 3.4 2.5 6.5 2.5 2.8 0 4.4.5 4.8 1.5.3.9 1.8 1.5 3.5 1.5 1.6 0 3.6.6 4.3 1.2 2.4 2.2 5.7 3.8 7.8 3.8 1.2 0 3.1 1 4.4 2.3 1.3 1.3 2.8 2.1 3.5 1.9.6-.2 1.8.2 2.6.8.8.7 4.3 2.5 7.7 4.1 9.2 4.3 9.1 4.3 10.1 7.5.5 1.6 1.5 3.6 2.2 4.4.8.9 1.3 4.3 1.3 8.7 0 6.5-.2 7.3-2.4 8.7-3 2-6.8 2-8.4.1-.7-.8-2.7-1.5-4.6-1.5-2.3 0-3.7-.6-4.4-1.9-.5-1.1-2.4-2.3-4.2-2.6-1.7-.4-4.5-1.6-6.2-2.6-1.7-1-4.2-1.9-5.4-1.9-4.2 0-13.2-3.1-13.2-4.5 0-.8-.7-1.1-1.8-.9-1 .3-2.9-.7-4.6-2.5-1.7-1.7-4-3.1-5.2-3.1-1.2 0-4.4-1.1-7.1-2.4-2.6-1.3-6.5-2.7-8.7-3-2.1-.4-4.6-1.1-5.5-1.6-.9-.5-5-2.4-9.1-4.4-4.1-1.9-8.8-4.8-10.5-6.4-1.6-1.6-4.5-3.3-6.4-3.7-3.4-.7-10.1-4.2-11.2-5.8-.5-.8-2.7-1.4-5.4-1.6-1.5-.1-4.5-5.5-4.5-8.1 0-3.5 6.7-11.8 10.3-12.9 5.3-1.5 7.7-1.2 10 1.3zm309.1-1.7c.4.4 2.3.6 4.2.4 1.8-.1 3.4.2 3.4.7 0 .5 1.1 1.5 2.5 2.2 1.9 1 2.5 2.1 2.5 4.6 0 2.8-.5 3.5-2.6 4-4.5 1.1-10.3-.2-12.4-2.9-1.8-2.2-2.5-2.4-10-2.2-8.4.2-10-.7-5.7-3.5 4.1-2.8 16.4-5 18.1-3.3zm-362.3 46.5c.6 2.3-.1 3.5-5.2 9-3.2 3.5-5.9 6.7-5.9 7.2s-.7 1.7-1.6 2.7c-.9 1-2.2 3.5-2.9 5.6-.8 2.5-2 3.9-3.3 4.1-1.3.2-3 2.2-4.7 5.8-1.4 3-3 5.4-3.4 5.4-.3 0-1.4 1.2-2.3 2.7-3 5.1-11.3 13.2-14.2 13.9l-2.8.7.5-4.4c.7-6 4-14.6 7.1-18.6 1.4-1.7 2.6-3.6 2.6-4.1 0-.4 1.4-1.8 3.1-3.1 1.6-1.2 3.4-3.3 3.9-4.7.6-1.4 1.8-2.4 3-2.4 1.1 0 2-.6 2-1.4 0-.8 1.4-2.6 3-3.9 1.7-1.4 3-2.9 3-3.4 0-.4.9-1.4 2-2.1 1.1-.7 2-1.9 2-2.7 0-.8.3-1.5.8-1.5.4 0 2.5-1.8 4.7-4 4.6-4.6 7.5-4.9 8.6-.8zm385.1 2.2c2 1.7 3.9 3.8 4.2 4.7.3.8 2.6 4.6 5.1 8.4 2.5 3.7 4.5 7.1 4.5 7.5 0 .4 1.6 2.4 3.5 4.4 1.9 2.1 3.5 4.3 3.5 5 0 .8.7 1.9 1.5 2.6.9.7 2.2 2.7 3 4.4 2.3 4.7 9 11.7 10.8 11.1 1.8-.8 9.7 8.5 9.7 11.4 0 1.1.5 2.1 1 2.1.6 0 1 .6 1 1.2 0 .7 1.4 3.3 3 5.8s3 5.7 3 7.2.5 3 1 3.3c.6.4.8 1 .5 1.5-.3.5-.1 1.1.5 1.5.5.3 1.7 2.3 2.6 4.3.9 2 2.9 6.5 4.5 9.9 1.6 3.4 2.9 6.7 2.9 7.3 0 .7.6 2.6 1.4 4.3 5 10.9 6.3 15.5 6.5 23.2.1 4.4.4 8.2.6 8.5.2.3.6 2.8 1 5.4.3 2.6 1.1 6 1.9 7.4.7 1.5 1.7 4.2 2.1 6.1.4 1.9 1.6 4.8 2.6 6.5 1 1.7 2.9 6.2 4 10.1 1.2 3.8 2.5 7.2 2.8 7.5 1.9 1.6 4 8.8 4.7 15.9.7 8.6 0 11.4-3.9 15.4-1.6 1.6-1.7 3.1-1.1 13.5.6 12.2 2.1 16.3 6.3 17.7 2.3.7 8.7 10.8 7.2 11.3-.6.2-1.1.9-1.1 1.5 0 .7-1.1 3.5-2.4 6.2-2.2 4.9-2.3 5.5-1.4 19 .5 7.7 1.1 20.1 1.3 27.5.3 7.4.7 17.3.9 22 .4 9-.9 15.9-3.1 16.7-1.6.6-4.3-2.5-4.1-4.7.2-.8-.1-2.1-.6-2.9-.5-.8-1-3.5-1.1-6-.1-2.5-.5-5.5-.9-6.6-.4-1.1-1.4-3.6-2.1-5.5-1.2-3-2.2-10.7-2.8-21.5-.1-1.7-.5-3.5-.8-4-.4-.6-1.2-3.5-1.9-6.5s-2.3-6.4-3.4-7.5c-1.2-1.1-2.2-2.7-2.3-3.5-.3-3.1-2.9-8.6-4.9-10.5-1.2-1.1-2.4-3-2.8-4.3-.4-1.3-2.1-3.9-3.8-5.7-1.7-2-2.9-4.4-2.7-5.7.1-1.3-.1-3-.4-3.8-1.8-4.5-3.7-10.8-3.7-12.6 0-1.1-.9-2.9-2-3.9-1.2-1-1.8-2.5-1.6-3.2.3-.7.1-1.5-.4-1.8-.6-.4-1-2.1-1-3.8 0-1.8-.7-4-1.4-4.9-.8-1.1-1.2-4-1-7.8.1-3.3-.2-6.3-.7-6.6-.6-.3-.7-1.4-.4-2.4.3-1 .1-2.1-.5-2.5-.5-.3-1-1.4-1-2.4s-.7-2.4-1.5-3.1c-.8-.7-1.5-2.6-1.5-4.3 0-4.1-4-18.6-6-21.7-1.9-2.9-4.3-11.2-4.5-15.5-.1-2.6-3-10-4.5-11.5-.7-.7-1.1-4.4-1.6-15.5-.7-13.9-.6-16.2 1-31 .8-7.4 1-13.5.5-14.1-.5-.6-.6-1.3-.3-1.7.3-.3-.1-1.6-.9-2.9-.8-1.2-1.8-5.2-2.1-8.8-1.1-10.7-1.4-12.1-3-13.9-.9-1-1.6-2.5-1.6-3.4 0-.9-.4-1.9-1-2.2-.5-.3-1-1.4-1-2.4s-.9-2.6-2.1-3.7c-1.2-1-3.4-4.7-4.9-8.1-1.6-3.4-3.8-6.8-4.9-7.5-1.2-.7-2.1-1.8-2.1-2.5 0-.6-1.5-3.1-3.3-5.5-5-6.6-10.2-15.2-9.9-16.2.2-.4-.5-1.7-1.4-2.7-1.4-1.5-1.4-2.1-.4-3.4 1.7-2 4.5-1.1 9.2 2.9zm-172.7-2.4c-.3.5-1.1 1-1.6 1-.6 0-.7-.5-.4-1 .3-.6 1.1-1 1.6-1 .6 0 .7.4.4 1zm1 2c-.3.5-1.4 1-2.3 1-1.5 0-1.5-.2-.2-1 2-1.3 3.3-1.3 2.5 0zm-209 9.8c.2 1.2 0 2.4-.4 2.7-1 .5-2.1-4.1-1.3-5 .8-.7 1.2-.1 1.7 2.3zm57.5 8.4c0 .4 1.7 1.6 3.8 2.7 4.7 2.4 8.2 5.7 8.2 7.8 0 1.2-16.5 19.1-23.1 25.1-3.3 2.9-6.6 6.1-14.5 14.4-4.5 4.7-8.9 8.8-9.8 9.1-.9.4-1.6 1.3-1.6 2.1 0 2.2-3.8 4.4-8.7 5.2-5.6.9-8.1-1.5-9-8.4-.5-4.4-.2-5.7 2.2-9.9 1.6-2.6 4.8-6.7 7.2-9 2.4-2.3 4.3-4.6 4.3-5.1s2.7-3.7 6-7.2 6-6.7 6-7.2c0-.4.6-.8 1.3-.9.6 0 2.9-1.9 4.9-4.2 8.9-10 10.8-12.2 10.8-13 0-.4 1.1-.7 2.3-.7 1.3 0 3.5-1 4.8-2.3 2.1-2.1 2.6-2.2 3.7-.8.6.8 1.2 1.8 1.2 2.3zm151 .9c0 1 .4 1.9.8 1.9.5 0 .9.8 1 1.7.1 2.3-2.8 10.3-3.7 10.3-.4 0-2.8-.7-5.3-1.6-3.7-1.2-4.9-2.2-5.7-4.6-2.6-7.3 0-10.5 7.8-10 4.2.3 5.1.7 5.1 2.3zm232.5.6c7.5 2.2 9.6 3.4 13.8 7.2 3.4 3.2 5 7.1 2.9 7.1-.5 0-.9.6-.9 1.2 0 .7-.3 2.4-.8 3.7-.6 2.1-.5 2.3 1.3 1.9 2.4-.7 5.2 2.3 5.2 5.5.1 1.2.7 3.3 1.5 4.7.8 1.4 1.4 3.4 1.5 4.4 0 1.1.6 2.7 1.4 3.5.7.9 1.6 4.4 2 7.8.6 5.5.5 6.3-1.3 7.2-2.8 1.5-7.1 1.4-7.1-.2 0-.7-1.3-3.1-3-5.3-1.6-2.1-3-4.4-3-5.1 0-1.6-3.3-7.3-4.2-7.3-.5 0-.8-1-.8-2.3-.1-1.2-.8-3.1-1.8-4.2-1.9-2.3-9.1-6-9.9-5.1-1.3 1.3-8.7-6.1-10.8-10.9-4.8-10.7-5.3-13.4-2.7-15.3 2-1.6 8.8-1 16.7 1.5zm-311 11.3c2.2 1.1 5 2 6.2 2 1.3 0 2.3.4 2.3.9s1.5 1.4 3.2 2c2.9 1 3.4.9 5-1.1 1-1.3 1.8-1.9 1.8-1.3 0 1.6 4.8 3.5 5.4 2.1.3-.6 1.5.1 3 1.8 3.3 3.9 8.8 4.2 13.4.8 3.6-2.7 4.2-2.5 5.7 2.1.6 1.9 1.8 3.3 3 3.6 1.1.2 2.2.6 2.5 1 .3.3 2.1 1.4 4.1 2.4 2 1.1 4.1 2.9 4.7 4.2.9 1.9 8.3 6.5 10.6 6.5.8 0 1.6.6 7.6 6 2.4 2.2 4.9 4 5.6 4 .6 0 1.8.7 2.5 1.6.7.9 3.8 3.3 6.9 5.4 4.2 2.9 7.1 4 11.5 4.5 5.1.7 6.5 1.4 9.9 4.6 2.1 2.2 4.2 3.9 4.5 3.9.3 0 1.9 1.1 3.4 2.5 2 1.9 2.7 3.5 2.7 6.3 0 4.5-1.6 5.7-8.7 6.7-5.5.7-9.3-.5-9.3-3 0-.8-1.2-1.7-2.7-2-1.6-.4-3.8-.8-5-1.1-1.2-.2-3.6-2-5.4-3.9-1.9-1.9-4-3.5-4.7-3.5-1.7 0-5.4-2.6-10.7-7.4-2.1-2-4.6-3.6-5.5-3.6-.8 0-2.1-.9-2.8-2-.7-1.2-1.7-1.8-2.2-1.5-.6.4-3.6-1.7-6.7-4.5-3.2-2.8-6.4-4.9-7.3-4.7-.8.1-3.5-.7-5.9-2-2.4-1.3-5.2-2.3-6.1-2.3-1 0-2.8-.8-4.1-1.8-3.3-2.6-5.9-3.5-9.6-3.7-3.6-.2-6.3-2-6.3-4.2 0-.8-.4-1.2-.9-.8-.5.3-1.2.1-1.6-.5-.3-.5-1.5-1-2.7-1-1.2 0-2.2-.8-2.5-2-.5-1.9-.7-2-2.3-.5-1.6 1.4-1.8 1.4-2.2-.3-.6-2.1-10.3-7.6-11.8-6.7-.6.4-1 0-1-.8 0-1.9-3.6-5.1-4.9-4.3-1.3.8-3.4-3.1-2.7-5 .8-2 5.5-1.7 10.1.6zm229.2 22c1.9 2.2 4.1 4 4.9 4 .8 0 1.4.4 1.4.8s1.7 2.7 3.8 4.9c6.8 7.6 8.2 9.5 8.2 11 0 .9 1.4 3.8 3.1 6.4 1.7 2.7 2.8 5.3 2.4 5.8-.3.6.1 2.1.8 3.3.8 1.3 1.8 4.1 2.2 6.2.3 2.2 1.8 5.4 3.2 7.3 1.4 1.8 2.3 3.6 2 3.9-.8.8 2.9 9.1 4.9 11.1.8.9 1.4 2.4 1.1 3.3-.2.9.2 2.5.9 3.5.8 1 1.4 3 1.4 4.3 0 1.4.9 3.9 2 5.7 1.1 1.9 1.9 3.9 1.8 4.6-.2.7.7 1.8 2 2.4 2.2 1 3.1 3.5 1.3 3.5-1 0-.9 5.3.2 8.2 1.4 3.6 1.9 5.4 2.3 7.8.3 1.4 1.3 5.6 2.3 9.5 3.3 12.2 4.1 16.4 4.1 21 0 2.5.6 6.1 1.4 8 .8 1.9 1.5 6 1.5 9.2 0 3.2.7 8.7 1.5 12.3.9 3.6 1.6 8.1 1.6 10 0 1.9.7 4.3 1.5 5.4 1 1.3 1.1 2.4.5 3.6-1 1.9-.2 7.4 3.1 21.5 1 4.4 2 10.9 2 14.5.1 3.6.7 9 1.4 12 1.4 6.7.9 30.3-.7 29.7-.3-.1-1.7.8-3.1 2.1-1.9 1.8-3.1 2.1-5.3 1.6-1.6-.4-3.4-1.4-4.1-2.3-1.5-1.9-1.7-9.3-.4-13.9.5-1.7.6-3.2.1-3.2-.9 0-1.8-3.5-2.4-9.5-1.2-12.3-1.9-18.1-2.5-19-.3-.6-.6-3-.7-5.5-.1-2.5-.3-4.5-.4-4.5-.1 0-.4-1.1-.6-2.5-.2-1.4-1-6.7-1.9-11.9-1.3-7.3-1.4-10-.5-11.9.9-2.2.8-2.8-1.4-5.1s-2.6-3.8-3.1-12.6c-.4-5.5-1.1-11.4-1.7-13-1.4-4.3-2.9-14-3.4-21.5-.4-6.3-1.8-11.5-5.2-19-.8-1.9-1.6-4.9-1.7-6.6-.1-1.7-.6-3.7-1-4.4-.4-.7-1-2.9-1.2-4.9-.4-3.3-1.3-5.6-6.4-16.9-1-2.3-1.9-4.9-1.9-5.8 0-.8-1.8-5.2-4-9.7-2.3-4.5-4.8-11.5-5.6-15.6-.8-4-1.9-8.1-2.4-9-.4-.9-1.6-3.6-2.6-6.1-1-2.5-2.1-4.7-2.5-5-.3-.3-1.4-2.7-2.4-5.3-1-2.6-2.2-5-2.7-5.3-3-1.9-7.3-17.5-5.7-20.6 1.4-2.7 2.9-2.2 6.6 2.2zm-245.7 10.5c0 2.6-1.4 3.3-2.5 1.5-.9-1.4.1-4 1.5-4 .5 0 1 1.1 1 2.5zm-147.2 25.3c.7 3.8.6 5.2-.2 4.9-1.3-.4-2.8-9.6-1.9-11.1.8-1.2.9-.8 2.1 6.2zm505-2.6c-.7 1.9-3.4 3.2-5.3 2.4-1.4-.5-1.5-.9-.5-2.1 1.5-1.8 6.3-2 5.8-.3zm-431.9 10.2c2.2 1.7 4.3 2.3 6.7 2.2 1.9-.2 3.4 0 3.4.3 0 2.8 11.4 11.1 15.3 11.1.8 0 2.4.9 3.7 2 1.3 1.1 3.5 2 4.9 2 1.5 0 3.1.8 3.8 1.9.7 1.1 2.6 2.2 4.3 2.6 1.6.4 3 1.1 3 1.6s1.1.9 2.5.9c1.5 0 2.5.6 2.5 1.5 0 1.9 3.1 3.5 6.9 3.5 1.6 0 3.3.4 3.6 1 .3.5 1.5 1 2.6 1 1 0 1.9.4 1.9 1 0 .5.8 1 1.8 1 .9 0 2.8.9 4.2 2 1.4 1.1 3.8 2 5.3 2 1.6 0 3.5.7 4.3 1.5.8.8 3.8 1.7 6.5 2.1 3.1.4 5.8 1.5 6.9 2.6 1 1.1 2.3 1.7 2.9 1.4.5-.4 3.5.5 6.7 2 3.6 1.6 6.7 2.4 8.4 2.1 1.8-.4 3.5.1 5.6 1.8 2.1 1.7 3.7 2.2 6.1 1.8 2.2-.4 4.4.1 7 1.7 2 1.2 6.4 2.6 9.7 3.1 3.2.6 6.8 1.6 8 2.4 1.1.8 3.4 1.5 5.1 1.5 1.6 0 5.4.9 8.4 2 2.9 1.2 6.1 1.8 7 1.5.9-.3 2.6.2 3.7 1 1 .8 3.1 1.5 4.5 1.5 4.5 0 5.9 3.5 5.9 14.6 0 7.7-.4 10.1-1.7 11.6-1.9 2.2-5 2.3-8.9.4-1.6-.8-4.9-1.7-7.4-1.9-2.5-.3-5.3-.8-6.3-1.2-.9-.4-2.3-.5-3.1-.2-.7.3-2.4-.1-3.6-1-1.2-.8-4.1-1.7-6.5-1.9-2.4-.2-6.1-1.3-8.3-2.4-2.3-1.2-4.9-2-5.9-1.9-1 .2-3.1-.4-4.8-1.3-1.6-.8-4.4-1.9-6.2-2.2-1.8-.4-5-1.6-7.2-2.7-2.2-1-5.3-2-6.8-2.2-1.5-.2-3.8-.9-5-1.5-1.2-.7-3-1.2-4.1-1.2-1.1 0-2.2-.6-2.5-1.4-.3-.7-2-1.6-3.9-2-1.8-.3-4.6-1.3-6.3-2.2-3-1.6-8-3.2-12.3-3.8-1.2-.2-3.1-1.1-4.1-2-.9-.9-3.2-1.6-4.9-1.6-1.8 0-3.2-.4-3.2-.9s-.8-1.2-1.9-1.6c-1-.3-3.1-1.7-4.5-3-1.5-1.3-3.6-2.6-4.9-2.8-1.2-.2-3.5-1-5.2-1.9-5.5-2.8-7.5-3.1-7.5-1.1 0 1.2-.6.7-1.6-1.5-.9-1.7-2.4-3.2-3.3-3.2-.8 0-3.8-1.1-6.6-2.4-2.7-1.3-5.7-2.7-6.5-3-.8-.3-2.2-1-3-1.5-2.7-1.6-15.1-7.1-16.1-7.1-.5 0-2.3-1-3.9-2.2-1.6-1.1-4.4-2.2-6.2-2.3-4.2-.3-10.3 2.8-12.5 6.3-.9 1.5-3.2 4.4-5 6.5-3.3 3.7-3.6 4.5-3.4 8.2 0 1.5-.1 1.6-.7.5-.4-.8-1.7-1.6-2.9-1.7-1.8-.2-2.4.5-3.2 3.2-.5 1.9-2.7 5.1-4.8 7.2-2.2 2.1-4.3 4.6-4.6 5.5-.4 1-1.3 1.8-2 1.8-.8 0-1.9 1.2-2.6 2.6-.7 1.5-1.7 2.4-2.5 2.1-.8-.3-3.6 1.8-6.7 5-5.8 6-16.5 15.3-17.7 15.3-.4 0-1.8-.3-3.1-.7-2.1-.5-2.3-1-1.8-5.1.3-2.5 1.2-5.1 2.1-5.7.9-.7 1.6-1.9 1.6-2.8 0-.8 2.3-4.9 5-9 2.8-4.1 5-8.4 5-9.5 0-1.1 1-2.6 2.3-3.5 3.5-2.4 24.3-23.2 25-25.1.4-1 1.6-2 2.7-2.3 1.1-.3 2-.9 2-1.4 0-1.2 5.3-5.9 6.7-5.9.7 0 1.3-.9 1.3-2 0-1.8 5.3-6.1 9.8-7.8.9-.3 2.5-1.6 3.5-2.9 1-1.3 2.8-2.3 4-2.4 1.2 0 3.6-.9 5.2-1.9 4-2.4 4.5-2.4 8.4.4zm-71.1.7c1 1.6 1 2.4.1 3.5-1.5 1.8-2.9 1.8-2.9-.1 0-.8.5-1.5 1.2-1.5.9 0 .9-.3 0-1.2-.7-.7-1.2-1.6-1.2-2 0-1.5 1.5-.8 2.8 1.3zm390.5 31.9c6.4 2 11.7 6.3 11.7 9.4 0 .8.9 3.4 2.1 6 1.1 2.6 2.2 5.7 2.5 6.9 1.5 7.5 2.4 15.8 2.9 26.2.3 4.9 1 10.8 1.7 13 1.7 5.9 1.2 32.1-.7 36.2-4.8 10.1-13.3 9.5-24.4-1.8-3.3-3.3-6.3-7-6.7-8.2-.3-1.2-1.4-3.6-2.4-5.2-3.8-6.4-10.1-22.5-10.2-25.6 0-1.9-.8-5.7-1.8-8.4-1.3-3.8-1.6-6.3-1-10.5.4-3 .6-5.8.4-6.2-.7-1.1 3.8-12.2 5.2-13.1.7-.4 1.5-2.1 1.9-3.7.4-1.7 1.1-3 1.6-3 .4 0 1.7-1.5 2.6-3.4 1.6-2.9 7.3-10.6 7.9-10.6.1 0 3.1.9 6.7 2zm-107.9 21.4l2.6 2.3-2.3 2c-2.5 2.4-4.1 2.1-7.9-1.5-2.6-2.4-2.7-2.7-1.1-4.4 2.1-2.3 5.2-1.8 8.7 1.6zm-208.9 18.1c4.3 4.2 4.3 5.8.5 10.2-1.6 1.8-3 3.8-3 4.3s-1.1 1.2-2.5 1.6c-1.3.3-2.9 1.2-3.6 2-.6.8-1.8 1.4-2.6 1.4-1.8 0-1-4.3 1.8-10.7 1.1-2.3 1.9-5.4 1.9-6.9 0-2.1 2.2-5.2 3.8-5.4.1 0 1.8 1.6 3.7 3.5zm63.6 4c3.8.5 12.9 3.4 16.2 5.1 1.6.7 4.3 1.4 6 1.4 1.8 0 4.3.9 5.7 2 1.4 1.1 3.7 2 5.1 2 1.5 0 3.2.7 3.9 1.5.7.8 2.5 1.5 4.1 1.5 1.5 0 3.1.5 3.4 1.1.4.6 1.4.8 2.2.5.8-.3 2.9.2 4.6 1.1 1.8.9 3.9 1.6 4.6 1.4.8-.1 2.1.5 2.8 1.4.7 1 1.9 1.5 2.8 1.1.9-.3 3.3.5 5.3 1.7 2 1.3 4.5 2.1 5.5 1.9 1-.2 4.4 1 7.6 2.7 3.2 1.6 8 3.5 10.7 4.2 2.7.7 5.5 1.7 6.2 2.2 1.2 1 9.3 2.6 14.9 3 1.2.1 2.5.5 2.9.9.4.5 1.6.8 2.6.8s1.8.4 1.8.9 1.4 1.2 3 1.6c1.7.4 3 1.1 3 1.6s.9.9 2 .9c1 0 4.5.7 7.7 1.6 3.2.9 6.9 1.7 8.2 1.9 1.3.2 5 1.6 8.2 3.1 4.4 2.1 6.1 3.6 7 5.8 2.2 5.9 4.4 9.8 5.9 10.4 1.8.7 5.9 5.4 6 6.8 0 .6 1.4 4 3.2 7.5 2.9 5.8 3.2 7.4 3.5 16.8.1 5.7-.2 11.2-.8 12.2-1.3 2.5-8.4 5.5-13.7 5.8-2.4.1-5.3.5-6.5 1-1.2.4-3.5.5-5.2.1-1.6-.3-4.2-.3-5.6.1-1.4.4-3.9.5-5.5.2s-6.3-.6-10.4-.8c-10.1-.4-20.7-2.8-23.1-5.2-3.5-3.4-3.5-8.2 0-15.6 1.7-3.6 3.1-7 3.1-7.4 0-.4 1.3-2 2.8-3.4 2.6-2.5 2.8-3.1 2.7-11.7 0-5-.4-9.4-.8-9.8-.4-.4-.7-1.6-.7-2.6 0-2.4-6.9-6.6-12.2-7.4-4.8-.6-6.3-1.1-16.1-4.9-3.7-1.4-7.3-2.5-8-2.4-.6.1-1.9 0-2.7-.3-3-1.1-9.6-2.6-14-3.3-2.5-.3-5.5-1.1-6.7-1.7-1.3-.6-3.6-.7-6-.3-2.1.5-4.6.7-5.5.6-1.2-.1-1.8.4-1.8 1.6 0 3 2.1 4.3 6.6 4.3 2.4 0 4.5.4 4.8.9.3.5 1.5.7 2.5.4 1.1-.3 2.8.4 4 1.6 1.2 1.2 2.6 1.9 3 1.6 1.6-.9 4.1 4.3 4.2 8.7.1 2.4-.6 6.7-1.5 9.7-.9 3-1.6 8.7-1.6 12.6 0 6.6-.2 7.3-2.8 9.2-2.2 1.6-4 2-9.7 1.8-8.4-.3-13.1-1.3-14.6-3.1-.6-.8-1.8-1.4-2.6-1.4-2 0-11.7-3.2-12.3-4.1-.7-.9-8.1-2.9-9-2.4-.7.4-1.9-.4-6.7-4.5-.7-.5-1.9-1-2.7-1-.8 0-1.8-.5-2.1-1-.3-.6-1.7-1-3.1-1-3.3 0-7.2-4.3-8-8.9-.9-5.6-2.3-8.7-5.5-11.8-3.7-3.7-4.1-9.9-.6-11.2 2.5-1 10.7-9.5 10.7-11.1 0-.5.7-1 1.5-1s1.5-.4 1.5-.9c0-1 6.1-7.1 9.4-9.4 1.4-1.1 1.7-2 1.1-4.6-.8-3.7-7.8-11.1-10.5-11.1-1.9 0-3.4-2.6-2.4-4.2.3-.5 1.3-.6 2.3-.3.9.4 2.8.8 4.2 1zm-19.2 7.5c0 .9-.6.4-1.4-1-1.9-3.3-1.9-4.9 0-2.4.8 1 1.4 2.6 1.4 3.4zm-17-1.2c2.5 1.6 5.8 3.2 7.4 3.6 2 .5 2.7 1.3 2.7 3.1 0 1.3-.4 2.6-.9 3-.6.3-2 2.6-3.2 5-1.2 2.5-2.6 4.5-3.1 4.5-.4 0-.8.7-.8 1.5s-.3 1.5-.8 1.5c-1.2 0-18.8 17.3-19.5 19.2-.3 1-1.2 1.8-1.8 1.8-1.1 0-20.7 19.5-31.4 31.3l-5.3 5.8-2.6-3.4c-2.4-3.1-2.6-4.2-2.6-13.3 0-11.6.6-14.4 3-14.4 1 0 2.3-1.3 3-3 .7-1.6 1.5-2.8 1.9-2.6 1 .7 12.8-10.8 13.5-13.2.4-1.1 1.6-2.2 2.7-2.5 1.1-.3 2.7-2.3 3.7-4.6.9-2.2 2.2-4.1 2.7-4.1.6 0 5.9-5 11.9-11 6.7-6.8 11.6-11 12.8-11 1.2 0 4.2 1.3 6.7 2.8zm-111 22.5c0 2.1-.1 2.1-.9.2-1.2-2.8-1.2-3.7 0-3 .6.3 1 1.6.9 2.8zm4.1 11.3c0 .8-.4 1.2-1 .9-.5-.3-1-1-1-1.6 0-.5.5-.9 1-.9.6 0 1 .7 1 1.6zm18 33.4c0 .5-.2 1-.4 1-.3 0-.8-.5-1.1-1-.3-.6-.1-1 .4-1 .6 0 1.1.4 1.1 1zm72.6 6.9c-.9 1-1.6 2.3-1.6 3 0 .6-.6 1.4-1.3 1.7-1.9.7-1.4 4.8.6 5.2 1 .2 1.7-.3 1.7-1.2 0-1.5.7-1.8 4.8-1.9 1.7 0 9.3 3.1 14.5 5.9 6.9 3.8 8.4 4.4 11.3 4.4 1.7 0 3.7.7 4.4 1.5 1.9 2.3 11.6 6.5 15 6.5 1.6 0 4.1 1.1 5.7 2.4 3.8 3.2 8.2 4.3 9.4 2.5.7-1.1.9-1.1.9.2 0 2.8 6.7 7.1 11.8 7.6 2.6.3 5 .9 5.3 1.5 1.3 2 4.9-.2 5-3 0-2.3.3-2.1 1.7 1.5 1.5 4.1 2.8 4.9 6.9 4.4.6-.1 1.4.3 1.8.9.3.5 1.7 1 2.9 1 1.3 0 3.4.9 4.8 2 1.6 1.2 2.8 1.6 3.4 1 .9-.9 5.5.1 9.6 2.1 1 .5 2.8.9 4.1.9 1.3 0 2.6.3 2.9.6.4.3 3.9.8 7.9 1 4.1.3 7.8.9 8.3 1.4 1.5 1.5 3.6 1.2 3.6-.5 0-2 .7-1.9 3.6.9 1.9 1.7 3.5 2.2 6.2 2 2-.1 4.2.2 4.8.7.7.5 2.7.9 4.6.7 2.2-.1 4.5.6 6.5 2 1.7 1.2 4.2 2.2 5.5 2.2h4.3c8-.1 15.6 2.5 17.5 6 .7 1.3.9 3.9.5 6.8-.4 2.6-.6 6.6-.6 9 .3 6.6-.9 7.1-12.3 5.9-2.2-.3-5.2-.1-6.8.3-1.5.5-3 .5-3.3 0-.2-.4-3.1-1.1-6.2-1.5-3.2-.4-7-1.3-8.5-2.1-1.8-1-4.1-1.2-6.8-.8-2.3.4-5.1.2-6.3-.4-2.3-1.1-9.6-2.7-11-2.4-.4.1-2.2-.4-4.1-1.2-2-.8-3.9-1-4.8-.5-1.5.8-6.3-.2-9.9-2.1-.9-.5-2.5-.6-3.6-.4-1.1.3-2.5-.2-3.2-1-.8-.9-2.2-1.6-3.2-1.6s-2.1-.5-2.4-1c-.4-.6-2.3-.7-4.5-.4-3.4.6-8.5-1.1-11-3.6-.3-.3-2-.6-3.9-.8-1.8-.1-4.2-.9-5.3-1.6-1-.8-2.8-1.1-3.9-.9-1.1.3-2.7-.1-3.7-.9-.9-.9-3.4-2.1-5.4-2.8-2.1-.6-3.8-1.6-3.8-2.1s-.8-.9-1.9-.9c-1 0-3.5-.7-5.6-1.5-2-.9-4.5-1.3-5.4-1-1 .3-2.4-.1-3.1-1-.7-.8-1.8-1.5-2.4-1.5-1.5 0-8.4-3.5-10.5-5.4-1.5-1.4-5-1.4-8.1-.2-1 .4-1.9-.3-2.8-2.3-.8-1.7-2.8-3.6-5-4.6-2-.9-4.5-2-5.5-2.6-1-.5-2.2-.7-2.7-.4-.5.3-1.5-.3-2.2-1.3-.7-1-2.6-2.3-4.3-3-1.6-.7-3.8-2.6-4.7-4.2-1.1-2-2.5-3-4.1-3-1.2 0-2.8-.5-3.5-1.2-1.3-1.3-4.7 1.2-5.7 4.3-.3 1-1.2 1.6-1.9 1.3-.8-.3-2.2.9-3.4 2.8-1.2 1.8-3.3 4.2-4.7 5.3-1.5 1-3.5 3.6-4.6 5.7-1.1 2.1-2.4 3.8-3.1 3.8-1.5 0-4.8 4-4.8 5.9 0 2-3.2 4.9-6.3 5.6-1.3.4-4.8 2.6-7.8 5.1-4.4 3.6-6.1 4.4-9.5 4.4-3.8 0-4.2-.3-4.7-2.9-.7-3.4 0-6.8 2.3-10.1.9-1.4 2-3.3 2.3-4.3.4-1.1 1.6-2.1 2.7-2.4 1.1-.3 1.8-.9 1.5-1.3-.2-.3.9-2.2 2.5-4.1 1.6-1.9 2.9-3.8 3-4.4 0-.5.9-1.8 1.9-3 4.2-4.3 8-8.1 11-10.8 1.7-1.6 3.4-4 3.7-5.3.5-1.9.9-2.2 1.9-1.4 1 .8 1.8.3 3.5-2 1.2-1.6 2.5-2.8 2.9-2.6.4.3 3.1-2.2 6-5.5 2.9-3.2 5.9-5.9 6.7-5.9.7 0 1.8-.9 2.4-2 1.4-2.6 5.8-7 7-7 .6 0 1.5-.9 2.2-2 1.2-2 1.3-1.9 1.6 1.1.2 1.8-.3 3.8-1.2 4.8zm150.1 4.3c-.3.8-.6.5-.6-.6-.1-1.1.2-1.7.5-1.3.3.3.4 1.2.1 1.9zm-124 7c-.3.8-.6.5-.6-.6-.1-1.1.2-1.7.5-1.3.3.3.4 1.2.1 1.9zm436.5 1.5c2.2 2 2.2 2.7.2 4.7-2.2 2.3-3.3 2-4.4-1-.7-1.9-.7-3.1.1-4 1.5-1.8 1.9-1.8 4.1.3zm-503.2 13.7c0 .3-.4.8-1 1.1-.5.3-1 .1-1-.4 0-.6.5-1.1 1-1.1.6 0 1 .2 1 .4zm127.4 2.1c.3.8.1 1.5-.4 1.5-.6 0-1-.7-1-1.5s.2-1.5.4-1.5.6.7 1 1.5zm-93.4 3.5c0 .5-.4 1-1 1-.5 0-1-.5-1-1 0-.6.5-1 1-1 .6 0 1 .4 1 1zm122.1 7.3c-1 .9-1.1.8-.5-.6.3-1 .9-1.5 1.2-1.2.3.3 0 1.1-.7 1.8zm.9 2.7c0 .5-.2 1-.4 1-.3 0-.8-.5-1.1-1-.3-.6-.1-1 .4-1 .6 0 1.1.4 1.1 1zm-130.3 8.7c-.2 1.6-.4.5-.4-2.2 0-2.8.2-4 .4-2.8.2 1.3.2 3.5 0 5zm31.9 12.7c.3.8.4 2.4.2 3.6-.2 1.7-.5 1.4-1.4-1.4-1-3.4 0-5.3 1.2-2.2zm8 4.1c.1.8-.2 1.3-.7.9-.5-.3-.9-1.2-.9-2.1 0-1.9 1.3-.9 1.6 1.2zm-65.3 2.5c.3 1.1.1 2-.4 2s-.9-.9-.9-2 .2-2 .4-2 .6.9.9 2zm-23 6.2c-.8 4.1-2 3.4-1.5-.8.2-2 .8-3.2 1.2-2.7.5.4.6 2 .3 3.5zm53-2.2c.3 1.1.1 1.8-.4 1.4-.5-.3-.9-1.2-.9-2 0-2 .7-1.7 1.3.6zm123.4 10c2.6.7 5.3 1.7 6 2.2.7.6 1.7.7 2.3.3.6-.4 1.9 0 2.9.9.9.8 3.5 1.8 5.6 2.2 2.2.3 5.2 1.2 6.7 2s3.3 1.4 4.1 1.4c.8 0 3.2 1.8 5.5 4 2.5 2.5 5 4 6.5 4 2 0 2.7.6 3.2 3.1.4 1.9.2 4.1-.5 5.5-1.2 2.1-1.9 2.3-6.4 2-3.3-.3-7.1-1.5-10.8-3.5-4.7-2.6-6.1-3-7.8-2.1-1.1.6-2 1.4-2 1.8 0 1.7 2.6 3.2 5.5 3.2 1.6 0 4.1.9 5.5 2 1.4 1.1 3.4 2 4.5 2s2.9.7 3.9 1.5c1.1.8 2.7 1.5 3.7 1.5 2.3 0 2.9 2 2.9 10 0 3.8.4 7.1.9 7.4.5.3 1.2 2.6 1.5 5.1.4 2.5 1.4 5.1 2.2 5.9.8.8 1.4 2.1 1.4 2.8 0 .8 1.3 2.4 3 3.6 3.5 2.6 4.6 6.1 3 9.2-.9 1.7-.8 2.6.5 4.7 2.4 3.6 1.3 3.8-2 .3-2.9-3.1-6.3-3.8-8.2-1.9-.7.7-2.8.6-6.9-.5-3.3-.8-7.9-1.6-10.4-1.7-2.5-.1-5.1-.7-5.7-1.2-1.8-1.3-2.7 1.5-2 5.9.4 2 .2 3.2-.4 2.9-.5-.4-.9-1.5-.9-2.5 0-1.7-.3-1.8-2.6-.6-2.1 1.2-3.2 1.1-7.4-.5-2.7-1-6.4-2-8.2-2.2-4.5-.5-8.7-2.4-9.4-4.2-.4-.8-1.4-1.5-2.3-1.5-.9 0-3.8-1.1-6.4-2.4-4.6-2.3-4.9-2.3-5.9-.6-1 1.6-1.3 1.5-2.7-1.4-1.2-2.2-2.2-3-3.9-2.9-1.2.2-2.2-.1-2.2-.6s-1.8-2.8-4-5.2c-2.2-2.4-4-5.3-4-6.3 0-2.4-3.9-8.3-6-9-.8-.4-2.1-.9-2.9-1.2-1.1-.5-1.2-.1-.7 1.7 1.7 5.4 3.5 15.7 3.5 19.4l-.1 4-.9-4.3c-.4-2.4-1.7-5.8-2.8-7.6-1.4-2.2-1.7-3.6-1-4.3.7-.7.6-2.4-.1-5.4-.6-2.4-1.4-5.5-1.6-6.9-.5-2.3-.4-2.4.9-.7 1.4 1.7 1.5 1.6 2-.4.3-1.2 1-1.8 1.7-1.4 1.5.9 3.9-2.4 4-5.3 0-1.2.4-2.2.9-2.2s1.6-1.2 2.4-2.8c4-7.8 6.5-11.2 12.3-17 3.6-3.4 6.8-6.2 7.3-6.2.4 0 1.8-1.1 3.1-2.5s3.4-2.5 4.6-2.5c1.5 0 2.5-.8 3-2.3 1-3.2 2.5-3.8 5-1.8 1.3 1 4.5 2.4 7.1 3.1zm-123 3.2c-.3.8-.6.5-.6-.6-.1-1.1.2-1.7.5-1.3.3.3.4 1.2.1 1.9zm16.3-.1c0 .6-.4.7-1 .4-.5-.3-1-1.1-1-1.6 0-.6.5-.7 1-.4.6.3 1 1.1 1 1.6zm5.8.4c-.3.3-.9-.2-1.2-1.2-.6-1.4-.5-1.5.5-.6.7.7 1 1.5.7 1.8zm19.7-.4c.6 1.8.8 1.9 1.8.5.7-.9 2.8-1.6 4.7-1.7 5.1-.2 15.8 3.9 17.2 6.4.6 1.2 1.7 2.6 2.4 3 .8.4 1.4 2.2 1.3 4 0 2.8-.1 2.9-.9 1.1-1.8-4.4-3.9-3.1-3.1 1.8 0 .5-.5.8-1.3.8-2 0-2.7 2.6-1.5 5.6 1.2 3.3.5 4.3-1.1 1.5-.6-1.2-2-2.1-3-2.1-1.5 0-2 .7-2 3 0 1.9-.7 3.3-2 4-1.1.6-3.2 2.9-4.6 5.2-1.4 2.2-3.4 4.3-4.5 4.5-1 .3-1.9.8-1.9 1.2 0 .3-2.5 3.3-5.5 6.6-3.1 3.5-5.5 6.9-5.5 8.2 0 1.5-.5 2.1-1.4 1.7-.7-.3-2 .6-2.9 1.9-1.8 2.8-2.5 3.5-10.1 10.2-3.1 2.7-5.6 5.5-5.6 6.2 0 .8-1.1 1.9-2.5 2.5-1.4.6-2.5 1.5-2.5 2 0 .4-1 .8-2.2.8-3.4 0-5.8 2.8-4.8 5.4.4 1.3.4 2.9 0 3.7-.7 1.1-1 1.1-1.5-.3-.4-.9-.5-2.2-.4-2.9.6-2.9-1.2-7-3.6-7.9-2.7-1-4.5-7.1-2.7-9.3.5-.6 1.3-4 1.7-7.4.4-3.4 1.3-6.7 2.1-7.4.8-.6 1.4-1.7 1.4-2.4s1.4-1.8 3-2.5c2.5-1 3-1.8 3-4.6 0-2.7.4-3.4 1.9-3.4 3 0 7.6-4.9 10.1-10.8.6-1.3 1.9-2.6 3-2.9 2.5-.7 3.4-3.7 1.8-6.2-.9-1.6-1-2.3-.1-3.2.9-.9 1.3-.6 1.9 1.5.3 1.4.9 2.6 1.3 2.6 1.3 0 10.1-10.2 10.1-11.6 0-1.8 3.1-5.4 4.7-5.4.8 0 1.3-1.2 1.3-3 0-3.4 1.5-4 2.5-.9zm-40.8 4.1c-.3.8-.6.5-.6-.6-.1-1.1.2-1.7.5-1.3.3.3.4 1.2.1 1.9zm-24.7.4c0 .8-.5 1.2-1 .9-.6-.4-.8-1.1-.5-1.6.9-1.4 1.5-1.1 1.5.7zm276.3 7c4.1 2.1 7.7 5.4 7.7 7.1 0 .7.5 1.3 1 1.3.6 0 1 .6 1 1.3 0 .7 1.3 2.3 3 3.5 1.6 1.2 3.3 3.4 3.6 4.9.6 2.4.8 2.5 2 .9 1.7-2.4 2.5-.7 3.2 6.8 1.1 11 .7 14.5-2.1 17.4-3.3 3.6-4.3 5.8-5.1 11.4-.4 2.7-1 4.8-1.4 4.8-.4 0-1.6 1.3-2.5 2.9-1.7 2.9-5.6 7.1-12.9 13.8-2.6 2.5-4.4 3.3-7.1 3.3-1.9 0-3.7.5-3.9 1.1-.2.7-2.6 1.4-5.3 1.6-2.8.3-5.7 1-6.5 1.8-.8.7-2 1-2.7.8-.6-.2-1.4.1-1.8.6-.8 1.4-5.5 1.4-5.5.1 0-.6-1.1-.8-2.5-.4-1.4.3-3.1.1-3.9-.5-.8-.7-1.8-1.1-2.2-.9-2.6.7-10.5-1.5-11.4-3.2-1.3-2.4-1.3-6 0-6 1.6 0 1.2-2.5-.8-4.6-1-1.1-2.2-3.1-2.5-4.5-.5-2.1-.2-2.8 2.1-4 3.9-2 9.2-7 10.3-9.7.6-1.4 1.7-2.2 3.4-2.2 3.9 0 5.8-3.9 5.1-10.2-1.2-10.4-.7-15.3 1.9-19 2.1-3.1 2-3.6-2-5.2-1.9-.8-3.5-2-3.5-2.6 0-1.8 6.1-7.2 7.5-6.6.7.2 2.1-.4 3.1-1.5.9-1 2.7-1.9 3.9-1.9 1.2 0 2.5-.3 2.8-.6.3-.4 3.5-.8 7-.9 3.5-.1 7.2-.7 8.3-1.3 2.7-1.6 5-1.5 8.7.4zm-271.3.4c0 .5-.2 1-.4 1-.3 0-.8-.5-1.1-1-.3-.6-.1-1 .4-1 .6 0 1.1.4 1.1 1zm9.4 3.1c1.3 1.1 2.9 4.2 3.6 6.7.6 2.6 1.7 5.7 2.3 6.9.6 1.3.8 2.5.5 2.8-.3.3-1.3-1.1-2.3-3.2-1-2-2.6-4.6-3.6-5.7-1.1-1.1-1.9-2.8-1.9-3.9 0-1-.5-2.7-1-3.8-1.4-2.5-.6-2.4 2.4.2zm-35.4 6.9c0 1.4-.9 1.2-2.6-.4-2-2.1-1.7-2.8.6-1.6 1.1.6 2 1.5 2 2zm109.7 7.2c-.3.8-.6.5-.6-.6-.1-1.1.2-1.7.5-1.3.3.3.4 1.2.1 1.9zm-60.7 7.8c0 1.1-.4 2-.9 2s-.7-.9-.4-2c.3-1.1.7-2 .9-2 .2 0 .4.9.4 2zm62.7 10.2c-.3.7-.5.2-.5-1.2s.2-1.9.5-1.3c.2.7.2 1.9 0 2.5zm-101.7 5.8c0 .5-.5 1-1.1 1-.5 0-.7-.5-.4-1 .3-.6.8-1 1.1-1 .2 0 .4.4.4 1zm86.2 5.2c-.8 3.3-1.8 1.9-1.4-2 .4-2.9.6-3.3 1.2-1.7.4 1.1.5 2.8.2 3.7zm-74.5 3c-.3.7-.5.2-.5-1.2s.2-1.9.5-1.3c.2.7.2 1.9 0 2.5zm473.3 4.2c0 5.1-1.6 5.5-4.9 1.3-1.6-2.1 0-4.7 3-4.7 1.5 0 1.9.7 1.9 3.4zm-383 13c1.1 3.3 4.4 5.3 7.9 4.7.7-.1 2.3.6 3.5 1.7 2.4 2.1 5.5 3.6 7.2 3.3.7-.1 1.4.7 1.7 1.8.3 1.4 1.4 1.9 4.2 1.9 2.2 0 4.5.8 5.8 2 1.2 1.1 3.8 2.4 5.7 3 1.9.6 6.5 2 10.3 3.1 3.7 1.2 7.8 2.1 9.2 2.1 1.3 0 2.7.5 3 1 .3.6 1.8.7 3.1.4 2.6-.7 7.3 1.1 8.7 3.3.5.8 1.9 1 3.7.6 1.7-.3 3.6 0 4.4.7.8.6 2.4.9 3.4.6 1-.4 3.5.1 5.5.9 2.1.8 3.7 1.3 3.7 1 0-.3 1 0 2.3.7 1.2.6 6.3 1.3 11.2 1.3 5 .1 10.3.7 11.9 1.4 1.9.7 3.3.8 3.9.2.6-.6 2.2-.4 4.4.7 3.3 1.6 3.6 1.6 4.9-.3.9-1.2 1.1-2.1.4-2.3-1.2-.4-1.4-2.2-.2-2.2.5 0 1.4 1.1 2.1 2.4 1 1.8 2.1 2.4 5 2.4 2 0 6.3.2 9.6.6 5.4.5 19.1 1.4 33 2.1 2.8.1 5.6.3 6.2.4 1.2.1 4.9 6.1 3.7 6.1-.3 0 .4 1.6 1.6 3.5 2.7 4.4 2.1 10.5-1 10.5-1 0-2.2.4-2.5 1-.3.5-2 1-3.8 1-7.1-.1-11.8.6-12.5 1.7-.6.9-2.4 1.1-6.2.7-4.4-.5-5.6-.3-6.6 1.1-.8 1.1-1.7 1.4-2.6.9-.7-.5-2.9-1-4.8-1.1-4.3-.3-26.5-3-26.5-3.2 0-.5-8.3-1.2-12.1-1.1-2.6 0-4.6-.5-5.4-1.5-.7-.8-2.8-1.5-5-1.5-3.8 0-15.6-3.4-17.7-5.2-.7-.6-3.5-1.2-6.2-1.3-2.8-.2-5.8-.8-6.8-1.3-4.7-2.5-11.6-4.2-12.8-3.2-.9.7-1.6.6-2.5-.5-.7-.8-2-1.5-3-1.5s-2.3-.6-3-1.4c-1.4-1.8-3.7-1.1-4.3 1.2-.3 1.3-.7 1.1-1.7-1-1-2.2-1.8-2.6-3.6-2.2-1.4.4-3.3-.2-5.2-1.6-1.6-1.2-4.7-2.3-6.8-2.4-3.7-.3-8.7-1.8-12.7-3.8-2.7-1.4-5.7 0-5.7 2.6 0 1.2-.3 2.5-.6 2.9-1.5 1.4-5.3 14.7-5.6 19.3-.3 4.8-.2 4.9 2.3 4.6 1.7-.2 2.9.3 3.2 1.3.8 1.8-1.2 6.5-2.7 6.5-.6 0-2.8 1.8-4.8 3.9l-3.7 4-1.3-3.5c-.6-1.8-2.1-3.7-3.2-4-2-.6-7.5-6.1-7.6-7.6 0-1.3-7.4-8.8-8.6-8.8-2 0-6.3-6.3-5.9-8.5.2-1.1.4-2.3.4-2.6.1-.4 1-.9 2.1-1.2 1.1-.3 2-1.2 2-2.1 0-1 .5-1.3 1.7-.9 1 .4 1.4.2 1-.5-.7-1 .1-3.6 2.7-9.1 1.4-3 .9-6-1.4-8.6-4.2-4.7-3.5-8.5 2.8-15.3 2.7-2.8 4.8-4.2 6.5-4.2 1.4 0 2.7-.5 2.9-1.1.3-.9 1-.9 2.6 0 2 1.1 2.2.9 2.2-1.4 0-3.6 1.6-3.1 3 .9zm-30.3-.6c3.2 2 4 11.2 1 11.2-1.7 0-7.9 8.8-7.4 10.4.2.6 0 2-.6 3.1-1 1.9-1 1.9-1.8-.3-.8-2.2-3.9-3.1-3.9-1.2 0 .5-1.3 1.6-3 2.5-1.6.9-5.1 3.6-7.7 6-5.3 4.9-5.9 5.1-8.7 3-2.6-2-2.8-4.1-.8-7.9 3-5.6 4.7-7.4 7.1-7.8 1.5-.2 3-1.5 4-3.5.9-1.8 2.1-3.2 2.6-3.1 1.7.2 6.3-2 7.2-3.4.4-.8 2.5-2.7 4.6-4.2 2-1.6 3.7-3.5 3.7-4.2 0-1.5 1.8-1.8 3.7-.6zm-63.7 13.5c0 1.6-.2 1.7-1.5.3-.8-.8-1.2-2.2-.9-3.1.6-1.3.8-1.4 1.5-.3.5.7.9 2.1.9 3.1zm-22.3 4.9c-.3.7-.5.2-.5-1.2s.2-1.9.5-1.3c.2.7.2 1.9 0 2.5zm46.7 4.3c.3.8.1 1.5-.4 1.5-.6 0-1-.7-1-1.5s.2-1.5.4-1.5.6.7 1 1.5zm-30.8 11.2c-.4.4-1.4-.1-2.2-1.1-2.2-3.1-1.7-4.3.8-1.9 1.2 1.3 1.8 2.6 1.4 3zm75-1c1.5 2 1.8 3.3.7 3.3-.5 0-1.3-1.1-2-2.5-1.3-2.9-.6-3.3 1.3-.8zm180.4 2.4c0 .6-.4.7-1 .4-.5-.3-1-1.1-1-1.6 0-.6.5-.7 1-.4.6.3 1 1.1 1 1.6zm168.4 6.4c.3.8.1 1.5-.4 1.5-.6 0-1-.7-1-1.5s.2-1.5.4-1.5.6.7 1 1.5zm-351.4 14.9c0 1.5-1.4 3.5-2.1 3-1.5-.9-1-3.4.6-3.4.8 0 1.5.2 1.5.4zm4 2.6c0 .5-.4 1-1 1-.5 0-1-.5-1-1 0-.6.5-1 1-1 .6 0 1 .4 1 1zm61 4c0 .5-.2 1-.4 1-.3 0-.8-.5-1.1-1-.3-.6-.1-1 .4-1 .6 0 1.1.4 1.1 1zm12 4.2c0 .5-.4.8-1 .8-.5 0-1-1-1-2.3 0-1.8.2-1.9 1-.7.5.8 1 1.8 1 2.2zm-15 1.8c1.3 2.4 3 2.6 3 .3 0-1.4.3-1.3 2.3.5 1.3 1.2 3.2 2.2 4.3 2.2 1.1 0 3.1 1.1 4.4 2.5 2.3 2.4 2.6 4.4 1.6 11.8-.4 3.1-.2 2.9-3.8 4.5-2.3.9-2.8 1.8-2.8 4.6 0 1.9.5 3.8 1 4.1 1.7 1 1.1 4.2-.7 4.4-1 .1-4.4.3-7.5.4-4.6.2-6.3.8-8.5 2.8-1.5 1.4-3.6 2.9-4.5 3.2-.9.3-1.8 1.6-2 2.8-.2 1.3-1.6 2.9-3.5 3.8-1.8.9-3.5 2.3-3.8 3.2-.3.9-1.9 1.9-3.5 2.2-1.6.4-5 2.7-7.6 5.2-2.6 2.5-5.1 4.5-5.6 4.5-.4 0-.8.4-.8.8 0 2.8-16.1 7.5-17.5 5.1-.4-.5-1.6-.9-2.7-.9-3.7 0-4.6-2.5-3.2-9.1.7-3.3 1.8-6.8 2.5-7.7 2.3-3 4.8-5.2 5.8-5.2.6 0 1.5-.9 2.1-2 .6-1.1 1.7-2 2.5-2s2.1-1.3 2.9-2.9c.9-1.6 2.2-3.1 3.1-3.4.8-.4 1.5-1.5 1.5-2.6 0-1.2 1.1-2.5 2.7-3.3 1.5-.7 3.7-2.8 4.8-4.5 1.1-1.8 3-3.6 4.2-3.9 2.6-.7 5.4-3.6 5.7-6.1.2-1.3 1-1.7 2.9-1.5 2.2.3 2.7-.1 2.7-1.7 0-1.2.6-2.1 1.4-2.1.8 0 1.7-1.5 2-3.5.5-2.6 1.1-3.3 2.3-2.8.9.4 1.9-.1 2.5-1 .5-1 1.5-1.7 2.2-1.7.8 0 1.6-.7 2-1.5.8-2.2 4.3-1.8 5.6.5zm20.5 7c-.4 1-1.3 0-2.6-2.9-1-2.4-1.6-4.7-1.3-5.2.8-1.4 4.5 6.3 3.9 8.1zm-116.5-6.3c0 .5-.5 1.5-1 2.3-.8 1.2-1 1.1-1-.8 0-1.2.5-2.2 1-2.2.6 0 1 .3 1 .7zm119.8 1.8c-.3.3-.9-.2-1.2-1.2-.6-1.4-.5-1.5.5-.6.7.7 1 1.5.7 1.8zm317.2-1.5c0 .5-.5 1-1.1 1-.5 0-.7-.5-.4-1 .3-.6.8-1 1.1-1 .2 0 .4.4.4 1zm-304.5 3c.9 1.6 1.2 3 .7 3-.8 0-3.2-4.2-3.2-5.5 0-1.3 1.1-.2 2.5 2.5zm186.9.6c1.2 3.1.6 10.1-.9 11.4-.9.8-1.5 3-1.5 5.7 0 3.6-.3 4.4-1.5 3.9-.8-.3-1.9.3-2.5 1.4-.5 1-2.2 2-3.7 2.2-1.8.2-2.9 1-3.2 2.3-.2 1.1-1.7 3.2-3.4 4.7-2.2 2-3 3.6-2.9 5.9.1 2.4-.2 2.9-1.1 2-1.7-1.7-5.7-1.4-5.7.4 0 2.1-6.3 8.5-8.2 8.5-.9 0-2.1.7-2.8 1.5-.7.8-1.7 1.5-2.3 1.5-.7 0-2.7 1.9-4.7 4.1-2.7 3.1-4.2 4.1-6.3 4-5.5-.4-6.3-.3-12.7.3-12.5 1.3-21.9 1.2-25.3-.4-3.9-1.9-4.7-4.5-1.5-5.3 2.3-.6 6.3-5.9 5.2-7-.8-.8 5.5-4.9 6.6-4.2.5.3 1 .2 1-.4 0-.6 1.6-1.3 3.5-1.7 2-.3 3.7-1.3 4-2.4.4-1.4 2.1-1.9 7.1-2.5 7.9-.8 11.9-1.9 13.8-3.7 4.8-4.6 8-6.9 10.6-7.4 1.6-.4 3.1-1.2 3.4-1.9.2-.7 2.5-2.1 5-3 3.3-1.3 4.8-2.5 5.2-4.2.4-1.3 1.9-3.1 3.5-4 1.6-1 2.9-2.1 2.9-2.5 0-.4.7-.8 1.5-.8.9 0 1.8-.7 2.1-1.5.4-.8 1.2-1.5 2-1.5.7 0 1.9-.8 2.6-1.8 1.3-1.9 6.3-4.9 8.4-5.1.7-.1 1.5.6 1.8 1.5zm-181.4 9.8c0 2 0 2-1.5 0-.8-1-1.4-2.8-1.4-3.9 0-2 0-2 1.4-.1.8 1.1 1.5 2.9 1.5 4zm49-1.4c0 .5-.4 1-1 1-.5 0-1-.5-1-1 0-.6.5-1 1-1 .6 0 1 .4 1 1zm-136 3.1c0 .5-.7.6-1.5.3-.8-.4-1.5-1.3-1.5-2.1 0-1.3.3-1.3 1.5-.3.8.7 1.5 1.6 1.5 2.1zm-22 .4c0 1.4-.4 2.5-1 2.5-.5 0-1-1.1-1-2.5s.5-2.5 1-2.5c.6 0 1 1.1 1 2.5zm-3 7.1c0 .8.4 1.4.9 1.4s1.1 1.1 1.3 2.5c.3 1.4.1 2.5-.3 2.5-.5 0-.9-.9-.9-2s-.7-2.3-1.5-2.6c-.8-.4-1.5-1.5-1.5-2.6 0-1 .5-1.6 1-1.3.6.3 1 1.3 1 2.1zm158.4 1.9c.3.8.1 1.5-.4 1.5-.6 0-1-.7-1-1.5s.2-1.5.4-1.5.6.7 1 1.5zm3.6 6.9c0 .6-.7.1-1.5-1-.8-1-1.5-2.3-1.5-2.8 0-.6.7-.1 1.5 1 .8 1 1.5 2.3 1.5 2.8zm13.2-1.4c-.3 2.4-1.8 4.8-2.6 3.9-.2-.2-.7-1.9-1.1-3.7-.6-3.1-.5-3.3 1.7-3 1.8.2 2.2.8 2 2.8zm135.6.1c1.5.9 2.2 2.4 2.2 4.4 0 3.4-4.1 15.4-6.5 18.7-.8 1.2-1.5 2.9-1.5 3.8 0 .8-1.5 2.9-3.4 4.7-1.9 1.7-4.1 5.1-4.9 7.4-1 3-2.1 4.4-3.3 4.4-1 0-2.4 1.1-3.1 2.4-1.8 3.7-6.3 8.2-9.8 9.8-1.6.7-4.5 2.2-6.3 3.3-1.8 1.1-5 2.2-7.1 2.4-2.1.1-4.3.6-4.9 1-.6.3-2.3.8-3.9 1.1-4.9.7-11.5 2.5-13.7 3.7-1.1.7-4.3 1.3-6.9 1.4-2.7.2-5.4.7-6 1.2-1.6 1.2-13.7 2.1-16.2 1.2-1.9-.7-5.4.4-6.6 2.1-.3.5-2 .4-3.9-.1-2.3-.6-3.8-.6-4.6.1-.7.6-2.2.8-3.2.5-1.1-.4-4.8-.7-8.3-.7-3.5-.1-7.3-.6-8.4-1.2-1.1-.6-7.2-1.2-13.5-1.3-11.9-.2-25.5-1-25.5-1.3 0-.1-1.8-.5-3.9-.7-2.1-.3-4.7-.9-5.7-1.4-1-.6-3-1-4.4-1-1.5 0-3.9-.6-5.3-1.4-1.5-.8-4.7-1.9-7.2-2.6-2.5-.7-6-1.8-7.8-2.6-1.8-.8-4.1-1.4-5.2-1.4-1 0-2.1-.4-2.4-.9-.3-.4-2.4-1.1-4.6-1.5-2.2-.3-4.3-1.3-4.6-2.1-.4-1-1.6-1.3-4.1-1-2 .2-3.8.7-4.1.9-.2.3-1.3-.6-2.4-1.9-1.1-1.4-2.8-2.5-3.8-2.5-1.5 0-5-5.2-5-7.5 0-1.4 6.1-6.6 7.7-6.6 1-.1 4.5.7 7.8 1.6 3.3.9 7 1.7 8.3 1.7 1.2 0 2.2.4 2.2.9s1.4.9 3.2.9c2.9 0 10.6 3 13.6 5.3 2.1 1.7 6.3 1.7 6.9.1.5-1.3.8-1.3 2.2-.1.9.8 2.3 1.4 3.1 1.5 5.2 0 15.7 1.5 16.4 2.2.6.6 1.4.6 2 .1.7-.6 3.5-.4 7.1.4 3.2.8 6.1 1.2 6.4 1 .2-.3 1.1.1 1.9.8 1.3 1 15.1 1.9 25.7 1.6 1.1-.1 5.3-.2 9.3-.3 6.7-.1 7.3-.3 7.9-2.4l.5-2.3 2.4 2.2c1.7 1.6 3 2 5.3 1.6 1.7-.4 3.3-.2 3.7.4.4.8 1 .7 1.7 0 .6-.6 3.5-1.1 6.3-1.1 2.9 0 5.6-.5 5.9-1 .3-.6 3-1 6-1s5.7-.5 6-1c.4-.6 2.5-.9 4.8-.8 3.3.2 4.3-.1 5.2-1.8.8-1.6 1.5-1.9 3-1.3 3 1.1 8.3 0 14.5-3 8.6-4.3 10-5.4 10-8 0-1.3.7-3.2 1.5-4.1.9-1 1.9-3.5 2.2-5.6.3-2.1 1.7-5.3 3-7.2 1.2-1.9 2.3-4 2.3-4.7 0-.6.9-2 2-3s2-2.4 2-3.2c0-.7.5-1.3 1-1.3.6 0 1-.9 1-2 0-1 .8-2.4 1.8-2.9 2.3-1.5 13.2-.8 16 1zm-228.5 7.4c.4.8.2 1.7-.3 2-.6.4-1-.3-1-1.4 0-2.5.6-2.7 1.3-.6zm-19.3 10.1c0 .8-.4 1.4-1 1.4-.5 0-1-.9-1-2.1 0-1.1.5-1.7 1-1.4.6.3 1 1.3 1 2.1zm36.9 5.7c0 2.1-.1 2.1-.9.2-1.2-2.8-1.2-3.7 0-3 .6.3 1 1.6.9 2.8zm-6.3 5.5c1.2 3.7 2 6.9 1.8 7.1-.9 1-3.4-2.5-3.4-4.8 0-1.4-.4-4.1-.9-5.9-1.8-6.2.4-3.1 2.5 3.6zm36.4-2.3c0 1.3.3 3.1.7 4.1.4 1.2.2 1.5-.8 1.2-.8-.3-1.3-1.6-1.1-3.1.1-1.4-.2-2.8-.8-3.2-1.6-1-1.2-2.5.5-1.9.8.4 1.5 1.7 1.5 2.9zm3.9 13.1c2.5 4.2 2.6 5.1.6 3.4-.8-.7-1.5-1.8-1.5-2.5s-.7-1.6-1.6-1.9c-.8-.3-1.2-1-.9-1.6.9-1.5 1.1-1.3 3.4 2.6zm25.5 5c.3.8.2 1.2-.4.9-.6-.3-1-1-1-1.6 0-1.4.7-1.1 1.4.7zm-87.5 6c.3 1.6.1 1.7-1.3.5-1.9-1.6-2.1-3.4-.3-2.9.6.3 1.4 1.3 1.6 2.4zm256.9-.4c-.2.6.4 2 1.5 3.1 1.3 1.3 1.7 2.6 1.2 4.5-.7 2.9-4.4 11-5.7 12.7-.5.5-1.7 2-2.7 3.2-1.1 1.4-1.6 3.3-1.4 4.7.4 1.7 0 2.5-1.6 2.9-1.1.3-2.8 2.1-3.8 4.1-.9 2-2 3.6-2.4 3.6-1.1 0-6.5 5.3-7.7 7.6-.6 1.2-3.2 3.1-5.7 4.3-2.5 1.2-4.5 2.5-4.5 3.1 0 .5-.6.7-1.2.5-.7-.3-4.9 1.3-9.2 3.5-4.3 2.2-8.4 4-9.1 4-.7 0-1.9.8-2.9 1.8-.9 1.1-3.5 2.5-5.9 3.2-2.3.7-4.8 2.1-5.5 2.9-1 1.2-3.3 1.6-10.2 1.6-4.9.1-9.2.4-9.6.7-.3.4-1.2.4-2 .1-.8-.3-1.4.1-1.4 1.1 0 1.4-1 1.5-6 1.2-4.5-.4-6-.2-6 .8 0 .8-1.7 1.6-4.1 1.9-5.8.8-6.7 2.1-2.8 4.1 2 1 3.6 1.3 4.2.7.5-.5 1.6-.7 2.4-.4.8.3 2-.3 2.7-1.3 1.1-1.5 1.7-1.6 2.9-.6 1.9 1.6 13.9 1.4 19.2-.4 2.2-.7 6.9-1.4 10.3-1.5 3.5-.1 6.5-.5 6.7-.9.2-.4 2.7-.5 5.4-.2 4 .4 5.3.1 7.2-1.7 1.3-1.1 2.8-2 3.3-1.9 1.2.1 6.1-1.6 8.7-3.1.9-.5 3.6-1.1 6-1.2 2.4-.2 5.1-.6 5.9-1 3.3-1.5 8.8-2.9 11.2-2.9 1.4 0 3.1-.7 3.8-1.5 1.5-1.8 5-1.9 8.5-.3 3.5 1.6 3.2 6.1-.5 6.6-1.4.2-2.9.8-3.4 1.3-.6.5-2 .9-3.3.9-1.3 0-2.3.4-2.3 1 0 .5-1.1 1-2.5 1-2.9 0-8.1 2.4-8.7 4-.2.6-2.6 1.2-5.4 1.4-2.7.2-5.9.8-7 1.3-1 .6-4.4 1.3-7.3 1.6-3.2.4-5.8 1.3-6.3 2.1-.6 1.1-1.6 1.2-3.6.7-1.5-.5-3.8-.4-5.2.1-1.4.5-3.8 1.2-5.5 1.4-5.6.8-6.4 1-7.1 1.7-.4.4-2.9.7-5.5.7s-5.1.5-5.4 1.1c-.4.6-1.4.8-2.4.4-2.9-1.1-19.4-1.5-20.7-.4-.7.6-2.7.6-5 .1-2.2-.4-5.5-.4-7.4 0-1.9.5-7.3.9-12 .9h-11.7c-2.3 0-3.3-.6-3.8-2.2-1-3 .3-3.9 6.5-4.1 3.4-.2 6-.9 6.7-1.8.7-.8 1.3-1.1 1.3-.7 0 1 4-1.1 4-2.1 0-.4-2.2-1.8-4.9-3.1-3.4-1.6-5.8-2.1-7.9-1.7-2 .5-3.3.2-4.2-.9-.9-1.1-1.6-1.2-2.5-.5-.8.7-3.8.8-8 .4-5.6-.6-7.2-1.2-10.1-3.9-2.6-2.5-3.4-4-3.4-6.8 0-3.1.5-3.8 3.5-5.3 3.3-1.5 3.7-1.5 6 0 2.6 1.7 2.6 1.7 1.9-1.1-.6-2.7-.5-2.6 2.2.9 1.9 2.5 3.5 3.7 4.7 3.4.9-.2 2.4.2 3.1 1 1.8 1.8 9.4 4.6 12.6 4.7 6.4 0 7.3-.2 6-1.8-.6-.8-1-2-.7-2.7.3-.8.9-.2 1.5 1.3 1 2.6 1.2 2.6 8.4 2.2 4-.2 8.9-.7 10.8-1 1.9-.4 3.8-.6 4.2-.5.3.1 4.1-.5 8.4-1.3 4.2-.9 7.9-1.3 8.2-1 .3.3 1.1 0 1.8-.6s2.8-1.1 4.6-1.1c2.1-.1 4.1-.9 5.5-2.4 1.2-1.3 3.2-2.4 4.5-2.4 1.3 0 2.9-.9 3.6-2 .7-1.1 2.1-2 3.1-2s2.4-.7 3.1-1.5c.7-.8 1.8-1.5 2.4-1.5 1.5 0 6.4-4.9 8.6-8.7 1.1-1.8 3.5-3.9 5.5-4.7 1.9-.8 3.5-2.1 3.5-2.9 0-1.8 4.2-4.7 6.8-4.7 1.1 0 2.7-1.1 3.6-2.5.9-1.4 2.3-2.5 3.1-2.5.8 0 1.5-.4 1.5-.8 0-.5 1.1-2.2 2.5-3.8 1.4-1.6 2.5-3.2 2.5-3.7 0-.4.7-.7 1.5-.7s1.5-.7 1.5-1.6c0-.9.9-1.8 2-2.1 1.1-.3 2-1 2-1.7 0-1.5 8.1-9.4 9.8-9.5.8-.1 1.2.4 1 1.1zm-252.5 5.8c.6 2.4-.8 3.6-1.7 1.4-.8-2.2-.7-3.4.3-3.4.5 0 1.1.9 1.4 2zm-11.3 2.5c0 .8-.4 1.7-1 2-.6.4-1-.5-1-2s.4-2.4 1-2c.6.3 1 1.2 1 2zm16.3 3.6c.4 1.6.3 1.8-.9.8-1.6-1.3-1.9-2.9-.5-2.9.5 0 1.1.9 1.4 2.1zm22.7 5.9c0 .5-.2 1-.4 1-.3 0-.8-.5-1.1-1-.3-.6-.1-1 .4-1 .6 0 1.1.4 1.1 1zm-26 7c-.1 1.2-.4 1.1-1.5-.4-.8-1-1.2-2.3-.8-2.9.7-1.1 2.3 1.2 2.3 3.3zm269.8 0c1 1.7 1 2.1-.3 2.6-2.3.9-4.8-1.5-3.4-3.2 1.5-1.9 2.2-1.8 3.7.6zm-251.8 4.9c0 1.1-.5 1-2-.4-1.1-1-2-2.8-2-3.9 0-2 .1-2 2 .4 1.1 1.4 2 3.1 2 3.9zm7.3-3.9c.3 1.1.2 2-.3 2-.4 0-1-.9-1.3-2-.3-1.1-.2-2 .3-2 .4 0 1 .9 1.3 2zm-24.3 2c0 .5-.2 1-.4 1-.3 0-.8-.5-1.1-1-.3-.6-.1-1 .4-1 .6 0 1.1.4 1.1 1zm-44.3 4.2c-.3.8-.6.5-.6-.6-.1-1.1.2-1.7.5-1.3.3.3.4 1.2.1 1.9zm341 5.6c.5 3.5.2 4.1-1.6 4.7-4.8 1.5-6.9-4.7-2.9-8.5 2.7-2.5 3.8-1.5 4.5 3.8zm-283.7-3.2c0 .8-.4 1.2-1 .9-.5-.3-1-1-1-1.6 0-.5.5-.9 1-.9.6 0 1 .7 1 1.6zm44.9.9c4.6.3 6.8 1.8 7.2 5 .5 3.8-1.1 9.1-3.2 10.5-3.5 2.4-6.4 5.4-6.5 6.7-.2 2.8-.5 3-2.9 2.5-1.7-.3-3.4.4-5.6 2.2-1.8 1.5-3.8 2.5-4.5 2.2-.8-.3-1.8.3-2.4 1.3-.5 1-2.1 2.2-3.5 2.5-1.4.4-2.5 1.1-2.5 1.6 0 1.3-3.7 1.1-7.9-.4-3.4-1.2-8.1-8-8.1-11.8 0-.9-.6-1.9-1.2-2.1-.7-.3-.1-.6 1.5-.6 2-.1 2.7-.6 2.7-2.1 0-1.3.7-2 2-2 1.1 0 2-.5 2-1.1 0-.6.9-.9 2-.6 1.5.4 2 0 2-1.4 0-1 .7-1.9 1.5-1.9s3.2-1.6 5.2-3.6c2.1-1.9 5-3.8 6.6-4.1 1.7-.3 2.7-1.2 2.7-2.3 0-2.6.8-2.9 4.8-1.8 2 .5 5.7 1.1 8.1 1.3zm44.8 6.7c-.3.7-.5.2-.5-1.2s.2-1.9.5-1.3c.2.7.2 1.9 0 2.5zm31.3 3.7c1.6 3 1.2 3.6-1 1.6-2.1-1.9-2.6-3.5-1-3.5.5 0 1.4.9 2 1.9zm-41 5.5c0 1.1-1.9 1.5-2.5.6-.3-.5.1-1 .9-1 .9 0 1.6.2 1.6.4zm-35 17c0 .3-.4.8-1 1.1-.5.3-1 .1-1-.4 0-.6.5-1.1 1-1.1.6 0 1 .2 1 .4zm149 23.2c0 .8-.4 1.2-1 .9-.5-.3-1-1-1-1.6 0-.5.5-.9 1-.9.6 0 1 .7 1 1.6zm-66.8 31.4c.4 0 .8.4.8 1 0 2-2.9-.3-3.9-3.2-1.5-4.4-1.2-4.8.6-1.1.9 1.8 2 3.3 2.5 3.3zm210.22-666.337h1170.322v12.584H578.869z" fill="#999"/><text style="line-height:1.25" x="604.037" y="372.798" font-weight="400" font-size="30" font-family="sans-serif" letter-spacing="0" word-spacing="0" fill="#999" stroke-width=".75"><tspan x="604.037" y="372.798" font-size="100">TOTALNY ROZPIERDOL</tspan></text><text style="line-height:1.25" x="548.307" y="216.396" font-weight="400" font-size="30" font-family="sans-serif" letter-spacing="0" word-spacing="0" fill="#999" stroke-width=".75"><tspan x="548.307" y="216.396" style="-inkscape-font-specification:'monospace Bold'" font-weight="700" font-size="144" font-family="monospace">SPALINOWE POLA</tspan></text></svg>