<svg xmlns="http://www.w3.org/2000/svg" version="1.0" width="824.463" height="1267.904" viewBox="0 0 618.347 950.928"><path d="M3.757 266.963l24.27-93.482 38.651-79.1 104.268-62.022 34.157-12.584L279.71 0l107.864 25.168 47.64 33.258 45.841 57.528 40.45 77.302 38.65 103.37 26.068 89.886 19.775 106.965 9.887 97.976.417 82.634-2.608 98.392-16.481 57.75-26.545 46.216-57.61 35.12-30.205 12.468-88.987 26.067-64.719-9.888-73.706-5.393-68.138-38.175-64.894-77.778-59.326-117.752-32.359-136.627-24.269-142.02-2.052-36.6z" fill="#fff"/><path d="M232.275 11.78c-1.401.496-4.504 1.386-7.006 2.178-2.503.692-5.806 1.882-7.509 2.677-1.602.795-3.705 1.788-4.507 2.186-.901.397-3.103 1.09-4.904 1.484-1.902.394-4.506 1.886-5.81 3.282-1.205 1.396-2.307 1.993-2.305 1.393.003-.8-.898-.803-3-.01-3.704 1.189-4.206 1.987-3.516 4.99.593 2.301.693 2.302 18.492 2.557 15 .147 18.2.357 19.495 1.762.897.902 2.195 1.606 2.995 1.609.7.002 2.994 1.81 5.188 3.916 2.292 2.307 5.486 4.417 7.984 5.025 2.298.607 4.495 1.614 4.793 2.115.298.601 1.397 1.005 2.397 1.008.9.003 3.595 1.611 5.79 3.518 2.293 1.907 4.788 3.515 5.688 3.518.8.002 1.898.606 2.296 1.407.398.701 1.495 1.505 2.294 1.807 1.199.504 1.098.704-.404 1.299-2.203.993-11.696-1.237-13.09-2.941-1.694-2.205-8.385-4.926-10.587-4.333-1.302.396-3.2-.21-4.796-1.415-1.696-1.206-5.692-2.418-10.19-3.032-4.099-.613-8.195-1.726-9.092-2.629-.898-.803-2.196-1.207-2.798-.809-.601.399-2.2-.106-3.597-1.01-1.397-.905-3.295-1.511-4.195-1.414-.9.197-3.3-.21-5.198-.816-1.898-.606-4.896-1.116-6.696-1.021-1.7-.006-3.898-.713-4.795-1.715-.997-.903-2.496-1.408-3.297-1.11-.8.297-1.8.094-2.098-.407-.399-.502-3.097-1.21-6.096-1.52-2.999-.309-7.396-1.123-9.594-1.73-3.996-1.212-4.497-1.114-12.009 2.763-4.407 2.186-10.515 4.867-13.618 5.857-3.204.99-5.807 2.082-5.808 2.482-.001.4-.803.898-1.704 1.295-1.001.297-2.503.892-3.305 1.39-.801.497-3.105 1.69-5.008 2.684-1.903.994-4.308 2.586-5.312 3.683-1.003.997-2.405 1.793-3.105 1.79-.7-.002-3.204 1.29-5.41 2.983-2.305 1.593-4.808 2.685-5.607 2.383-.999-.403-2.001.294-2.706 1.991-.705 1.498-2.009 2.594-3.109 2.59-1.1-.003-4.106 2.188-6.815 4.98-2.709 2.69-5.316 4.983-5.916 4.98-.6-.001-1.101.397-1.102.797-.003 1-7.72 6.176-9.12 6.172-.5-.002-.9.397-.902.797-.005 1.7-7.126 8.178-9.026 8.172-1.1-.004-2.703 1.091-3.608 2.488-.904 1.398-2.208 2.493-2.808 2.492-1.8-.006-4.812 3.985-5.924 7.881-.606 1.998-1.124 7.597-1.24 12.596-.025 8-.33 9.5-2.841 13.191-1.508 2.396-3.314 4.29-4.014 4.288-.8-.002-3.406 2.19-6.015 4.981-2.609 2.692-5.016 4.984-5.516 4.983-1.4-.004-6.92 6.378-8.933 10.472-1.207 2.196-2.718 5.991-3.426 8.49-.708 2.497-1.616 4.894-2.118 5.492-.401.5-.807 2.298-.812 4.098-.006 1.9-.913 4.097-2.519 5.792-1.404 1.496-2.51 3.492-2.514 4.492-.007 2.3 4.48 6.214 6.383 5.52.801-.297 1.7-.094 2.098.507.299.6 1.097 1.103 1.597 1.105 1.3.004 6.92-6.078 6.924-7.578.002-.6.705-1.698 1.507-2.396.903-.697 2.209-2.693 3.014-4.39.905-1.698 3.113-4.19 4.918-5.585 3.407-2.49 10.637-11.967 10.643-13.867.002-.6.704-1.097 1.604-1.095 1.4.004 5.911-3.781 10.427-8.667.803-.897 2.809-2.791 4.513-4.186 1.604-1.395 4.112-3.887 5.517-5.383 1.405-1.595 4.215-4.686 6.221-6.88l3.713-4.089 5.297.917c4.898.815 5.297 1.117 4.99 3.416-.818 5.797-5.74 12.882-9.04 12.971-.7-.002-1.503.696-1.906 1.495-.302.899-1.504 1.495-2.704 1.291-1.5-.205-2.502.592-3.608 2.789-2.215 4.493-8.036 11.375-9.536 11.37-1.4-.004-14.24 12.455-20.764 20.235-2.007 2.394-4.318 5.886-5.224 7.784-2.718 5.691-4.426 8.286-6.531 9.98-1.003.796-3.113 3.89-4.521 6.685-2.214 4.293-2.721 6.592-2.742 13.191l-.125 7.9-4.615 4.986c-2.609 2.692-7.224 7.577-10.235 10.968-3.01 3.39-5.819 6.081-6.419 6.08-1.2-.004-7.018 5.978-8.527 8.673-.604 1.198-1.11 2.996-1.113 4.096-.003 1.1-.708 2.498-1.51 3.196-.802.697-1.506 2.095-1.51 3.095-.003 1.1-.405 1.899-.805 1.897-1.2-.004-.657 17.999.634 21.003.595 1.401 1.888 3.705 2.884 5.109 4.877 7.215 6.17 9.519 6.166 10.919-.003.8 1.59 3.305 3.482 5.51 1.993 2.207 3.785 4.813 4.082 5.714.297 1 .995 1.803 1.495 1.804.5.002.898.603.895 1.403-.002.8 1.586 4.505 3.474 8.311 2.087 4.107 3.475 8.211 3.467 10.511-.006 2 .488 4.002.987 4.303.599.402.89 3.403.779 6.803-.211 3.4.076 7.6.47 9.301.691 2.902.29 3.601-4.929 9.285-3.21 3.39-7.722 7.076-10.126 8.268-2.403 1.193-4.308 2.687-4.31 3.287-.002.7-1.105 1.696-2.507 2.292-1.402.695-2.806 1.991-3.21 2.89-.302.999-1.307 2.596-2.11 3.593-1.305 1.496-1.408 2.496-.52 5.999.593 2.302.78 6.802.57 10.001-.516 4.799-.221 6.6 1.569 9.805 1.59 2.805 2.183 5.307 1.971 9.107-.113 4.1.48 6.401 2.469 9.907 3.182 5.61 9.163 11.93 11.363 11.936 1.3.004 12.146 17.038 12.34 19.339-.005 1.2.19 2.6.29 3.2.197.501.293 1.802.39 2.702-.003 1 .795 1.803 1.595 1.805 1.7.005 1.798.706.579 6.802-.508 2.298-.514 4.498-.015 4.8.499.301.9-.197.903-1.097.003-.9.404-1.399 1.003-.997.5.301.696 1.202.394 1.901-.302.8-.105 1.7.494 2.102.599.302 1.09 3.003 1.081 5.903-.01 3 .68 6.702 1.474 8.205.795 1.602 1.485 5.004 1.477 7.604-.009 2.6.484 5.002.983 5.304.599.301.996 1.403.992 2.403-.006 2.2-5.935 11.281-7.033 10.578-.399-.302-1.503 1.095-2.41 2.992-.905 1.897-2.21 3.493-2.91 3.491-2.1-.007-3.717 5.388-4.142 13.287-.32 6.4-.025 8 1.47 9.605 1.395 1.504 1.988 3.906 2.173 8.807.374 8.1 1.96 12.306 4.46 12.314 1 .003 2.897 1.109 4.193 2.513 1.296 1.404 3.192 2.51 4.192 2.513 1 .003 1.899.406 1.897 1.006.098.5.195 1.5.293 2.1.097 1.101 2.792 2.61 4.792 2.816.3.1.902-.697 1.105-1.697.303-.999.502-.598.597 1.102.094 1.9.79 3.003 2.388 3.608 3.796 1.512 5.487 4.317 7.559 13.223 1.085 4.804 3.364 11.311 5.054 14.616 1.59 3.305 2.977 7.21 2.973 8.71-.005 1.4.39 3.401.886 4.403.597.901 1.687 4.105 2.578 7.008.99 3.203 2.084 5.006 2.686 4.608.701-.498.8-.197.197.7-.402.8-.913 4.298-1.024 7.898-.123 7.2-1.938 12.094-4.036 11.287-.999-.303-2.103 1.093-3.514 4.589-1.209 2.796-2.616 5.092-3.016 5.09-.5-.001-.902.698-.905 1.498-.003.9-1.212 3.896-2.621 6.791l-2.716 5.092 1.678 7.105c.888 3.803 1.574 8.205 1.57 9.605-.005 1.5.59 3.102 1.288 3.604 1.995 1.607 9.687 4.33 9.69 3.53 0-.5 1.805-1.894 4.109-3.086 4.708-2.686 12.11-3.062 17.003-1.047 4.594 2.014 10.875 8.034 10.867 10.534-.004 1.2.89 3.003 1.988 4.006 1.097 1.004 1.992 2.406 1.99 3.206-.002.7.496 1.302 1.096 1.304.6.002.902-.697.504-1.498-.297-.801-.095-1.5.505-1.499.7.002.896 1.203.49 3.402-.407 1.998-.212 3.699.387 4.1.499.302.994 1.704.99 3.004-.004 1.3.492 2.702.99 3.003.6.302.996 1.403.993 2.403-.003 1 .891 2.903 1.987 4.306 2.49 3.208 4.967 10.416 4.954 14.516-.005 1.7.49 3.502.988 3.803.6.302 1 .103 1.002-.597.002-.7.303-.999.602-.598.4.301-.306 1.8-1.51 3.295-1.406 1.796-2.113 4.094-2.122 6.894-.007 2.3-.719 6.098-1.527 8.495-.807 2.298-1.416 5.096-1.42 6.296.097 1.2-.417 5.698-1.13 9.996-1.328 8.696-.643 13.598 2.05 15.507.899.603 1.993 2.606 2.388 4.207.394 1.701.99 3.003 1.49 3.005.4 0 .997.903 1.294 2.004.395 1.501 1.394 2.004 3.994 2.013 2 .006 3.8-.389 4.102-.888.302-.499 2.304-1.092 4.305-1.386 7.303-.977 12.708-2.46 13.111-3.56.706-1.997 7.004-1.177 9.197 1.13 1.494 1.704 2.294 1.907 3.196 1.01.803-.798 2.001-.194 4.792 2.615 2.094 2.006 3.985 4.712 4.382 5.814.396 1.2 1.49 2.904 2.588 3.908 1.097 1.003 1.992 2.606 1.989 3.506-.003.9.493 2.102 1.091 2.703.698.703 1.279 6.904 1.45 16.005.61 28.502 1.283 37.404 3.075 39.91.896 1.303 2.093 2.406 2.493 2.408.5.002 2.097.806 3.494 1.91 1.496 1.005 4.993 2.116 7.692 2.525 2.798.409 6.196 1.22 7.694 1.824 2.197.807 3.898.712 7.702-.576 5.305-1.683 10.106-2.068 10.102-.768-.005 1.6 5.198.716 6.104-1.081 1.408-2.496 6.107-2.181 8.797.727 2.393 2.508 4.672 9.215 5.55 15.918.78 6.702 1.772 9.205 5.16 13.116 3.189 3.51 5.285 4.617 5.291 2.617.006-1.9 2.303-.993 5.493 2.217 2.892 2.809 3.99 3.212 9.19 3.329 3.2.11 8.598.627 12.096 1.238 4.898.715 6.498.72 7.301-.377.703-.698 1.805-1.295 2.504-1.293.8.003 1.401-.295 1.403-.795.001-.4 2.102-.594 4.702-.485 2.6.108 5.2-.184 5.902-.782.602-.498 1.902-.694 2.8-.291.9.303 2.2.207 2.902-.391.602-.598 2.303-.993 3.703-.988 5 .115 14.505-1.555 15.509-2.652.602-.698 3.706-1.988 7.01-2.978 3.302-.99 6.606-2.18 7.208-2.777 1.904-1.394 6.294 1.82 6.285 4.72-.01 3.1-3.92 6.487-11.23 9.764-2.905 1.291-3.815 4.588-1.517 5.196 7.493 2.123 10.39 3.332 11.286 4.535.597.802 1.297 1.004 1.699.405.502-.898 1.902-.794 10.699.334 1.899.206 4.998.415 6.898.421 1.8-.094 3.9.413 4.597 1.015.698.602 3.298.81 6.099.419 2.7-.292 8.802-.673 13.702-.757 4.801-.185 9.303-.771 10.005-1.369 1.103-.896 8.806-1.972 18.708-2.541 2.5-.192 6.903-1.079 9.906-1.97 3.003-.89 6.905-1.578 8.805-1.572 1.8.006 4.903-.984 7.007-2.178 2.104-1.193 4.806-2.085 6.106-1.98 1.2.103 3.903-.888 6.007-2.182 2.004-1.193 4.306-2.086 5.106-1.784.699.202 1.7-.094 2.102-.793.402-.699 2.404-1.193 4.304-1.187 2 .006 4.102-.587 4.804-1.385.603-.798 1.504-1.095 2.003-.793.499.301 1.2-.097 1.502-.896.303-.799 1.404-1.195 2.704-.991 3.597.711 10.206-2.068 10.213-4.268.008-2.7-3.69-2.912-8.198-.526-5.51 2.783-10.013 4.069-14.813 4.054-2.5-.008-4.802.585-5.505 1.482-1.405 1.596-5.808 2.582-12.509 2.861-2.5-.008-4.501.386-4.502.686-.003.8-4.806 1.885-10.408 2.568-2.2.193-4.803.885-5.704 1.382-1.002.497-2.502.592-3.401.289-.9-.403-2.4.093-3.504 1.09-1.404 1.295-2.304 1.392-3.802.587-1.897-1.006-5.897-1.018-7.7.076-.6.298-4.802.585-9.402.57-4.6.086-8.902.573-9.403 1.071-1.706 1.695-5.604 1.282-9.797-1.13-5.79-3.219-4.878-6.816 1.622-6.796 1.3.004 2.701-.491 3.003-.99.302-.6 2.603-.992 5.003-.985 2.4.008 4.701-.485 5.003-.984.302-.599 2.003-.994 3.603-.989 1.6.005 4.003-.887 5.206-1.983 1.906-1.794 3.107-1.99 11.005-1.566 8.199.426 8.9.328 11.306-1.864 1.404-1.296 3.207-2.09 4.006-1.788.799.303 2.1.007 2.902-.69.802-.598 1.803-.995 2.202-.694.4.301 1.9.006 3.302-.59 1.402-.495 3.203-.89 4.202-.786.9.102 1.901-.294 2.303-.893.302-.5 1.703-.995 3.103-.99 1.3.004 2.402-.493 2.404-.993.002-.6 1.403-.995 3.103-.99 1.9.006 3.702-.689 4.405-1.686.904-1.198 2.605-1.692 5.305-1.684 3.5.111 4.802-.485 9.315-4.67 2.808-2.592 5.714-4.483 6.413-4.28.7.302 1.6.105 2.002-.494.302-.6 1.503-1.095 2.603-1.092 1.1.003 3.306-1.89 5.415-4.783 1.909-2.694 4.617-5.386 6.02-5.981 1.401-.596 2.505-1.792 2.508-2.692.003-.8.404-1.5.904-1.498.5.002 1.103-.896 1.407-2.095.405-1.599 1.106-1.897 2.604-1.392 1.399.404 2.1.207 2.102-.693.003-.9 1.305-1.396 3.805-1.289 3.5.011 3.699.212 3.989 3.413.291 2.7-.515 4.698-3.729 9.188-2.31 3.193-4.12 6.387-4.122 7.087-.002.7 2.388 3.608 5.28 6.517l5.283 5.117 4.704-1.086c3.903-.887 4.704-1.385 4.71-3.285.004-1.3-.392-2.501-.891-2.803-1.597-1.105-1.886-4.506-.38-6.5 1.307-1.997 1.607-1.996 4.502-.487 4.592 2.415 8.391 2.827 9.097 1.029.604-1.498 10.32-6.568 12.62-6.56.7.001 3.204-1.09 5.708-2.483 2.504-1.392 4.908-2.484 5.408-2.483 2.2.007 8.115-4.775 9.524-7.77.906-1.797 2.01-2.994 2.609-2.692 1.197.804 1.103-1.096-.082-5.7-.792-2.703-.787-4.403.018-5.8.805-1.598.809-2.798-.384-5.001-1.391-2.905-1.391-3.005.909-2.998 1.6.005 3.304-1.29 5.413-4.183 1.707-2.294 3.112-3.89 3.111-3.59 0 .3 2.1-.193 4.704-1.185 4.005-1.488 5.208-2.684 9.028-8.972 2.814-4.491 4.225-7.787 3.828-8.788-.297-1-.781-6.002-1.065-11.203-.184-5.2-.556-14.102-.938-19.803l-.468-10.302 3.513-3.989c2.006-2.094 3.614-4.389 3.615-4.889.002-.6 1.203-.996 2.603-.991 1.6.005 3.904-1.288 5.91-3.282l3.31-3.29.035-11c-.075-7.9-.464-11.501-1.558-13.204-.796-1.303-1.688-4.006-1.881-6.006-.194-2.001-.686-4.603-1.183-5.704-2.78-6.209-3.273-8.51-2.269-9.807.703-.798.811-3.598.128-8.8-.878-7.003-.675-7.902 1.639-12.495 1.408-2.695 2.517-5.492 2.52-6.192.001-.7 1.608-2.795 3.614-4.589l3.61-3.288-.674-8.403c-.385-4.6-.973-8.603-1.372-8.904-.698-.402-1.77-9.305-3.706-30.012-.288-3.6-.473-8.501-.365-11 .108-2.5-.48-6.402-1.273-8.705-.99-2.903-1.086-4.403-.384-5.101.803-.798.805-1.498.008-2.5-.697-.802-.895-1.703-.594-2.002.401-.299.71-3.198.92-6.397.213-4 1.023-7.197 2.833-10.291 2.212-3.993 2.417-5.393 2.139-12.494-.566-11.001-.958-13.403-2.745-17.708a77.91 77.91 0 0 1-1.686-4.306c0-.3-.693-2.402-1.485-4.704-2.478-7.008-4.056-14.113-3.945-17.813.107-1.9-.286-4.4-.782-5.502-.497-1.102-1.085-4.804-1.274-8.304-.19-3.5-.678-7.102-1.175-8.104-.497-.902-1.183-5.304-1.47-9.805-.477-7.001-.273-8.4 1.434-10.595 1.104-1.397 2.01-2.994 2.011-3.594.002-.6.504-1.098 1.004-1.097 1.9.006 1.023-7.297-1.361-12.404-1.292-2.804-3.078-7.11-3.97-9.613-.892-2.502-2.782-5.908-4.177-7.513-3.687-4.211-4.082-5.813-4.15-15.913-.08-6.4-.47-9.301-1.667-10.605-.797-.903-1.49-2.805-1.486-4.205.004-1.4-.687-4.202-1.481-6.104-.794-2.003-1.485-4.905-1.48-6.505.005-1.5-.39-3.201-.888-3.803-1.496-1.405-2.462-12.108-1.16-12.804.501-.398.704-1.397.407-2.298-.397-.902.107-2.1 1.11-2.897 1.803-1.294 2.417-5.592 1.637-11.895-.686-4.702-2.278-7.107-8.262-12.126-3.192-2.51-5.684-5.318-5.681-6.118.002-.7-1.088-4.003-2.477-7.308-1.39-3.304-2.477-7.407-2.472-9.107.006-1.8-.587-4.002-1.385-4.805-1.793-2.205-5.159-13.016-5.048-16.416.104-1.5-.292-2.7-.692-2.702-.4 0-.797-.902-.794-1.902.003-1.1-.493-2.302-.992-2.603-.598-.402-.797-1.003-.495-1.502.302-.499.813-4.297 1.127-8.496.212-4.1.927-8.598 1.43-9.896.908-2.397.42-6.199-.974-8.103-.398-.601-1.09-2.904-1.484-5.205-.587-3.902-1.086-4.503-5.778-6.918-5.192-2.516-9.579-6.83-9.671-9.23.002-.6-.396-1.202-.896-1.203-1.1-.003-4.478-7.014-3.676-7.712.301-.399.203-1.099-.295-1.7-1.892-2.407-6.067-10.62-6.062-11.92.003-.8-1.088-3.903-2.48-6.807-2.88-6.41-4.053-14.713-2.54-18.909.807-2.297.711-3.597-.084-5-.896-1.403-.892-2.503.014-4.5.705-1.498 1.01-3.097.611-3.598-.497-.901-2.462-12.008-2.847-16.809-.192-2.6-5.583-5.517-8.586-4.627-1 .297-4.7.085-8.298-.626-5.497-.917-6.795-1.521-7.988-3.725-.695-1.502-2.784-5.209-4.474-8.414-1.69-3.105-3.078-6.91-2.973-8.51.005-1.5-.381-6.1-.868-10.202-.588-4.002-.775-8.003-.473-8.702.303-.799.004-1.4-.495-1.401-1.2-.004-1.495-1.705-3.249-16.51-1.362-12.105-2.545-17.509-3.945-17.513-.6-.002-1.798-.706-2.595-1.608-1.096-1.103-2.695-1.409-4.896-1.115-1.701.294-5.1.084-7.3-.423-3.297-.71-4.997-.616-7.601.676-3.405 1.59-9.504 1.17-9.498-.63.002-.5-.596-1.502-1.193-2.204-2.891-3.009-5.651-15.617-5.918-26.318-.176-7.6-3.43-22.511-4.93-22.516-.5-.001-.798-.502-.796-1.102.004-1.4-2.589-3.608-5.984-5.12-4.893-2.114-16.192-2.45-25.997-.88-7.504 1.176-13.1.058-14.591-2.846-.596-1.302-1.691-2.906-2.29-3.508-1.495-1.504-1.273-8.404.442-13.198.807-2.198 1.515-4.696 1.517-5.496-.09-3-4.584-5.014-13.282-5.641-7.298-.623-8.597-1.027-9.092-2.629-.395-1.601-.894-1.803-2.796-1.208-2.803.99-4.903.884-15.199-.448-7.097-.922-8.397-.926-11.703.863-4.507 2.286-7.707 2.376-10.501.467-1.198-.803-2.995-1.51-3.995-1.512-2.9-.01-7.497-1.124-11.092-2.735-1.697-.805-5.796-1.418-8.996-1.428-3.4-.01-8.497-.927-11.793-2.037-4.695-1.615-8.494-2.027-19.394-2.161-12.8-.04-25.5.02-31.1.203-1.4.095-3.8-.212-5.499-.518-1.599-.305-4.1-.213-5.5.183zm125.123 24.793c.898.802 1.69 3.105 1.883 5.505.29 3.501-.216 5-2.424 7.693-3.714 4.588-6.915 4.678-8.5.173-1.487-4.304-1.463-12.004.042-13.5 1.605-1.595 6.804-1.478 9 .129zM176.525 59.806c-2.409 2.592-7.409 2.576-7.4-.124.006-2 3.614-4.588 5.713-4.182.6.102 1.501-.295 2.003-.993.603-.898.902-.598 1.097 1.003.196 1.3-.41 3.199-1.413 4.296zM334.138 55.7c2.796 1.508 13.957 13.844 13.952 15.544-.001.4.798.602 1.799.305 1.4-.295 2.298.607 3.587 3.911a430.868 430.868 0 0 0 3.177 7.51c1.191 2.804 1.09 3.404-.215 4.8-1.304 1.296-1.904 1.294-3.301.29-3.292-2.51-15.052-15.448-15.646-17.15-.298-.9-.895-1.703-1.295-1.704-.4-.001-2.395-1.607-4.39-3.514-2.59-2.608-3.685-4.611-4.076-7.512-.389-3.502-.187-4.001 1.513-3.996 1.1.004 3.298.71 4.895 1.516zm-168.424 7.572c-.304 1.099-2.008 2.494-3.81 3.288-1.803.794-4.207 2.087-5.31 3.083-1.103.897-4.008 2.488-6.511 3.48s-5.208 2.384-6.01 2.981c-.802.598-2.805 1.691-4.507 2.486-1.603.795-4.709 2.685-6.714 4.279-2.105 1.593-3.808 2.588-3.807 2.288 0-.3-2.103.993-4.61 2.886-2.505 1.892-4.91 3.484-5.41 3.483-.8-.003-5.21 2.883-12.125 7.862-1.804 1.194-1.903 1.094-1.894-1.806.008-2.4 1.113-4.197 4.523-7.486 2.508-2.492 5.515-4.783 6.717-5.18 1.3-.395 3.405-1.688 4.709-2.984 1.304-1.296 3.108-2.39 4.008-2.388.9.003 2.202-.893 2.906-1.99.703-1.099 2.106-1.994 3.106-1.991 1 .003 2.102-.593 2.404-1.392.706-1.798 18.834-10.542 22.033-10.531 1.4.004 3.804-1.089 5.308-2.484 2.407-2.192 3.008-2.39 4.204-1.087.798.703 1.093 2.204.79 3.203zm131.203-.989c5.2-.084 8 .225 9.496 1.33 1.198.804 1.696 1.505 1.196 1.504-.5-.002-.402.498.296 1.2.698.703 1.193 2.204 1.19 3.404-.005 1.3.391 2.502.89 2.803.5.302 1.094 2.004 1.388 3.804.295 1.801.983 5.504 1.674 8.306.592 2.702 1.28 6.804 1.572 9.005.293 2.2.886 4.403 1.385 4.904.598.602.994 2.003.99 3.203-.004 1.2.691 2.702 1.49 3.405.897.703 1.293 2.004.99 2.803-.302.699.592 2.702 1.987 4.306 2.291 2.807 4.473 8.614 4.462 12.114-.003.9 1.09 2.904 2.386 4.508 1.295 1.504 3.284 4.91 4.376 7.514 1.092 2.703 2.485 4.807 2.985 4.809 1.3.004 2.468 10.308 1.656 14.005-.405 1.699-1.109 2.997-1.709 2.995-.6-.002-4.09-3.013-7.779-6.825-3.688-3.711-8.075-7.825-9.77-9.23-1.796-1.406-3.39-3.31-3.787-4.312-.297-.901-1.095-1.704-1.895-1.706-.7-.002-3.095-1.71-5.288-3.817-2.193-2.207-5.486-4.517-7.383-5.323-1.798-.706-4.093-2.413-5.089-3.616-.996-1.303-2.593-2.308-3.593-2.311-.9-.003-3.397-.91-5.594-2.018-2.196-1.107-4.393-2.013-5.093-2.016-2.1-.007-4.588-3.914-5.075-8.216-.39-3.1-1.483-5.304-3.974-8.012-3.19-3.21-3.488-4.111-2.878-7.21.406-1.998 1.311-3.595 2.011-3.593.7.002 1.904-1.094 2.608-2.492 1.308-2.396 1.908-2.594 6.707-2.279 2.9.21 5.299.617 5.297 1.017-.005 1.6 6.298.82 7.603-.976 2.009-2.594 1.715-4.695-1.564-11.205-1.988-4.006-3.582-6.011-5.081-6.216-1.2-.204-2.697-1.109-3.293-2.11-1.393-2.405 1.815-4.995 4.812-3.985 1.199.403 5.398.617 9.398.53zM154.711 96.137c1.496 1.105 3.994 1.813 5.395 1.617 1.5-.095 3.298.41 4.096 1.213.797.803 2.796 1.309 4.496 1.214 2-.193 3.4.311 3.697 1.112.297.8 1.196 1.104 2.197.707.901-.297 1.9-.094 2.298.607.398.701 2.396 1.308 4.396 1.414 1.9.106 4.397 1.014 5.394 1.917 2.194 1.907 10.89 3.334 11.794 1.837.905-1.397 2.504-1.292 2.5.308-.004.8 1.192 2.403 2.587 3.808 3.49 3.31 9.362 12.23 9.356 14.33-.011 3.4 5.566 10.617 8.266 10.625 1.3.004 1.699.505 1.295 1.604-.302.9-.606 1.898-.607 2.398-.001.4-1.203.996-2.604 1.292-2.702.492-8.395-1.826-8.39-3.426.002-.5-.797-.903-1.797-.906-1.1-.003-2.697-.908-3.693-2.011-.997-1.104-1.995-1.807-2.195-1.607-.301.199-2-.207-3.797-1.012-1.898-.806-4.996-1.416-6.996-1.422-2.3-.007-3.498-.511-3.495-1.411.005-1.6-2.092-2.607-5.592-2.618-1.3-.004-3.997-.912-5.994-1.919-1.997-1.106-4.195-1.713-4.796-1.515-.7.298-5.194-1.616-10.087-4.131-4.792-2.515-8.986-4.428-9.287-4.13-.2.3-1.599-.304-2.895-1.408-1.297-1.004-4.493-2.215-7.092-2.523-2.6-.308-6.595-1.62-8.892-2.828-3.494-1.81-4.291-2.713-4.284-5.013.006-2 .71-3.098 2.813-3.991 1.501-.595 3.506-2.19 4.51-3.386 2.811-3.491 12.612-3.86 17.403-.746zm108.985 36.842c.198.6.997 1.003 1.797 1.006.8.003 1.398.404 1.397.804-.004 1.3 5.288 3.917 9.386 4.63 2.098.406 4.894 1.815 6.19 3.12 1.196 1.303 2.394 1.907 2.595 1.407.202-.4.902-.497 1.6.005.7.402 1.49 3.605 1.778 7.206 1.255 14.304 2.241 18.707 4.536 20.314.998.803 2.09 3.107 2.484 5.208.293 2.201 1.581 5.905 2.774 8.409 1.292 2.504 2.881 5.809 3.576 7.511.695 1.602 2.784 5.109 4.576 7.614 1.792 2.606 3.283 5.61 3.279 6.81-.004 1.2.494 1.902.995 1.604.6-.298 1-.097.998.503-.002.6 1.192 2.704 2.786 4.609 1.494 1.804 2.688 3.708 2.687 4.108.194 1.9 2.974 8.31 3.674 8.312 1.6.005.69 3.002-1.313 3.996-1.502.795-4.002.787-9.2-.03-5.697-.917-7.695-1.623-9.388-3.729-1.296-1.404-2.29-3.207-2.287-4.007.002-.7-.496-1.301-.996-1.303-.6-.002-2.895-1.709-5.288-3.817-2.294-2.107-5.785-4.818-7.682-6.024-1.896-1.106-6.184-4.819-9.474-8.13-3.29-3.31-6.581-6.12-7.281-6.122-.7-.002-2.495-1.708-3.988-3.913-2.787-4.008-3.087-4.21-10.575-7.933-2.496-1.208-4.591-2.714-4.59-3.214.002-.6-.897-1.003-1.997-1.007-1.1-.003-3.497-.91-5.493-2.017-1.997-1.106-4.394-2.014-5.394-2.017-1-.003-2.098-.606-2.396-1.407-.694-1.702-7.58-6.424-13.87-9.544-2.696-1.208-4.791-2.815-4.789-3.515.012-3.7 11.517-5.464 17.008-2.547 2.795 1.51 8.199.526 10.406-1.867 1.405-1.596 1.506-1.995.21-3-2.394-2.007-2.98-6.309-1.076-7.703.902-.697 2.303-.992 2.902-.79 2.198.806 4.008-2.388 2.916-4.891-1.093-2.504-.18-6.801 1.828-8.995 1.605-1.695 14.204-1.355 14.699.346zm-113.238 11.745c2.892 2.71 2.89 3.11.675 8.103-1.108 2.396-2.412 3.792-3.512 3.789-1.1-.003-4.306 1.786-7.212 3.977-2.907 2.19-5.813 3.982-6.313 3.98-.6-.002-3.206 1.99-5.714 4.482-2.608 2.492-5.214 4.484-5.914 4.482-.7-.002-2.805 1.591-4.711 3.485-1.906 1.894-3.811 3.488-4.411 3.486-.5-.002-3.507 2.19-6.615 4.88-3.21 2.79-7.017 5.278-8.618 5.673-1.601.295-4.106 1.987-5.712 3.782l-2.71 3.091-1.992-2.406c-2.491-2.908-2.484-5.308-.069-10 1.106-1.997 2.214-4.393 2.517-5.392.303-1 1.807-2.295 3.31-2.99 4.405-1.886 8.117-5.675 8.827-8.873.405-1.598 1.209-2.696 1.808-2.494.7.202 2.304-1.193 3.61-3.089 1.306-1.895 3.514-4.489 5.018-5.784 8.924-7.772 12.635-11.06 14.24-12.555.902-.897 1.904-1.494 2.103-1.194.2.2 2.4.008 4.901-.384 7.505-1.377 13.802-.557 16.494 1.951zm63.73 22.7c.297.801.196 1.2-.403.899-.6-.302-.997-1.003-.995-1.603.004-1.4.703-1.098 1.397.704zm-86.97 22.128c.298.5.097 1-.403.999-.6-.002-1.099-.504-1.097-1.004.002-.6.203-1 .403-.999.3.001.799.403 1.097 1.004zm244.383 5.666c1.597 1.005.584 5.102-1.316 5.096-1.8-.006-4.888-3.716-4.084-4.913.704-1.298 3.504-1.39 5.4-.183zM130.19 198.46c.298.501.096 1.2-.505 1.599-.501.298-1-.104-.997-.904.006-1.8.606-2.098 1.502-.695zm-7.214 4.478c1.296 1.304 4.09 2.812 6.19 3.219 2.198.407 4.296 1.113 4.595 1.614.597.902 2.795 1.61 12.687 3.94 2.298.607 4.196 1.413 4.194 1.913 0 .4 1.497 1.105 3.296 1.41 1.899.407 5.093 2.317 7.485 4.624 2.293 2.307 4.19 3.613 4.191 3.013.006-2 4.803-.985 7.095 1.523 1.795 1.805 3.392 2.51 6.492 2.52 2.8.009 4.399.514 4.796 1.515.297.9 1.795 1.506 3.495 1.51 1.6.006 3.598.612 4.296 1.214 2.393 2.208 5.688 3.818 7.788 3.825 1.2.004 3.097 1.01 4.393 2.314 1.296 1.304 2.793 2.108 3.494 1.91.6-.198 1.8.206 2.598.809.797.702 4.292 2.513 7.687 4.124 9.186 4.329 9.086 4.328 10.076 7.531.495 1.602 1.489 3.605 2.186 4.407.797.903 1.287 4.304 1.273 8.704-.02 6.5-.223 7.3-2.427 8.693-3.006 1.99-6.806 1.978-8.4.073-.698-.802-2.696-1.508-4.596-1.514-2.3-.007-3.698-.612-4.394-1.914-.496-1.101-2.393-2.307-4.192-2.613-1.698-.405-4.495-1.614-6.191-2.62-1.697-1.005-4.194-1.912-5.394-1.916-4.2-.013-13.19-3.142-13.186-4.542.003-.8-.697-1.102-1.797-.905-1.001.297-2.898-.71-4.593-2.515-1.694-1.705-3.99-3.112-5.19-3.116-1.2-.004-4.396-1.114-7.092-2.422-2.596-1.308-6.492-2.72-8.69-3.027-2.1-.407-4.597-1.115-5.496-1.618-.898-.502-4.992-2.415-9.086-4.428-4.094-1.913-8.785-4.828-10.48-6.433-1.595-1.605-4.49-3.314-6.388-3.72-3.398-.71-10.087-4.232-11.182-5.835-.498-.802-2.696-1.409-5.395-1.617-1.5-.105-4.483-5.514-4.475-8.114.011-3.5 6.737-11.78 10.34-12.868 5.306-1.483 7.705-1.176 9.997 1.332zm309.104-.732c.398.402 2.298.608 4.198.414 1.8-.095 3.4.21 3.398.71-.002.5 1.095 1.504 2.493 2.208 1.897 1.006 2.494 2.108 2.486 4.608-.01 2.8-.511 3.498-2.613 3.992-4.503 1.086-10.3-.233-12.39-2.94-1.794-2.205-2.493-2.407-9.994-2.23-8.4.173-9.997-.732-5.689-3.518 4.109-2.787 16.416-4.949 18.11-3.244zM69.636 247.572c.592 2.301-.111 3.5-5.229 8.983-3.21 3.49-5.92 6.682-5.922 7.182-.002.5-.705 1.697-1.609 2.695-.903.997-2.21 3.493-2.917 5.59-.808 2.498-2.012 3.894-3.313 4.09-1.3.196-3.007 2.19-4.718 5.785-1.41 2.996-3.017 5.391-3.417 5.39-.3-.001-1.404 1.195-2.309 2.693-3.015 5.09-11.34 13.164-14.243 13.855l-2.802.691.514-4.398c.718-5.998 4.045-14.588 7.158-18.578 1.405-1.696 2.611-3.592 2.613-4.092 0-.4 1.405-1.795 3.11-3.09 1.603-1.195 3.41-3.29 3.914-4.688.604-1.398 1.808-2.394 3.008-2.39 1.1.003 2.001-.594 2.004-1.394.002-.8 1.408-2.596 3.012-3.89 1.705-1.395 3.01-2.891 3.01-3.391.002-.4.905-1.397 2.007-2.094 1.103-.697 2.006-1.894 2.009-2.694.002-.8.305-1.499.805-1.497.4 0 2.505-1.792 4.712-3.985 4.614-4.586 7.515-4.877 8.603-.773zm385.09 3.407c1.995 1.706 3.889 3.812 4.186 4.713.297.8 2.586 4.608 5.074 8.416 2.488 3.708 4.477 7.114 4.476 7.514 0 .4 1.593 2.405 3.486 4.41 1.894 2.107 3.487 4.312 3.485 5.012-.002.8.694 1.902 1.491 2.604.898.703 2.192 2.707 2.987 4.41 2.285 4.707 8.963 11.728 10.765 11.134 1.802-.795 9.673 8.53 9.664 11.43-.003 1.1.493 2.101.993 2.103.6.002.999.603.997 1.203-.002.7 1.39 3.305 2.981 5.81 1.593 2.505 2.983 5.709 2.978 7.209-.005 1.5.49 3.001.99 3.303.598.402.796 1.003.495 1.502-.302.499-.104 1.1.495 1.501.5.302 1.693 2.305 2.587 4.308.893 2.003 2.88 6.51 4.469 9.914 1.589 3.405 2.879 6.71 2.877 7.31-.002.7.592 2.601 1.386 4.304 4.966 10.915 6.252 15.52 6.427 23.22.087 4.4.375 8.201.574 8.502.199.3.591 2.802.983 5.403.292 2.601 1.081 6.003 1.877 7.406.695 1.502 1.686 4.205 2.08 6.107.395 1.9 1.585 4.805 2.58 6.508.995 1.703 2.88 6.209 3.968 10.112 1.189 3.804 2.478 7.208 2.777 7.509 1.895 1.606 3.972 8.812 4.65 15.915.673 8.602-.036 11.4-3.948 15.387-1.605 1.595-1.71 3.095-1.142 13.497.561 12.202 2.048 16.306 6.244 17.72 2.298.707 8.666 10.827 7.165 11.322-.601.198-1.103.896-1.105 1.496-.002.7-1.111 3.497-2.42 6.193-2.215 4.893-2.317 5.493-1.46 18.995.477 7.702 1.038 20.104 1.215 27.504.276 7.401.645 17.302.83 22.003.373 9.001-.95 15.897-3.152 16.69-1.601.595-4.292-2.513-4.085-4.713.203-.799-.093-2.1-.59-2.901-.498-.802-.99-3.504-1.082-6.004-.092-2.5-.483-5.501-.88-6.603-.396-1.1-1.388-3.604-2.082-5.506-1.19-3.004-2.166-10.707-2.733-21.509-.094-1.7-.489-3.501-.787-4.002-.398-.602-1.19-3.504-1.88-6.506-.69-3.002-2.28-6.407-3.376-7.51-1.197-1.105-2.192-2.708-2.29-3.508-.29-3.101-2.872-8.61-4.866-10.515-1.197-1.104-2.39-3.008-2.787-4.31-.396-1.3-2.088-3.906-3.782-5.711-1.694-2.005-2.886-4.41-2.682-5.708.104-1.3-.09-3-.388-3.802-1.786-4.505-3.666-10.811-3.66-12.611.002-1.1-.891-2.903-1.988-3.907-1.197-1.003-1.792-2.505-1.59-3.205.302-.699.104-1.5-.395-1.8-.598-.403-.993-2.104-.988-3.804.006-1.8-.687-4.002-1.384-4.904-.797-1.103-1.188-4.004-.976-7.803.11-3.3-.18-6.3-.68-6.602-.598-.302-.695-1.403-.392-2.402.303-.999.107-2.1-.492-2.501-.499-.302-.996-1.403-.992-2.403.003-1-.693-2.403-1.49-3.105-.798-.703-1.493-2.605-1.487-4.305.013-4.1-3.942-18.612-5.932-21.718-1.891-2.906-4.265-11.214-4.452-15.514-.091-2.6-2.968-10.01-4.463-11.515-.698-.702-1.087-4.403-1.552-15.504-.656-13.903-.55-16.202 1.097-30.997.823-7.398 1.043-13.497.544-14.099-.498-.601-.595-1.302-.294-1.7.3-.3-.095-1.6-.891-2.903-.796-1.203-1.784-5.206-2.072-8.807-1.067-10.703-1.363-12.104-2.957-13.91-.897-1.002-1.592-2.504-1.59-3.404.004-.9-.393-1.901-.992-2.203-.5-.302-.996-1.404-.993-2.404.003-1-.892-2.602-2.088-3.706-1.197-1.004-3.385-4.71-4.875-8.115-1.59-3.405-3.778-6.812-4.876-7.516-1.198-.703-2.095-1.806-2.092-2.506.002-.6-1.49-3.105-3.283-5.51-4.98-6.616-10.152-15.233-9.85-16.232.202-.399-.494-1.701-1.39-2.704-1.396-1.504-1.394-2.104-.39-3.401 1.706-1.995 4.503-1.086 9.19 2.929zm-172.69-2.942c-.302.5-1.104.997-1.604.995-.6-.002-.698-.502-.397-1 .302-.6 1.103-.997 1.603-.996.6.002.699.402.397 1.001zm.993 2.003c-.302.5-1.403.996-2.303.993-1.5-.005-1.5-.204-.197-1 2.004-1.294 3.304-1.29 2.5.008zm-209.03 9.145c.196 1.2-.007 2.4-.408 2.699-1.002.497-2.087-4.107-1.285-5.004.803-.698 1.2-.096 1.693 2.305zm57.474 8.58c-.001.4 1.695 1.606 3.791 2.712 4.693 2.415 8.182 5.726 8.176 7.826-.004 1.2-16.56 19.048-23.179 25.028-3.31 2.89-6.62 6.079-14.545 14.354-4.515 4.686-8.928 8.772-9.829 9.07-.9.396-1.604 1.294-1.606 2.094-.007 2.2-3.814 4.388-8.716 5.173-5.603.882-8.096-1.525-8.974-8.428-.486-4.402-.182-5.7 2.231-9.893 1.608-2.595 4.821-6.685 7.228-8.978 2.407-2.292 4.315-4.586 4.316-5.086.002-.5 2.712-3.692 6.023-7.181 3.31-3.49 6.02-6.682 6.022-7.182.001-.4.603-.798 1.303-.895.6.002 2.906-1.891 4.913-4.185 8.932-9.972 10.838-12.166 10.84-12.966.002-.4 1.103-.697 2.303-.693 1.3.004 3.503-.989 4.807-2.285 2.107-2.093 2.607-2.192 3.703-.788.597.802 1.194 1.803 1.193 2.303zm150.996 1.374c-.003 1 .394 1.901.794 1.902.5.002.898.803.995 1.703.092 2.3-2.833 10.292-3.733 10.289-.4-.001-2.797-.709-5.295-1.617-3.696-1.211-4.893-2.215-5.685-4.618-2.577-7.308.033-10.5 7.831-9.975 4.2.313 5.098.716 5.093 2.316zm232.497 1.329c7.493 2.223 9.59 3.43 13.777 7.243 3.39 3.21 4.978 7.115 2.878 7.109-.5-.002-.902.597-.904 1.197-.002.7-.307 2.4-.811 3.697-.607 2.099-.508 2.299 1.294 1.905 2.402-.693 5.192 2.316 5.182 5.516.097 1.2.69 3.302 1.486 4.705.795 1.402 1.39 3.404 1.486 4.404-.003 1.1.591 2.702 1.389 3.505.697.902 1.586 4.405 1.976 7.806.582 5.502.48 6.301-1.323 7.196-2.805 1.49-7.104 1.377-7.1-.223.003-.7-1.29-3.104-2.983-5.309-1.593-2.105-2.986-4.41-2.984-5.11.005-1.6-3.277-7.31-4.177-7.312-.5-.002-.797-1.003-.793-2.303-.096-1.2-.79-3.102-1.786-4.206-1.893-2.306-9.082-6.028-9.884-5.13-1.305 1.295-8.681-6.128-10.766-10.934-4.767-10.715-5.258-13.417-2.652-15.309 2.005-1.593 8.803-.972 16.695 1.553zm-311.034 10.325c2.197 1.107 4.994 2.015 6.194 2.02 1.3.003 2.299.406 2.297.906-.002.5 1.496 1.405 3.194 2.01 2.896 1.01 3.397.911 5.003-1.084 1.004-1.297 1.806-1.894 1.804-1.294-.005 1.6 4.79 3.515 5.394 2.117.301-.6 1.5.104 2.994 1.809 3.288 3.91 8.787 4.228 13.397.842 3.609-2.689 4.208-2.487 5.694 2.118.594 1.902 1.79 3.305 2.988 3.61 1.1.203 2.198.606 2.497 1.007.3.301 2.096 1.407 4.093 2.413 1.996 1.106 4.09 2.913 4.687 4.215.894 1.902 8.28 6.526 10.58 6.533.8.003 1.597.605 7.58 6.024 2.393 2.207 4.888 4.015 5.588 4.017.6.002 1.797.706 2.495 1.608.697.902 3.79 3.312 6.883 5.422 4.19 2.913 7.087 4.022 11.486 4.536 5.097.716 6.495 1.42 9.885 4.63 2.093 2.207 4.188 3.914 4.488 3.915.3 0 1.896 1.106 3.392 2.51 1.994 1.907 2.689 3.509 2.68 6.309-.014 4.5-1.618 5.695-8.72 6.672-5.503.683-9.3-.529-9.291-3.029.003-.8-1.195-1.703-2.694-2.008-1.599-.405-3.798-.812-4.997-1.116-1.199-.204-3.593-2.011-5.387-3.917-1.894-1.906-3.99-3.512-4.69-3.514-1.7-.005-5.391-2.617-10.676-7.434-2.094-2.007-4.589-3.614-5.489-3.617-.8-.002-2.097-.907-2.793-2.009-.697-1.202-1.695-1.805-2.196-1.507-.601.398-3.594-1.711-6.686-4.52-3.19-2.81-6.384-4.92-7.285-4.724-.8.098-3.498-.71-5.894-2.018-2.395-1.308-5.192-2.316-6.092-2.32-1-.002-2.798-.808-4.095-1.812-3.291-2.61-5.889-3.519-9.588-3.73-3.6-.211-6.294-2.02-6.287-4.22.003-.8-.396-1.201-.897-.803-.501.299-1.2.096-1.599-.505-.298-.5-1.497-1.004-2.697-1.008-1.2-.004-2.197-.807-2.493-2.008-.494-1.902-.694-2.002-2.299-.507-1.604 1.395-1.804 1.394-2.199-.307-.593-2.102-10.276-7.632-11.779-6.737-.601.398-1-.003-.997-.803.006-1.9-3.584-5.111-4.887-4.316-1.302.796-3.39-3.11-2.684-5.008.806-1.997 5.505-1.683 10.098.632zm229.13 22.718c1.893 2.206 4.087 4.013 4.887 4.015.8.003 1.4.405 1.398.805-.001.4 1.691 2.705 3.785 4.912 6.776 7.62 8.17 9.525 8.165 11.025-.003.9 1.388 3.805 3.08 6.41 1.691 2.705 2.783 5.309 2.382 5.807-.302.6.093 2.1.79 3.303.795 1.302 1.787 4.106 2.18 6.207.293 2.2 1.783 5.405 3.177 7.31 1.394 1.804 2.289 3.607 1.988 3.906-.803.798 2.871 9.11 4.865 11.115.797.903 1.392 2.405 1.09 3.304-.203.9.192 2.5.889 3.503.797 1.002 1.39 3.004 1.386 4.304-.004 1.4.888 3.903 1.982 5.706 1.094 1.904 1.888 3.906 1.786 4.606-.202.7.694 1.802 1.992 2.406 2.197 1.007 3.09 3.51 1.29 3.504-1-.003-.917 5.297.174 8.2 1.388 3.605 1.883 5.407 2.275 7.808.296 1.4 1.283 5.604 2.27 9.507 3.262 12.21 4.049 16.413 4.035 21.013-.008 2.5.58 6.102 1.374 8.004.794 1.903 1.482 6.005 1.472 9.205-.01 3.2.672 8.702 1.461 12.305.889 3.602 1.575 8.105 1.569 10.004-.006 1.9.686 4.303 1.483 5.405.996 1.303 1.092 2.404.488 3.602-1.005 1.897-.223 7.399 3.033 21.51.986 4.402 1.966 10.906 1.955 14.506.088 3.6.671 9.002 1.362 12.004 1.379 6.704.805 30.303-.793 29.698-.3-.101-1.703.794-3.107 2.09-1.905 1.794-3.106 2.09-5.305 1.583-1.598-.405-3.395-1.41-4.092-2.313-1.494-1.904-1.671-9.305-.357-13.9.505-1.7.61-3.199.11-3.2-.9-.004-1.789-3.506-2.37-9.508-1.161-12.304-1.843-18.106-2.44-19.008-.299-.6-.591-3.002-.683-5.502-.092-2.5-.286-4.5-.386-4.501-.1 0-.397-1.101-.592-2.502-.196-1.4-.98-6.703-1.863-11.906-1.277-7.304-1.369-10.004-.463-11.901.907-2.198.81-2.798-1.384-5.105-2.192-2.307-2.588-3.808-3.06-12.61-.383-5.5-1.064-11.403-1.66-13.005-1.386-4.304-2.856-14.009-3.332-21.51-.38-6.301-1.764-11.506-5.14-19.016-.794-1.903-1.585-4.905-1.68-6.606-.094-1.7-.588-3.702-.986-4.403-.398-.701-.99-2.903-1.185-4.904-.39-3.3-1.282-5.604-6.347-16.92-.992-2.303-1.884-4.906-1.881-5.806.003-.8-1.784-5.205-3.97-9.712-2.286-4.507-4.764-11.515-5.551-15.618-.787-4.002-1.875-8.105-2.372-9.007-.397-.901-1.589-3.605-2.58-6.108-.993-2.503-2.086-4.707-2.485-5.008-.299-.3-1.392-2.704-2.383-5.307-.992-2.604-2.185-5.007-2.684-5.309-2.994-1.91-7.245-17.523-5.635-20.618 1.408-2.695 2.907-2.19 6.593 2.221zm-245.732 9.73c-.008 2.6-1.41 3.295-2.504 1.492-.896-1.403.112-4 1.512-3.995.5.002.997 1.103.992 2.503zM40.052 338.079c.688 3.802.583 5.202-.216 4.9-1.298-.404-2.77-9.61-1.865-11.106.804-1.198.903-.797 2.08 6.206zm505.005-1.017c-.706 1.898-3.41 3.19-5.307 2.384-1.399-.505-1.497-.905-.494-2.102 1.506-1.795 6.307-1.98 5.801-.282zm-431.93 8.846c2.195 1.707 4.293 2.314 6.694 2.221 1.9-.194 3.4.011 3.399.311-.01 2.8 11.365 11.136 15.265 11.148.8.003 2.397.907 3.693 2.011 1.297 1.105 3.494 2.011 4.894 2.016 1.5.005 3.098.81 3.794 1.912.697 1.102 2.593 2.208 4.292 2.613 1.599.405 2.997 1.11 2.995 1.61-.002.5 1.097.903 2.497.908 1.5.005 2.498.607 2.495 1.507-.006 1.9 3.09 3.51 6.89 3.522 1.6.005 3.298.41 3.596 1.011.299.501 1.497 1.005 2.597 1.008 1 .003 1.899.406 1.897 1.006-.002.5.797 1.003 1.797 1.006.9.003 2.797.909 4.194 2.013 1.396 1.105 3.793 2.012 5.293 2.017 1.6.005 3.498.71 4.296 1.513.797.803 3.794 1.712 6.493 2.12 3.099.41 5.795 1.519 6.892 2.622.996 1.103 2.294 1.707 2.895 1.41.502-.4 3.499.51 6.694 2.02 3.595 1.612 6.693 2.421 8.393 2.127 1.802-.395 3.5.11 5.595 1.817 2.094 1.707 3.693 2.212 6.094 1.82 2.201-.394 4.4.113 6.995 1.721 1.996 1.206 6.392 2.62 9.69 3.13 3.198.61 6.795 1.622 7.992 2.426 1.098.803 3.396 1.51 5.096 1.516 1.6.005 5.397.917 8.393 2.026 2.897 1.209 6.095 1.819 6.996 1.522.9-.297 2.599.208 3.696 1.011.998.804 3.096 1.51 4.496 1.515 4.5.014 5.889 3.518 5.854 14.618-.024 7.7-.432 10.099-1.736 11.595-1.907 2.194-5.008 2.284-8.902.372-1.597-.805-4.894-1.716-7.394-1.923-2.499-.308-5.297-.817-6.296-1.22-.899-.403-2.298-.507-3.1-.21-.7.298-2.399-.107-3.596-1.011-1.198-.804-4.095-1.713-6.494-1.92-2.4-.208-6.096-1.32-8.292-2.427-2.297-1.207-4.894-2.015-5.894-1.918-1.001.197-3.1-.41-4.796-1.315-1.598-.805-4.394-1.914-6.193-2.22-1.8-.405-4.995-1.615-7.192-2.722-2.197-1.007-5.294-2.017-6.793-2.221-1.5-.205-3.797-.912-4.995-1.516-1.198-.704-2.997-1.21-4.097-1.213-1.1-.003-2.198-.607-2.495-1.408-.298-.7-1.995-1.606-3.894-2.012-1.799-.306-4.596-1.314-6.293-2.22-2.995-1.61-7.99-3.225-12.288-3.838-1.2-.204-3.096-1.11-4.094-2.013-.897-.903-3.195-1.61-4.895-1.615-1.8-.006-3.198-.41-3.197-.91.002-.5-.796-1.203-1.895-1.606-.999-.304-3.094-1.71-4.49-3.014-1.496-1.305-3.592-2.612-4.892-2.816-1.199-.204-3.496-1.01-5.194-1.916-5.49-2.817-7.49-3.124-7.496-1.124-.004 1.2-.602.698-1.595-1.505-.895-1.702-2.39-3.207-3.29-3.21-.8-.003-3.797-1.112-6.593-2.42-2.696-1.31-5.691-2.719-6.49-3.021-.8-.303-2.197-1.007-2.996-1.51-2.695-1.608-15.077-7.147-16.077-7.15-.5-.002-2.297-1.007-3.893-2.212-1.597-1.105-4.393-2.214-6.193-2.32-4.2-.313-10.309 2.768-12.52 6.261-.904 1.497-3.214 4.39-5.02 6.485-3.312 3.69-3.614 4.488-3.426 8.189-.005 1.5-.105 1.6-.701.498-.398-.802-1.695-1.606-2.895-1.71-1.8-.205-2.402.493-3.21 3.19-.506 1.899-2.716 5.092-4.823 7.186-2.206 2.093-4.314 4.586-4.617 5.485-.403.999-1.305 1.796-2.005 1.794-.8-.003-1.904 1.194-2.609 2.592-.704 1.497-1.707 2.394-2.506 2.092-.8-.303-3.606 1.788-6.716 4.979-5.819 5.982-16.548 15.248-17.748 15.244-.4 0-1.799-.305-3.097-.71-2.099-.506-2.297-1.007-1.784-5.105.307-2.5 1.216-5.096 2.117-5.694.903-.697 1.606-1.895 1.61-2.795.002-.8 2.315-4.892 5.027-8.984 2.813-4.091 5.027-8.384 5.03-9.484.004-1.1 1.008-2.597 2.311-3.493 3.508-2.389 24.373-23.124 25.079-25.021.403-1 1.606-1.995 2.707-2.292 1.1-.297 2.003-.894 2.004-1.394.004-1.2 5.319-5.883 6.719-5.879.7.002 1.302-.896 1.306-1.996.006-1.8 5.319-6.083 9.824-7.769.901-.297 2.505-1.592 3.51-2.889 1.003-1.297 2.807-2.291 4.007-2.387 1.2.004 3.603-.889 5.206-1.884 4.007-2.387 4.507-2.386 8.399.426zm-71.101.477c.995 1.604.992 2.404.089 3.5-1.506 1.796-2.906 1.792-2.9-.108.003-.8.505-1.499 1.205-1.497.9.003.9-.297.004-1.2-.698-.702-1.195-1.603-1.194-2.003.005-1.5 1.502-.796 2.796 1.308zm390.398 33.124c6.393 2.02 11.68 6.337 11.67 9.437-.003.8.89 3.403 2.081 6.007 1.092 2.603 2.183 5.707 2.479 6.907 1.476 7.505 2.35 15.808 2.818 26.21.284 4.9.966 10.802 1.659 13.005 1.681 5.905 1.1 32.103-.814 36.197-4.831 10.085-13.33 9.459-24.394-1.876-3.29-3.31-6.278-7.02-6.674-8.221-.296-1.201-1.389-3.605-2.384-5.208-3.78-6.412-10.03-22.531-10.12-25.631.007-1.9-.782-5.703-1.773-8.406-1.288-3.804-1.58-6.305-.967-10.503.41-2.999.618-5.798.42-6.199-.697-1.102 3.837-12.188 5.24-13.084.702-.397 1.507-2.095 1.912-3.694.405-1.698 1.11-2.996 1.61-2.995.4.001 1.704-1.494 2.61-3.391 1.609-2.895 7.333-10.577 7.933-10.576.1 0 3.097.91 6.694 2.021zm-107.967 21.062l2.593 2.308-2.306 1.993c-2.508 2.392-4.107 2.087-7.896-1.525-2.592-2.408-2.691-2.708-1.086-4.403 2.107-2.294 5.206-1.784 8.695 1.627zm-208.956 17.445c4.287 4.214 4.282 5.814.469 10.202-1.606 1.795-3.012 3.79-3.014 4.29-.002.5-1.104 1.197-2.505 1.592-1.3.296-2.904 1.191-3.606 1.99-.603.797-1.805 1.394-2.605 1.391-1.8-.006-.986-4.303 1.834-10.694 1.107-2.297 1.917-5.394 1.922-6.894.007-2.1 2.216-5.193 3.816-5.388.1 0 1.795 1.605 3.69 3.511zm63.588 4.2c3.798.511 12.889 3.44 16.184 5.15 1.597.705 4.295 1.414 5.995 1.42 1.8.005 4.297.913 5.694 2.017 1.396 1.104 3.694 2.012 5.094 2.016 1.5.005 3.197.71 3.895 1.512.697.802 2.495 1.508 4.095 1.513 1.5.005 3.099.51 3.397 1.11.398.602 1.397.805 2.198.508.801-.298 2.9.209 4.597 1.114 1.797.906 3.895 1.612 4.595 1.414.8-.097 2.099.507 2.796 1.41.697 1.001 1.895 1.505 2.796 1.108.901-.297 3.299.51 5.295 1.717 1.996 1.306 4.493 2.114 5.494 1.917 1-.197 4.397 1.014 7.591 2.724 3.195 1.61 7.99 3.525 10.687 4.233 2.698.709 5.495 1.717 6.193 2.22 1.197 1.003 9.292 2.629 14.89 3.046 1.2.104 2.5.508 2.898.91.398.5 1.598.804 2.598.807 1 .003 1.798.406 1.797.906-.002.5 1.396 1.204 2.995 1.61 1.698.405 2.996 1.109 2.995 1.609-.002.5.897.903 1.997.906 1 .003 4.498.714 7.695 1.624 3.197.91 6.894 1.722 8.194 1.926 1.3.204 4.995 1.616 8.19 3.126 4.393 2.113 6.089 3.619 6.982 5.822 2.181 5.906 4.369 9.813 5.867 10.418 1.798.706 5.883 5.418 5.979 6.819-.002.6 1.387 4.004 3.176 7.51 2.882 5.809 3.177 7.41 3.448 16.81.082 5.7-.235 11.2-.839 12.198-1.307 2.496-8.417 5.474-13.718 5.757-2.4.093-5.301.484-6.503.98-1.201.396-3.501.489-5.2.083-1.6-.305-4.2-.313-5.6.083-1.402.395-3.902.488-5.501.183-1.6-.305-6.298-.62-10.397-.833-10.1-.432-20.692-2.865-23.084-5.272-3.49-3.411-3.474-8.211.049-15.6 1.711-3.595 3.122-6.99 3.123-7.39.001-.4 1.306-1.996 2.81-3.392 2.609-2.492 2.81-3.091 2.737-11.691.016-5-.37-9.401-.769-9.803-.399-.4-.695-1.602-.692-2.602.008-2.4-6.88-6.621-12.177-7.438-4.798-.615-6.296-1.12-16.084-4.95-3.696-1.412-7.292-2.523-7.993-2.426-.6.099-1.9-.006-2.699-.308-2.996-1.11-9.591-2.63-13.99-3.344-2.498-.308-5.496-1.117-6.694-1.72-1.298-.605-3.598-.712-5.999-.32-2.101.494-4.602.686-5.502.583-1.2-.104-1.8.394-1.805 1.594-.009 3 2.087 4.307 6.587 4.321 2.4.008 4.499.414 4.797.915.298.501 1.498.705 2.499.408 1.1-.297 2.798.409 3.995 1.612 1.196 1.204 2.594 1.909 2.995 1.61 1.602-.895 4.086 4.313 4.172 8.713.093 2.4-.62 6.698-1.53 9.695s-1.627 8.695-1.64 12.595c-.02 6.6-.222 7.3-2.828 9.191-2.205 1.593-4.007 1.988-9.706 1.77-8.399-.327-13.096-1.341-14.59-3.146-.598-.802-1.796-1.406-2.596-1.408-2-.006-11.69-3.237-12.287-4.139-.697-.902-8.09-2.925-8.992-2.428-.702.398-1.9-.406-6.686-4.52-.699-.503-1.897-1.007-2.697-1.01-.8-.002-1.798-.505-2.097-1.006-.298-.6-1.697-1.005-3.097-1.01-3.3-.01-7.186-4.322-7.972-8.925-.882-5.602-2.273-8.707-5.463-11.817-3.688-3.711-4.069-9.913-.565-11.202 2.503-.992 10.73-9.466 10.735-11.066.002-.5.703-.998 1.503-.995.8.003 1.501-.396 1.503-.896.003-1 6.122-7.08 9.43-9.37 1.403-1.096 1.706-1.995 1.114-4.597-.789-3.702-7.765-11.124-10.465-11.133-1.9-.006-3.392-2.61-2.387-4.207.301-.5 1.302-.596 2.3-.293.9.403 2.798.809 4.198 1.013zm-19.224 7.44c-.003.9-.601.397-1.397-1.005-1.89-3.306-1.884-4.906.008-2.4.797 1.002 1.392 2.604 1.39 3.404zm-16.996-1.254c2.495 1.608 5.79 3.218 7.389 3.623 1.998.507 2.696 1.309 2.69 3.109-.004 1.3-.408 2.598-.91 2.997-.6.298-2.008 2.594-3.215 4.99-1.208 2.496-2.614 4.492-3.114 4.49-.4 0-.802.698-.805 1.498-.003.8-.305 1.499-.805 1.497-1.2-.004-18.854 17.241-19.56 19.139-.303.999-1.205 1.796-1.805 1.794-1.1-.003-20.761 19.435-31.498 31.202l-5.318 5.783-2.59-3.408c-2.39-3.108-2.586-4.208-2.558-13.308.036-11.6.645-14.398 3.045-14.39 1 .002 2.304-1.294 3.01-2.991.705-1.598 1.508-2.796 1.908-2.594.997.703 12.833-10.76 13.541-13.158.403-1.099 1.607-2.195 2.708-2.492 1.1-.296 2.707-2.291 3.714-4.588.907-2.197 2.213-4.093 2.713-4.091.6.002 5.916-4.982 11.934-10.963 6.722-6.78 11.635-10.964 12.835-10.96 1.2.004 4.196 1.313 6.691 2.821zM31.8 450.554c-.006 2.1-.106 2.1-.9.197-1.192-2.804-1.189-3.704.009-3 .599.302.995 1.603.891 2.803zm4.065 11.313c-.003.8-.404 1.199-1.003.897-.5-.302-.997-1.003-.995-1.603.001-.5.503-.899 1.003-.897.6.002.997.703.995 1.603zm17.895 33.456c-.002.5-.203 1-.403.999-.3-.001-.799-.503-1.097-1.004-.298-.6-.097-1 .403-.998.6.002 1.099.403 1.097 1.003zm72.578 7.128c-.903.997-1.607 2.295-1.61 2.995-.002.6-.604 1.398-1.305 1.696-1.902.694-1.415 4.795.584 5.201 1 .203 1.7-.294 1.704-1.194.005-1.5.705-1.798 4.806-1.885 1.7.005 9.29 3.129 14.481 5.945 6.888 3.822 8.386 4.426 11.286 4.436 1.7.005 3.698.711 4.395 1.513 1.893 2.306 11.58 6.537 14.98 6.547 1.6.005 4.096 1.113 5.692 2.418 3.79 3.212 8.187 4.326 9.393 2.53.703-1.098.903-1.098.899.202-.01 2.8 6.678 7.121 11.776 7.637 2.6.309 4.997.916 5.295 1.517 1.294 2.004 4.9-.185 5.01-2.984.007-2.3.306-2.1 1.695 1.505 1.487 4.105 2.785 4.909 6.886 4.422.6-.098 1.4.304 1.797.905.299.501 1.697 1.006 2.897 1.01 1.3.003 3.397.91 4.794 2.014 1.596 1.205 2.795 1.61 3.397 1.011.903-.897 5.5.117 9.593 2.13.999.503 2.797.909 4.097.913 1.3.004 2.6.308 2.898.61.4.3 3.898.811 7.897 1.024 4.1.313 7.797.924 8.296 1.426 1.495 1.505 3.596 1.211 3.601-.489.006-2 .706-1.898 3.597.911 1.895 1.706 3.494 2.211 6.194 2.02 2-.094 4.2.213 4.798.715.698.502 2.697.908 4.598.714 2.2-.093 4.498.614 6.493 2.02 1.697 1.206 4.194 2.214 5.493 2.218l4.3.013c8-.075 15.593 2.55 17.482 6.055.695 1.302.887 3.903.478 6.802-.408 2.598-.62 6.598-.628 8.998.28 6.6-.922 7.097-12.318 5.861-2.2-.307-5.2-.116-6.801.279-1.502.495-3.002.49-3.3-.01-.199-.401-3.097-1.11-6.196-1.52-3.198-.41-6.995-1.322-8.493-2.126-1.797-1.006-4.096-1.213-6.797-.822-2.302.393-5.101.184-6.3-.42-2.296-1.107-9.59-2.73-10.992-2.434-.4.099-2.198-.407-4.096-1.213-1.997-.806-3.897-1.012-4.798-.515-1.503.795-6.3-.22-9.894-2.13-.898-.504-2.498-.609-3.598-.412-1.101.296-2.5-.208-3.197-1.01-.797-.903-2.195-1.607-3.195-1.61-1-.003-2.098-.507-2.397-1.008-.398-.601-2.298-.707-4.499-.414-3.401.59-8.496-1.126-10.988-3.634-.3-.301-1.998-.607-3.898-.813-1.8-.105-4.197-.913-5.295-1.616-.997-.803-2.796-1.109-3.897-.912-1.1.296-2.7-.109-3.697-.912-.897-.903-3.393-2.11-5.391-2.817-2.098-.606-3.795-1.612-3.794-2.112.002-.5-.797-.902-1.897-.906-1-.003-3.498-.71-5.595-1.517-1.997-.907-4.496-1.314-5.397-1.017-1 .297-2.4-.108-3.097-1.01-.697-.802-1.795-1.506-2.395-1.507-1.5-.005-8.389-3.527-10.483-5.433-1.496-1.405-4.996-1.416-8.1-.226-1 .397-1.898-.306-2.792-2.308-.795-1.703-2.789-3.61-4.986-4.616-1.997-.906-4.493-2.014-5.492-2.617-.998-.503-2.197-.707-2.698-.409-.501.299-1.5-.304-2.196-1.307-.697-1.002-2.593-2.308-4.29-3.013-1.599-.705-3.793-2.612-4.688-4.215-1.093-2.003-2.49-3.008-4.09-3.013-1.2-.004-2.799-.508-3.496-1.21-1.296-1.305-4.704 1.185-5.714 4.281-.303 1-1.205 1.597-1.904 1.294-.799-.302-2.203.894-3.409 2.79-1.205 1.796-3.313 4.19-4.716 5.285-1.503.995-3.512 3.59-4.618 5.686-1.107 2.096-2.412 3.792-3.112 3.79-1.5-.005-4.813 3.985-4.818 5.885-.007 2-3.216 4.89-6.318 5.58-1.301.396-4.808 2.585-7.816 5.076-4.411 3.586-6.114 4.38-9.514 4.37-3.8-.012-4.199-.313-4.69-2.915-.69-3.402.02-6.8 2.331-10.093.904-1.397 2.01-3.293 2.314-4.292.403-1.1 1.606-2.095 2.707-2.392 1.101-.296 1.803-.894 1.504-1.295-.199-.3.907-2.197 2.513-4.092 1.606-1.895 2.912-3.791 3.014-4.391.001-.5.905-1.797 1.91-2.994 4.213-4.287 8.024-8.075 11.033-10.765 1.705-1.595 3.412-3.99 3.717-5.289.505-1.898.906-2.197 1.904-1.394.997.803 1.799.306 3.506-1.989 1.205-1.596 2.509-2.792 2.908-2.59.4.3 3.107-2.191 6.018-5.482 2.91-3.19 5.918-5.881 6.718-5.879.7.002 1.803-.894 2.406-1.992 1.408-2.596 5.822-6.982 7.022-6.978.6.002 1.503-.896 2.206-1.994 1.207-1.996 1.306-1.895 1.597 1.105.194 1.801-.312 3.8-1.215 4.797zm150.086 4.77c-.303.8-.602.498-.598-.602-.097-1.1.205-1.7.504-1.298.299.3.396 1.201.094 1.9zM152.4 513.832c-.302.8-.601.498-.598-.601-.096-1.1.206-1.7.504-1.299.3.301.397 1.201.094 1.9zm436.493 2.869c2.194 2.006 2.192 2.706.186 4.7-2.207 2.293-3.307 1.99-4.397-1.014-.694-1.902-.69-3.102.112-4 1.506-1.795 1.906-1.793 4.1.314zm-503.24 12.122c0 .3-.402.799-1.003 1.097-.501.299-1 .097-1-.403.003-.6.504-1.098 1.004-1.097.6.002 1 .203.999.403zm127.393 2.5c.297.8.095 1.5-.405 1.498-.6-.002-.998-.703-.995-1.503.003-.8.205-1.5.405-1.499.2 0 .597.702.995 1.504zm-93.41 3.207c-.003.5-.404.999-1.004.997-.5-.002-.998-.504-.997-1.003.002-.6.503-.999 1.003-.997.6.002 1 .403.997 1.003zm122.076 7.682c-1.003.897-1.103.797-.498-.601.303-1 .904-1.497 1.203-1.196.3.3-.003 1.1-.705 1.797zm.891 2.703c-.002.5-.203 1-.403.999-.3 0-.798-.502-1.097-1.003-.298-.601-.097-1 .403-1 .6.003 1.1.404 1.097 1.004zm-130.326 8.292c-.205 1.6-.402.499-.394-2.201.01-2.8.213-4 .41-2.8.195 1.301.188 3.501-.016 5zm31.86 12.8c.297.8.392 2.401.188 3.6-.205 1.7-.504 1.399-1.395-1.404-.99-3.403.016-5.3 1.207-2.196zm7.987 4.125c.097.8-.204 1.3-.703.898-.499-.302-.896-1.203-.893-2.103.006-1.9 1.302-.896 1.596 1.205zm-65.308 2.295c.297 1.101.094 2-.406 1.999-.5-.002-.897-.903-.894-2.003.004-1.1.207-2 .407-1.999.2 0 .597.902.893 2.003zm-23.019 6.128c-.813 4.097-2.01 3.394-1.497-.805.206-2 .81-3.197 1.208-2.696.499.402.594 2.002.289 3.501zm53.007-2.034c.296 1.101.094 1.8-.405 1.399-.499-.302-.896-1.203-.893-2.003.006-2 .705-1.698 1.298.604zm123.368 10.387c2.597.708 5.294 1.716 5.993 2.219.698.602 1.698.705 2.299.307.601-.398 1.9.006 2.897.909.897.803 3.494 1.81 5.593 2.218 2.2.306 5.196 1.216 6.694 2.02 1.497.805 3.295 1.41 4.095 1.413.8.003 3.195 1.81 5.488 4.018 2.492 2.507 4.987 4.015 6.487 4.02 2 .006 2.698.608 3.19 3.11.395 1.901.188 4.1-.517 5.498-1.206 2.097-1.907 2.294-6.406 1.98-3.299-.31-7.095-1.522-10.789-3.534-4.692-2.614-6.09-3.019-7.793-2.124-1.102.597-2.005 1.394-2.006 1.794-.005 1.7 2.59 3.208 5.49 3.217 1.6.005 4.097.913 5.494 2.017 1.396 1.105 3.393 2.01 4.493 2.014 1.1.003 2.898.71 3.896 1.512 1.097.804 2.695 1.509 3.695 1.512 2.3.007 2.894 2.01 2.869 10.01-.012 3.8.377 7.1.876 7.402.5.301 1.192 2.604 1.484 5.105.393 2.5 1.384 5.104 2.182 5.906.797.803 1.393 2.105 1.391 2.805-.003.8 1.293 2.404 2.989 3.61 3.492 2.61 4.58 6.114 2.97 9.209-.904 1.697-.807 2.597.486 4.701 2.389 3.608 1.288 3.804-2 .294-2.891-3.11-6.289-3.82-8.195-1.926-.702.698-2.802.591-6.898-.522-3.298-.81-7.895-1.624-10.395-1.732-2.5-.108-5.098-.716-5.696-1.218-1.796-1.306-2.705 1.492-2.018 5.894.393 2.001.19 3.2-.41 2.898-.498-.401-.895-1.502-.892-2.502.005-1.7-.294-1.801-2.598-.609-2.104 1.194-3.203 1.09-7.398-.523-2.697-1.008-6.394-2.02-8.193-2.225-4.499-.514-8.693-2.428-9.387-4.23-.398-.801-1.395-1.504-2.295-1.507-.9-.003-3.797-1.112-6.393-2.42-4.593-2.314-4.893-2.315-5.898-.619-1.005 1.597-1.305 1.496-2.695-1.408-1.194-2.204-2.191-3.007-3.891-2.912-1.201.196-2.2-.107-2.198-.607.002-.5-1.792-2.806-3.984-5.213-2.193-2.407-3.984-5.312-3.98-6.312.008-2.4-3.874-8.312-5.972-9.019-.799-.402-2.097-.906-2.896-1.209-1.099-.503-1.2-.104-.706 1.698 1.683 5.405 3.451 15.71 3.44 19.41l-.113 4-.887-4.302c-.392-2.402-1.681-5.806-2.776-7.61-1.393-2.204-1.688-3.604-.986-4.302.702-.698.607-2.398-.083-5.4-.593-2.402-1.383-5.505-1.579-6.906-.493-2.301-.392-2.4.902-.697 1.395 1.705 1.495 1.605 2.002-.393.303-1.2 1.005-1.797 1.704-1.395 1.497.905 3.908-2.388 4.017-5.288.004-1.2.407-2.198.907-2.197.5.002 1.603-1.195 2.408-2.792 4.025-7.788 6.535-11.18 12.354-16.962 3.61-3.388 6.819-6.178 7.319-6.177.4.001 1.803-1.094 3.108-2.49 1.304-1.396 3.408-2.49 4.608-2.485 1.5.005 2.502-.793 3.007-2.291 1.01-3.197 2.512-3.792 5.005-1.784 1.297 1.004 4.493 2.414 7.09 3.122zm-123.01 2.814c-.302.8-.601.498-.598-.602-.096-1.1.205-1.699.504-1.298.3.3.396 1.201.094 1.9zm16.3-.049c-.001.6-.402.7-1 .397-.5-.301-.997-1.103-.996-1.603.002-.6.502-.698 1.002-.397.599.302.996 1.103.995 1.603zm5.8.419c-.302.299-.9-.203-1.197-1.204-.596-1.402-.495-1.502.502-.599.698.703.995 1.504.694 1.803zm19.7-.339c.595 1.802.794 1.903 1.799.506.703-.898 2.805-1.591 4.705-1.685 5.1-.184 15.788 3.95 17.18 6.454.596 1.201 1.692 2.605 2.39 3.007.8.403 1.394 2.204 1.288 4.004-.009 2.8-.11 2.9-.903 1.097-1.787-4.405-3.89-3.112-3.106 1.79-.002.5-.503.799-1.303.797-2-.006-2.708 2.591-1.517 5.595 1.19 3.304.486 4.301-1.105 1.496-.596-1.202-1.993-2.106-2.993-2.11-1.5-.004-2.002.695-2.01 2.995-.006 1.9-.71 3.297-2.012 3.993-1.102.597-3.21 2.89-4.616 5.186-1.407 2.196-3.414 4.29-4.514 4.486-1.001.297-1.903.794-1.904 1.194-.001.3-2.51 3.292-5.52 6.583-3.112 3.49-5.523 6.882-5.527 8.182-.005 1.5-.506 2.099-1.405 1.696-.699-.302-2.002.594-2.906 1.89-1.809 2.795-2.51 3.493-10.132 10.17-3.108 2.69-5.617 5.481-5.62 6.181-.001.8-1.105 1.897-2.507 2.493-1.402.595-2.505 1.492-2.506 1.992-.001.4-1.003.797-2.203.793-3.4-.01-5.808 2.782-4.817 5.385.396 1.301.391 2.901-.011 3.7-.704 1.098-1.004 1.097-1.5-.305-.396-.901-.492-2.201-.39-2.901.609-2.898-1.178-7.004-3.575-7.911-2.697-1.009-4.478-7.114-2.671-9.309.502-.598 1.312-3.996 1.723-7.394.41-3.4 1.32-6.696 2.123-7.394.802-.597 1.405-1.695 1.408-2.395.002-.7 1.405-1.796 3.007-2.491 2.504-.992 3.006-1.79 3.015-4.59.008-2.7.41-3.4 1.91-3.395 3 .01 7.616-4.876 10.134-10.768.604-1.298 1.908-2.594 3.01-2.89 2.502-.693 3.411-3.69 1.819-6.195-.895-1.603-.993-2.303-.09-3.2.903-.897 1.302-.596 1.895 1.506.296 1.4.892 2.603 1.292 2.604 1.3.004 10.132-10.168 10.136-11.568.006-1.8 3.117-5.39 4.717-5.386.8.003 1.304-1.196 1.31-2.996.01-3.4 1.512-3.995 2.502-.892zm-40.812 3.972c-.303.8-.602.499-.598-.601-.097-1.1.205-1.7.504-1.299.299.301.396 1.201.094 1.9zm-24.701.323c-.003.8-.504 1.198-1.003.897-.599-.402-.797-1.103-.495-1.602.904-1.397 1.503-1.095 1.498.705zm276.276 7.866c4.094 2.113 7.683 5.424 7.678 7.124-.002.7.496 1.302.996 1.303.6.002.998.603.996 1.303-.002.7 1.293 2.304 2.989 3.51 1.596 1.205 3.29 3.41 3.584 4.911.593 2.402.793 2.503 1.998.906 1.707-2.394 2.502-.692 3.178 6.81 1.066 11.004.655 14.502-2.154 17.394-3.311 3.59-4.318 5.786-5.136 11.384-.408 2.698-1.015 4.796-1.415 4.795-.4 0-1.604 1.295-2.509 2.892-1.71 2.895-5.622 7.083-12.943 13.76-2.608 2.492-4.41 3.286-7.11 3.278-1.9-.006-3.702.488-3.904 1.087-.202.7-2.604 1.392-5.305 1.584-2.8.29-5.703.982-6.506 1.78-.802.697-2.003.993-2.702.79-.6-.201-1.4.096-1.802.595-.804 1.398-5.504 1.383-5.5.083.002-.6-1.098-.803-2.499-.408-1.4.296-3.1.09-3.898-.512-.798-.703-1.797-1.106-2.198-.907-2.602.692-10.495-1.533-11.39-3.236-1.292-2.404-1.28-6.004.02-6 1.6.005 1.207-2.496-.786-4.602-.997-1.103-2.19-3.107-2.486-4.508-.494-2.101-.191-2.8 2.112-3.993 3.907-1.988 9.222-6.971 10.33-9.668.605-1.398 1.708-2.195 3.408-2.19 3.9.013 5.812-3.881 5.132-10.183-1.168-10.404-.652-15.302 1.96-18.994 2.109-3.094 2.01-3.594-1.985-5.206-1.897-.806-3.493-2.011-3.491-2.611.006-1.8 6.122-7.181 7.52-6.577.7.202 2.102-.393 3.105-1.49.903-.997 2.706-1.892 3.906-1.888 1.2.004 2.5-.292 2.802-.591.301-.4 3.502-.79 7.003-.878 3.5-.09 7.202-.678 8.304-1.274 2.705-1.592 5.004-1.485 8.698.427zm-271.3-.45c-.001.5-.203.999-.403.998-.3 0-.798-.502-1.097-1.003-.298-.601-.096-1 .404-.999.6.002 1.098.404 1.096 1.004zm9.39 3.13c1.297 1.103 2.887 4.208 3.58 6.71.591 2.602 1.682 5.706 2.278 6.907.596 1.302.792 2.503.491 2.802-.3.3-1.296-1.104-2.29-3.207-.993-2.003-2.585-4.608-3.582-5.711-1.096-1.104-1.891-2.806-1.888-3.906.003-1-.491-2.702-.988-3.803-1.392-2.505-.592-2.402 2.4.207zm-35.42 6.788c-.005 1.4-.905 1.197-2.6-.408-1.993-2.106-1.69-2.805.605-1.598 1.099.603 1.996 1.506 1.994 2.006zm109.676 7.544c-.302.799-.602.498-.598-.602-.097-1.1.205-1.7.504-1.298.3.3.396 1.2.094 1.9zm-60.724 7.61c-.003 1.1-.406 1.998-.906 1.997-.5-.002-.698-.902-.394-2.001.303-1.1.706-1.998.906-1.998.2 0 .397.902.394 2.002zm62.668 10.396c-.303.7-.501.199-.497-1.201.004-1.4.206-1.9.504-1.299.198.7.195 1.9-.008 2.5zm-101.718 5.481c-.002.5-.503.999-1.103.997-.5-.002-.699-.502-.397-1.001.302-.6.803-.998 1.103-.997.2 0 .399.401.397 1.001zm86.183 5.47c-.81 3.298-1.806 1.895-1.393-2.004.409-2.899.61-3.298 1.205-1.696.396 1.101.491 2.801.188 3.7zm-74.509 2.767c-.302.699-.5.198-.496-1.202.004-1.4.206-1.899.504-1.298.198.7.194 1.9-.008 2.5zm473.285 5.683c-.016 5.1-1.618 5.495-4.904 1.285-1.594-2.105.014-4.7 3.014-4.69 1.5.005 1.898.705 1.89 3.405zm-383.04 11.8c1.09 3.303 4.384 5.314 7.886 4.725.7-.098 2.298.607 3.495 1.71 2.393 2.108 5.488 3.618 7.19 3.323.7-.098 1.397.705 1.694 1.805.295 1.401 1.394 1.905 4.194 1.914 2.2.007 4.497.814 5.793 2.018 1.197 1.104 3.793 2.412 5.691 3.018 1.898.606 6.494 2.02 10.29 3.132 3.696 1.211 7.794 2.124 9.194 2.129 1.3.004 2.698.508 2.996 1.01.299.6 1.798.705 3.1.409 2.601-.692 7.296 1.123 8.689 3.327.497.802 1.897 1.006 3.698.612 1.7-.295 3.6.011 4.398.713.798.603 2.397.908 3.398.611 1.001-.397 3.5.111 5.497.917 2.097.807 3.696 1.312 3.697 1.012 0-.3 1 .003 2.298.707 1.198.604 6.295 1.32 11.195 1.335 5 .116 10.298.733 11.896 1.438 1.898.705 3.297.81 3.9.212.601-.598 2.2-.393 4.397.714 3.295 1.61 3.595 1.61 4.901-.285.904-1.197 1.107-2.097.407-2.299-1.198-.404-1.393-2.204-.193-2.2.5.002 1.397 1.104 2.093 2.406.994 1.803 2.092 2.407 4.992 2.416 2 .006 6.3.22 9.598.63 5.399.517 19.096 1.46 32.993 2.203 2.8.11 5.6.318 6.2.42 1.199.104 4.88 6.115 3.68 6.111-.3 0 .395 1.602 1.589 3.505 2.686 4.409 2.067 10.507-1.033 10.497-1-.003-2.201.393-2.503.992-.302.5-2.003.994-3.803.988-7.1-.122-11.802.563-12.505 1.661-.603.898-2.404 1.093-6.203.68-4.398-.513-5.599-.317-6.603 1.08-.803 1.098-1.704 1.395-2.603.892-.698-.502-2.897-1.01-4.796-1.115-4.3-.314-26.49-3.083-26.49-3.283.002-.5-8.296-1.226-12.097-1.138-2.6-.008-4.598-.514-5.395-1.517-.697-.802-2.795-1.509-4.995-1.516-3.8-.012-15.59-3.449-17.684-5.255-.698-.602-3.496-1.211-6.196-1.32-2.8-.208-5.797-.818-6.796-1.32-4.692-2.516-11.586-4.237-12.79-3.24-.902.696-1.601.594-2.498-.509-.697-.802-1.995-1.506-2.995-1.51-1-.002-2.298-.606-2.996-1.409-1.394-1.804-3.696-1.111-4.304 1.187-.304 1.299-.703 1.098-1.696-1.005-.994-2.204-1.792-2.606-3.594-2.212-1.4.396-3.299-.21-5.194-1.616-1.597-1.205-4.693-2.315-6.793-2.421-3.699-.312-8.694-1.828-12.688-3.84-2.696-1.408-5.7-.018-5.708 2.582-.004 1.2-.308 2.5-.61 2.898-1.504 1.395-5.345 14.684-5.66 19.283-.315 4.799-.215 4.899 2.286 4.607 1.7-.195 2.899.309 3.196 1.31.794 1.802-1.22 6.496-2.72 6.491-.6-.002-2.806 1.791-4.813 3.885l-3.712 3.989-1.29-3.505c-.594-1.801-2.088-3.706-3.187-4.01-1.998-.606-7.48-6.123-7.576-7.623.004-1.3-7.372-8.823-8.572-8.827-2-.006-6.28-6.32-5.874-8.519.204-1.099.408-2.298.409-2.598.1-.4 1.002-.897 2.103-1.194 1.101-.296 2.004-1.194 2.007-2.094.003-1 .504-1.298 1.703-.894.999.403 1.4.204 1.001-.497-.697-1.002.112-3.6 2.729-9.092 1.41-2.995.919-5.997-1.373-8.604-4.185-4.713-3.474-8.51 2.848-15.291 2.709-2.792 4.813-4.185 6.513-4.18 1.4.004 2.701-.491 2.903-1.09.303-.9 1.003-.897 2.6.007 1.997 1.107 2.197.907 2.205-1.393.011-3.6 1.61-3.095 2.997.91zm-30.297-.695c3.194 2.01 3.965 11.212.965 11.203-1.7-.005-7.928 8.775-7.433 10.377.198.6-.006 2-.61 3.098-1.005 1.897-1.005 1.897-1.799-.306-.793-2.202-3.89-3.112-3.896-1.212-.002.5-1.305 1.596-3.008 2.49-1.602.896-5.11 3.585-7.718 5.976-5.316 4.884-5.916 5.082-8.71 2.973-2.593-2.008-2.787-4.109-.775-7.902 3.018-5.59 4.723-7.386 7.124-7.778 1.501-.195 3.005-1.49 4.011-3.488.906-1.797 2.11-3.193 2.61-3.091 1.7.205 6.306-1.98 7.21-3.378.403-.799 2.51-2.692 4.614-4.185 2.005-1.594 3.71-3.489 3.713-4.189.005-1.5 1.806-1.794 3.702-.588zm-63.742 13.3c-.005 1.6-.205 1.7-1.501.295-.798-.802-1.193-2.203-.89-3.102.604-1.298.804-1.398 1.5-.296.498.702.894 2.103.89 3.103zm-22.315 4.83c-.303.7-.501.199-.497-1.201.005-1.4.206-1.9.504-1.299.198.7.195 1.9-.007 2.5zm46.686 4.447c.297.8.095 1.5-.405 1.498-.6-.002-.998-.703-.995-1.503.003-.8.205-1.5.405-1.499.2 0 .597.702.995 1.504zm-30.835 11.103c-.401.399-1.4-.104-2.197-1.107-2.19-3.107-1.686-4.305.806-1.897 1.196 1.303 1.792 2.605 1.391 3.004zm75.003-.765c1.493 2.005 1.79 3.306.69 3.302-.5-.002-1.297-1.104-1.993-2.506-1.29-2.904-.59-3.302 1.303-.796zm180.391 2.966c-.002.6-.402.698-1.001.396-.499-.301-.996-1.103-.995-1.603.002-.6.502-.698 1.001-.397.6.302.997 1.104.995 1.604zm168.38 6.927c.297.801.095 1.5-.405 1.5-.6-.003-.998-.704-.996-1.504.003-.8.205-1.5.405-1.499.2 0 .598.702.995 1.503zm-351.446 13.799c-.005 1.5-1.41 3.495-2.109 2.993-1.497-.904-.99-3.403.61-3.398.8.003 1.5.205 1.5.405zm3.992 2.612c-.002.5-.403 1-1.003.997-.5-.002-.998-.503-.997-1.003.002-.6.503-.998 1.003-.997.6.002 1 .403.997 1.003zm60.987 4.192c-.002.5-.203.999-.403.998-.3 0-.798-.502-1.097-1.003-.298-.601-.096-1 .404-.999.6.002 1.098.404 1.096 1.004zm11.987 4.237c-.002.5-.402.799-1.002.797-.5-.002-.997-1.003-.993-2.303.006-1.8.206-1.9 1.002-.697.498.802.994 1.803.993 2.203zm-15.005 1.753c1.292 2.404 2.991 2.61 2.999.31.004-1.4.304-1.3 2.298.507 1.296 1.204 3.193 2.21 4.293 2.213 1.1.003 3.097 1.11 4.392 2.514 2.293 2.407 2.587 4.408 1.563 11.805-.41 3.099-.209 2.9-3.814 4.488-2.303.893-2.805 1.791-2.814 4.591-.006 1.9.488 3.802.987 4.103 1.697 1.006 1.087 4.204-.714 4.398-1 .097-4.4.286-7.501.377-4.6.185-6.303.78-8.509 2.773-1.504 1.395-3.609 2.889-4.51 3.186-.9.297-1.805 1.594-2.009 2.794-.204 1.299-1.609 2.894-3.511 3.789-1.803.894-3.508 2.289-3.81 3.188-.303.899-1.906 1.894-3.507 2.189-1.602.395-5.009 2.684-7.617 5.176-2.607 2.492-5.114 4.484-5.614 4.482-.4 0-.8.398-.802.798-.01 2.8-16.124 7.45-17.516 5.045-.398-.501-1.597-.905-2.697-.909-3.7-.011-4.592-2.514-3.172-9.11.71-3.297 1.822-6.794 2.524-7.692 2.31-2.993 4.817-5.185 5.817-5.182.6.002 1.503-.895 2.106-1.993s1.706-1.995 2.506-1.992c.8.003 2.104-1.294 2.91-2.891.904-1.597 2.209-3.093 3.11-3.39.801-.398 1.505-1.496 1.508-2.596.004-1.2 1.108-2.496 2.71-3.291 1.503-.695 3.71-2.788 4.814-4.485 1.106-1.797 3.012-3.59 4.213-3.887 2.602-.692 5.411-3.583 5.719-6.082.204-1.3 1.005-1.697 2.904-1.49 2.2.306 2.7-.092 2.706-1.692.004-1.2.606-2.098 1.406-2.096.8.003 1.705-1.495 2.011-3.494.508-2.598 1.11-3.296 2.31-2.792.898.402 1.9-.094 2.502-.993.503-.998 1.506-1.695 2.206-1.693.8.003 1.602-.695 2.004-1.493.807-2.198 4.306-1.787 5.599.517zm20.478 7.064c-.404 1-1.3-.004-2.591-2.908-.993-2.403-1.586-4.705-1.284-5.204.804-1.397 4.48 6.314 3.875 8.112zM122 737.238c-.002.5-.505 1.499-1.007 2.297-.804 1.198-1.004 1.097-.998-.803.004-1.2.507-2.199 1.007-2.197.6.002 1 .303.998.703zm119.794 2.176c-.301.299-.9-.203-1.197-1.204-.595-1.402-.495-1.502.502-.599.698.703.996 1.504.695 1.803zm317.203-.506c-.002.5-.503.998-1.103.997-.5-.002-.699-.503-.397-1.002.302-.599.803-.997 1.103-.996.2 0 .399.401.397 1.001zm-304.508 2.045c.895 1.603 1.19 3.004.69 3.003-.8-.003-3.186-4.21-3.182-5.51.004-1.3 1.1-.196 2.492 2.507zm186.897 1.186c1.19 3.104.568 10.102-.936 11.397-.902.798-1.509 2.996-1.517 5.696-.012 3.6-.314 4.399-1.513 3.895-.799-.303-1.9.294-2.504 1.392-.503.999-2.206 1.993-3.707 2.189-1.8.194-2.903.99-3.207 2.29-.204 1.099-1.71 3.194-3.415 4.689-2.206 1.993-3.011 3.59-2.918 5.89.092 2.401-.21 2.9-1.107 1.997-1.694-1.705-5.695-1.418-5.7.382-.008 2.1-6.327 8.48-8.227 8.475-.9-.003-2.103.693-2.805 1.49-.703.799-1.705 1.496-2.305 1.494-.7-.002-2.706 1.891-4.713 4.085-2.71 3.091-4.212 4.087-6.312 3.98-5.499-.417-6.3-.32-12.701.26-12.504 1.261-21.904 1.132-25.299-.479-3.894-1.912-4.686-4.515-1.483-5.305 2.302-.592 6.318-5.88 5.222-6.983-.798-.803 5.515-4.883 6.613-4.18.5.302 1 .204 1.001-.396.002-.6 1.604-1.295 3.506-1.69 2-.293 3.704-1.288 4.007-2.387.404-1.399 2.106-1.893 7.108-2.478 7.902-.775 11.906-1.862 13.811-3.656 4.815-4.585 8.022-6.875 10.624-7.367 1.6-.395 3.103-1.19 3.406-1.89.202-.699 2.506-2.092 5.009-2.984 3.304-1.29 4.808-2.485 5.213-4.183.404-1.3 1.91-3.095 3.513-3.99 1.603-.994 2.906-2.09 2.907-2.49.001-.4.703-.798 1.503-.796.9.003 1.802-.694 2.105-1.493.402-.799 1.204-1.496 2.004-1.494.7.002 1.903-.794 2.606-1.792 1.306-1.896 6.315-4.88 8.416-5.073.7-.098 1.498.604 1.795 1.505zm-181.43 9.232c-.006 2-.006 2-1.5-.005-.797-1.003-1.39-2.805-1.387-3.905.006-2 .006-2 1.4-.095.796 1.102 1.49 2.904 1.487 4.004zm49.004-1.247c-.002.5-.403.999-1.003.997-.5-.002-.998-.503-.997-1.003.002-.6.504-.998 1.004-.997.6.002.998.403.996 1.003zm-136.009 2.674c-.002.5-.701.598-1.5.295-.8-.402-1.496-1.304-1.494-2.104.004-1.3.304-1.3 1.501-.296.798.703 1.495 1.605 1.493 2.105zm-22 .331c-.005 1.4-.409 2.499-1.009 2.497-.5-.002-.996-1.103-.992-2.503.004-1.4.508-2.499 1.008-2.497.6.002.997 1.103.992 2.503zm-3.023 7.09c-.003.8.396 1.402.896 1.403.5.002 1.096 1.104 1.292 2.504.295 1.401.092 2.5-.308 2.5-.5-.002-.897-.903-.894-2.003.003-1.1-.693-2.303-1.492-2.605-.798-.403-1.495-1.505-1.491-2.605.003-1 .505-1.598 1.004-1.297.599.302.996 1.304.993 2.104zm158.393 2.397c.298.801.096 1.5-.404 1.499-.6-.002-.998-.703-.996-1.503.003-.8.205-1.5.405-1.5.2.001.598.703.995 1.504zm3.579 6.911c-.002.6-.7.098-1.497-1.004-.797-1.003-1.493-2.305-1.491-2.805.002-.6.7-.098 1.496 1.005.797 1.002 1.493 2.304 1.492 2.804zm13.204-1.358c-.308 2.399-1.815 4.794-2.612 3.892-.2-.201-.694-1.903-1.089-3.704-.59-3.102-.49-3.301 1.71-2.995 1.8.206 2.197.807 1.99 2.807zm135.599.525c1.497.904 2.192 2.407 2.186 4.407-.01 3.4-4.148 15.387-6.558 18.68-.804 1.197-1.51 2.894-1.512 3.794-.002.8-1.51 2.896-3.415 4.69-1.905 1.694-4.116 5.087-4.923 7.384-1.01 2.997-2.114 4.394-3.314 4.39-1-.003-2.403 1.092-3.108 2.39-1.811 3.695-6.325 8.18-9.83 9.77-1.602.694-4.507 2.185-6.31 3.28-1.804 1.094-5.007 2.184-7.108 2.377-2.1.094-4.302.587-4.903.985-.601.298-2.303.793-3.904 1.088-4.902.684-11.507 2.464-13.711 3.657-1.102.696-4.304 1.286-6.904 1.378-2.701.192-5.403.683-6.004 1.181-1.604 1.195-13.707 2.057-16.204 1.15-1.898-.706-5.401.383-6.606 2.079-.302.499-2.002.394-3.9-.112-2.298-.608-3.798-.612-4.6.085-.702.598-2.203.793-3.202.49-1.099-.403-4.798-.715-8.298-.726-3.5-.11-7.298-.623-8.396-1.226-1.098-.604-7.196-1.223-13.496-1.342-11.899-.238-25.496-1.08-25.495-1.38 0-.1-1.799-.506-3.898-.713-2.1-.306-4.697-.914-5.696-1.417-.998-.604-2.997-1.01-4.397-1.014-1.5-.005-3.898-.612-5.295-1.417-1.498-.805-4.694-1.915-7.192-2.622-2.498-.708-5.994-1.82-7.792-2.625-1.797-.805-4.096-1.413-5.196-1.416-1-.003-2.098-.407-2.397-.908-.298-.4-2.396-1.107-4.595-1.514-2.199-.307-4.296-1.314-4.593-2.114-.397-1.002-1.596-1.305-4.097-1.013-2 .193-3.802.688-4.103.887-.2.3-1.298-.604-2.394-1.908-1.096-1.403-2.792-2.508-3.792-2.512-1.5-.005-4.984-5.215-4.977-7.515.004-1.4 6.121-6.581 7.721-6.576 1-.097 4.498.714 7.795 1.624 3.297.91 6.995 1.722 8.295 1.726 1.2.004 2.198.407 2.197.907-.002.5 1.397.905 3.197.91 2.9.01 10.59 3.034 13.583 5.343 2.095 1.707 6.295 1.72 6.9.122.504-1.299.804-1.298 2.2-.094.898.803 2.296 1.408 3.095 1.51 5.2.016 15.696 1.55 16.393 2.252.599.601 1.399.604 2 .106.702-.598 3.501-.39 7.099.422 3.197.81 6.096 1.22 6.397 1.02.2-.3 1.1.104 1.897.806 1.297 1.004 15.094 1.947 25.695 1.68 1.1-.096 5.3-.183 9.301-.27 6.7-.08 7.3-.277 7.907-2.375l.508-2.299 2.393 2.208c1.695 1.605 2.993 2.01 5.295 1.616 1.7-.394 3.3-.19 3.698.412.398.801.998.703 1.7.005.602-.598 3.504-1.09 6.304-1.08 2.9.009 5.601-.483 5.903-.982.302-.599 3.003-.99 6.003-.981 3 .009 5.702-.482 6.003-.981.402-.599 2.503-.892 4.803-.785 3.299.21 4.3-.087 5.205-1.784.805-1.597 1.506-1.895 3.004-1.29 2.997 1.109 8.3.026 14.51-2.955 8.613-4.273 10.017-5.369 10.025-7.969.004-1.3.71-3.197 1.513-4.095.903-.997 1.91-3.494 2.217-5.593.307-2.099 1.717-5.295 3.023-7.19 1.206-1.897 2.312-3.993 2.314-4.693.002-.6.907-1.997 2.01-2.994 1.103-.997 2.007-2.394 2.01-3.194.002-.7.504-1.298 1.004-1.297.6.002 1.003-.896 1.006-1.996.003-1 .808-2.398 1.81-2.895 2.304-1.493 13.202-.758 15.996 1.05zm-228.522 6.683c.397.802.195 1.701-.306 2-.602.398-1-.304-.996-1.404.008-2.5.608-2.698 1.302-.596zm-19.332 10.04c-.003.8-.404 1.399-1.004 1.397-.5-.002-.997-.903-.993-2.103.003-1.1.505-1.699 1.004-1.397.599.302.996 1.303.993 2.103zm36.882 5.816c-.007 2.1-.106 2.1-.9.197-1.192-2.804-1.189-3.704.009-3 .599.302.995 1.603.89 2.803zm-6.317 5.48c1.188 3.704 1.978 6.906 1.778 7.105-.903.998-3.392-2.51-3.385-4.81.004-1.4-.387-4.101-.882-5.903-1.78-6.206.41-3.099 2.49 3.608zm36.407-2.186c-.004 1.3.29 3.1.687 4.102.396 1.201.195 1.5-.804 1.198-.799-.303-1.295-1.605-1.09-3.104.105-1.4-.191-2.8-.79-3.202-1.597-1.005-1.192-2.504.506-1.899.799.403 1.495 1.705 1.491 2.905zm3.859 13.112c2.487 4.208 2.584 5.108.59 3.402-.798-.703-1.495-1.805-1.493-2.505.002-.7-.695-1.602-1.594-1.905-.799-.302-1.197-1.004-.895-1.603.905-1.497 1.104-1.296 3.392 2.611zm25.484 5.08c.298.8.196 1.2-.403.899-.599-.302-.996-1.003-.995-1.603.004-1.4.704-1.098 1.398.704zm-87.518 5.726c.295 1.6.095 1.7-1.302.496-1.895-1.606-2.089-3.407-.29-2.901.598.302 1.395 1.304 1.592 2.405zm256.9.405c-.202.6.394 2.001 1.49 3.105 1.296 1.304 1.692 2.605 1.186 4.503-.71 2.898-4.434 10.986-5.74 12.682-.501.499-1.706 1.995-2.71 3.192-1.104 1.396-1.61 3.295-1.415 4.696.395 1.7-.008 2.5-1.609 2.894-1.1.297-2.806 2.092-3.812 4.089-.907 1.997-2.012 3.593-2.412 3.592-1.1-.003-6.516 5.28-7.723 7.576-.604 1.198-3.21 3.09-5.714 4.282-2.504 1.192-4.508 2.486-4.51 3.086-.002.5-.602.698-1.201.496-.7-.302-4.904 1.285-9.211 3.471-4.307 2.187-8.413 3.974-9.113 3.972-.7-.002-1.902.794-2.905 1.79-.904 1.098-3.508 2.49-5.91 3.182-2.302.693-4.807 2.085-5.51 2.883-1.003 1.197-3.304 1.59-10.204 1.568-4.9.084-9.201.371-9.602.67-.302.399-1.202.396-2 .093-.8-.302-1.401.096-1.404 1.096-.004 1.4-1.005 1.497-6.004 1.181-4.499-.414-6-.219-6.002.781-.003.8-1.705 1.595-4.106 1.888-5.803.781-6.707 2.079-2.813 4.09 1.997 1.007 3.596 1.312 4.198.714.501-.499 1.602-.695 2.4-.393.8.303 2.002-.293 2.705-1.291 1.105-1.497 1.705-1.595 2.902-.591 1.895 1.606 13.895 1.444 19.201-.34 2.202-.693 6.904-1.378 10.305-1.468 3.5-.089 6.501-.48 6.702-.879.202-.399 2.702-.491 5.401-.183 3.999.413 5.3.117 7.205-1.677 1.304-1.096 2.807-1.991 3.306-1.89 1.2.104 6.105-1.58 8.71-3.072.901-.498 3.603-1.09 6.004-1.182 2.4-.192 5.102-.584 5.903-.981 3.304-1.49 8.809-2.872 11.209-2.865 1.4.004 3.102-.69 3.804-1.488 1.506-1.795 5.006-1.884 8.501-.273 3.495 1.61 3.181 6.11-.52 6.598-1.4.196-2.903.79-3.404 1.29-.602.497-2.003.893-3.303.889-1.3-.004-2.301.393-2.303.993-.002.5-1.103.996-2.503.992-2.9-.01-8.108 2.375-8.713 3.973-.202.599-2.604 1.191-5.404 1.383-2.7.191-5.903.781-7.004 1.278-1.002.597-4.404 1.286-7.305 1.577-3.202.39-5.804 1.282-6.307 2.08-.603 1.098-1.604 1.195-3.602.689-1.498-.505-3.799-.412-5.2.084-1.402.495-3.804 1.188-5.505 1.382-5.602.783-6.403.98-7.105 1.678-.401.399-2.902.69-5.502.683-2.6-.008-5.102.484-5.404 1.083-.401.599-1.402.795-2.4.392-2.897-1.109-19.396-1.56-20.7-.465-.701.598-2.701.592-5 .085-2.198-.407-5.498-.418-7.4-.024-1.901.495-7.303.878-12.002.863l-11.7-.037c-2.3-.007-3.299-.61-3.794-2.212-.99-3.003.313-3.899 6.513-4.08 3.4-.189 6.003-.88 6.706-1.778.702-.798 1.303-1.096 1.302-.696-.003 1 4.004-1.088 4.007-2.088 0-.4-2.195-1.807-4.89-3.115-3.396-1.61-5.794-2.118-7.895-1.725-2.002.494-3.3.19-4.197-.913-.897-1.103-1.597-1.205-2.499-.508-.802.698-3.802.788-8.001.375-5.598-.617-7.196-1.222-10.088-3.932-2.592-2.508-3.387-4.01-3.378-6.81.01-3.1.512-3.799 3.516-5.29 3.305-1.489 3.705-1.488 6 .02 2.595 1.708 2.595 1.708 1.904-1.094-.592-2.702-.492-2.602 2.197.907 1.892 2.505 3.488 3.71 4.69 3.414.9-.197 2.398.208 3.096 1.01 1.794 1.806 9.385 4.63 12.585 4.74 6.4.02 7.3-.178 6.006-1.782-.598-.802-.994-2.003-.692-2.702.303-.799.9-.197 1.496 1.305.992 2.603 1.192 2.603 8.393 2.226 4-.187 8.902-.672 10.803-.966 1.902-.394 3.802-.588 4.202-.487.3.101 4.101-.487 8.404-1.274 4.203-.886 7.904-1.275 8.203-.974.299.301 1.1.003 1.802-.594.702-.598 2.803-1.091 4.603-1.086 2.1-.093 4.103-.887 5.508-2.383 1.204-1.296 3.207-2.39 4.507-2.385 1.3.004 2.903-.891 3.607-1.99.703-1.097 2.106-1.993 3.106-1.99 1 .004 2.402-.692 3.104-1.49.703-.797 1.805-1.494 2.405-1.492 1.5.005 6.415-4.88 8.627-8.673 1.106-1.797 3.513-3.89 5.515-4.683 1.903-.794 3.507-2.089 3.51-2.889.005-1.8 4.214-4.687 6.814-4.679 1.1.003 2.703-1.091 3.608-2.488.904-1.397 2.307-2.493 3.107-2.49.8.002 1.502-.396 1.503-.796.002-.5 1.107-2.196 2.512-3.792 1.405-1.596 2.51-3.192 2.511-3.692.001-.4.703-.698 1.503-.695.8.003 1.502-.696 1.505-1.596.003-.9.905-1.797 2.006-2.093 1.101-.297 2.003-.994 2.006-1.694.005-1.5 8.129-9.375 9.83-9.47.8-.097 1.198.404.996 1.104zm-252.517 5.008c.592 2.402-.811 3.598-1.704 1.395-.794-2.202-.69-3.402.31-3.399.5.002 1.097.903 1.394 2.004zm-11.308 2.465c-.003.8-.405 1.699-1.006 1.997-.601.398-.999-.503-.994-2.003.005-1.5.408-2.399 1.006-1.997.6.302.997 1.203.994 2.003zm16.289 3.651c.395 1.601.294 1.801-.903.797-1.596-1.305-1.89-2.906-.49-2.901.5.002 1.097.903 1.393 2.104zm22.681 5.971c-.002.5-.203 1-.403.999-.3-.001-.798-.503-1.097-1.004-.298-.6-.097-1 .403-.998.6.002 1.099.403 1.097 1.003zm-26.022 6.919c-.103 1.2-.403 1.098-1.498-.405-.797-1.003-1.193-2.304-.791-2.903.703-1.097 2.296 1.208 2.29 3.308zm269.799.845c.995 1.703.993 2.103-.308 2.6-2.303.892-4.795-1.516-3.39-3.211 1.506-1.896 2.206-1.793 3.698.611zm-251.814 4.111c-.003 1.1-.503.998-1.999-.406-1.097-1.004-1.991-2.806-1.988-3.906.006-2 .107-2 2 .406 1.095 1.403 1.99 3.106 1.987 3.906zm7.312-3.877c.297 1.1.194 2-.306 1.999-.4-.001-.997-.903-1.294-2.004-.297-1.101-.194-2 .306-2 .4.002.998.904 1.294 2.005zm-24.306 1.924c-.002.5-.203 1-.403.999-.3-.001-.799-.503-1.097-1.004-.298-.6-.097-1 .403-.999.6.002 1.099.404 1.097 1.004zm-44.313 4.06c-.303.8-.602.499-.598-.601-.097-1.1.205-1.7.504-1.298.299.3.396 1.2.094 1.9zm340.98 6.67c.49 3.501.188 4.1-1.614 4.695-4.805 1.485-6.885-4.722-2.873-8.51 2.708-2.49 3.804-1.487 4.488 3.815zm-283.688-4.09c-.003.8-.404 1.2-1.003.897-.499-.301-.997-1.003-.995-1.603.002-.5.503-.898 1.003-.897.6.002.998.703.995 1.603zm44.897 1.041c4.6.315 6.794 1.822 7.184 5.023.489 3.801-1.128 9.096-3.232 10.49-3.508 2.389-6.417 5.38-6.521 6.68-.21 2.799-.51 2.998-2.908 2.49-1.7-.305-3.402.39-5.607 2.183-1.805 1.494-3.808 2.488-4.507 2.186-.8-.303-1.8.294-2.404 1.292-.503.998-2.107 2.193-3.508 2.489-1.401.396-2.503 1.092-2.505 1.592-.004 1.3-3.703 1.089-7.899-.425-3.396-1.21-8.074-8.025-8.063-11.825.003-.9-.594-1.902-1.193-2.104-.699-.302-.098-.6 1.502-.595 2-.094 2.702-.592 2.706-2.092.004-1.3.707-1.997 2.007-1.993 1.1.003 2.001-.494 2.003-1.094.002-.6.903-.897 2.002-.594 1.499.405 2 .006 2.004-1.393.003-1 .706-1.898 1.506-1.896.8.002 3.205-1.59 5.212-3.583 2.106-1.894 5.012-3.785 6.612-4.08 1.701-.294 2.704-1.191 2.708-2.291.008-2.6.809-2.898 4.805-1.785 1.999.506 5.697 1.118 8.096 1.325zm44.779 6.84c-.302.7-.5.2-.496-1.2.004-1.4.206-1.9.504-1.3.198.701.194 1.901-.008 2.5zm31.288 3.799c1.59 3.005 1.189 3.603-1.005 1.597-2.094-1.907-2.589-3.509-.989-3.504.5.002 1.397.905 1.994 1.907zm-41.017 5.371c-.003 1.1-1.905 1.494-2.502.592-.298-.5.103-1 .903-.997.9.003 1.6.205 1.6.405zm-35.053 16.89c0 .3-.403.8-1.003 1.097-.501.299-1 .097-1-.403.003-.6.504-1.098 1.004-1.097.6.002 1 .203.999.403zm148.927 23.667c-.003.8-.404 1.2-1.003.897-.5-.301-.997-1.003-.995-1.603.002-.5.503-.898 1.003-.897.6.002.997.703.995 1.603zm-66.899 31.19c.4.002.8.403.797 1.003-.006 2-2.899-.309-3.89-3.212-1.486-4.405-1.185-4.804.604-1.098.894 1.803 1.99 3.306 2.49 3.308z" fill="#999"/></svg>